<svg width="24" height="24" viewBox="0 0 24 24" fill="none" xmlns="http://www.w3.org/2000/svg">
<g clip-path="url(#clip0_15_399)">
<path fill-rule="evenodd" clip-rule="evenodd" d="M7.04685 18.3694C6.7677 18.3694 6.54102 18.1426 6.54102 17.8635V4.80098C6.54102 4.1347 7.55282 4.1347 7.55282 4.80098V17.8635C7.55282 18.1428 7.32613 18.3694 7.04685 18.3694Z" fill="white"/>
<path fill-rule="evenodd" clip-rule="evenodd" d="M16.9591 18.3693C16.68 18.3693 16.4531 18.1426 16.4531 17.8634V4.80088C16.4531 4.13473 17.4649 4.13473 17.4649 4.80088V17.8634C17.4649 18.1426 17.2382 18.3693 16.9591 18.3693Z" fill="white"/>
<path fill-rule="evenodd" clip-rule="evenodd" d="M20.8782 20.0077H3.12956C2.97727 20.0077 2.85352 19.884 2.85352 19.7318V17.8633C2.85352 17.711 2.97727 17.5874 3.12956 17.5874H20.8782C21.0305 17.5874 21.1541 17.7112 21.1541 17.8633V19.7318C21.1541 19.8841 21.0304 20.0077 20.8782 20.0077Z" fill="white"/>
<path fill-rule="evenodd" clip-rule="evenodd" d="M15.0765 16.6222H8.93141C8.51164 16.6222 8.16992 16.2805 8.16992 15.8607V14.9503C8.16992 14.2625 8.72933 13.7031 9.41685 13.7031H14.5909C15.2784 13.7031 15.838 14.2627 15.838 14.9503V15.8607C15.8381 16.2805 15.4965 16.6222 15.0766 16.6222H15.0765Z" fill="white"/>
<path fill-rule="evenodd" clip-rule="evenodd" d="M10.2504 18.1391H9.17434C9.02205 18.1391 8.89844 18.0153 8.89844 17.8632V16.3461C8.89844 15.9988 9.40286 15.9837 9.44716 16.3005H9.97774C10.022 15.9836 10.5265 15.999 10.5265 16.3461V17.8632C10.5265 18.0155 10.4028 18.1391 10.2506 18.1391H10.2504Z" fill="white"/>
<path fill-rule="evenodd" clip-rule="evenodd" d="M14.8326 18.1389H13.7565C13.6042 18.1389 13.4805 18.0152 13.4805 17.863V16.3457C13.4805 15.9865 14.0324 15.9743 14.0324 16.3541H14.5564C14.5564 15.9741 15.1082 15.9866 15.1082 16.3457V17.863C15.1085 18.0153 14.9847 18.1389 14.8324 18.1389H14.8326Z" fill="white"/>
<path fill-rule="evenodd" clip-rule="evenodd" d="M18.7259 8.15584H5.27901C4.61273 8.15584 4.61273 7.14404 5.27901 7.14404H18.7259C19.3922 7.14404 19.3922 8.15584 18.7259 8.15584Z" fill="white"/>
<path fill-rule="evenodd" clip-rule="evenodd" d="M20.4925 11.3071H18.7271C18.5748 11.3071 18.4512 11.1835 18.4512 11.0312V4.26809C18.4512 4.1158 18.5749 3.99219 18.7271 3.99219H20.4925C20.8841 3.99219 21.2031 4.31084 21.2031 4.70277V10.5967C21.2031 10.9884 20.8843 11.3071 20.4925 11.3071Z" fill="white"/>
<path fill-rule="evenodd" clip-rule="evenodd" d="M21.8228 10.5128C21.2516 10.5128 20.6504 10.6282 20.6504 10.2367C20.6504 10.0885 20.7367 10.013 20.8751 9.97627V5.3345C20.564 5.285 20.5812 4.78662 20.9264 4.78662H21.8228C22.4542 4.78662 22.9679 5.30033 22.9679 5.93173V9.36764C22.9679 9.99891 22.4542 10.5126 21.8228 10.5126V10.5128Z" fill="white"/>
<path fill-rule="evenodd" clip-rule="evenodd" d="M5.28068 11.307H3.51527C3.12363 11.307 2.80469 10.9883 2.80469 10.5965V4.70263C2.80469 4.31099 3.12363 3.99219 3.51527 3.99219H5.28068C5.43298 3.99219 5.55659 4.11594 5.55659 4.26809V11.0309C5.55659 11.1835 5.43298 11.307 5.28068 11.307Z" fill="white"/>
<path fill-rule="evenodd" clip-rule="evenodd" d="M3.0801 10.5129H2.1839C1.55249 10.5129 1.03906 9.99931 1.03906 9.3679V5.932C1.03906 5.30059 1.55263 4.78689 2.1839 4.78689C2.75498 4.78689 3.35615 4.67143 3.35615 5.06293C3.35615 5.22339 3.25504 5.29862 3.09655 5.33153V9.96148C3.44348 9.9778 3.43799 10.513 3.08024 10.513L3.0801 10.5129Z" fill="white"/>
<path fill-rule="evenodd" clip-rule="evenodd" d="M1.31429 8.15552C0.889878 8.15552 0 8.30992 0 7.64955C0 6.98931 0.889878 7.14358 1.31429 7.14358C1.98043 7.14358 1.98071 8.15538 1.31429 8.15538V8.15552Z" fill="white"/>
<path fill-rule="evenodd" clip-rule="evenodd" d="M23.5 8.15552C23.0756 8.15552 22.1855 8.30992 22.1855 7.64955C22.1855 6.98931 23.0756 7.14358 23.5 7.14358C24.1663 7.14358 24.1663 8.15538 23.5 8.15538V8.15552Z" fill="white"/>
</g>
<defs>
<clipPath id="clip0_15_399">
<rect width="24" height="24" fill="white"/>
</clipPath>
</defs>
</svg>
