<svg width="24" height="24" viewBox="0 0 24 24" fill="none" xmlns="http://www.w3.org/2000/svg">
<path d="M4.39639 16.2398C6.70839 15.6678 9.38439 16.3078 11.6004 17.9558V5.19184C9.29239 3.65584 6.58039 3.09184 4.20439 3.67984C4.02839 3.72384 3.90039 3.88384 3.90039 4.06784V15.8518C3.90039 15.9758 3.96039 16.0918 4.05639 16.1678C4.15239 16.2438 4.28039 16.2718 4.39639 16.2398ZM5.96439 6.25584C7.46839 6.19984 9.03639 6.55184 10.5004 7.26784C10.7004 7.36784 10.7804 7.60784 10.6844 7.80384C10.6124 7.94784 10.4724 8.02784 10.3244 8.02784C10.2644 8.02784 10.2044 8.01584 10.1484 7.98784C8.80039 7.32784 7.36839 7.00384 5.99639 7.05584C5.77639 7.06384 5.58839 6.89184 5.58039 6.66784C5.57239 6.44784 5.74439 6.26384 5.96439 6.25584ZM5.96439 8.43584C7.47239 8.38384 9.03639 8.72784 10.5004 9.44784C10.7004 9.54784 10.7804 9.78384 10.6844 9.98384C10.6124 10.1238 10.4724 10.2078 10.3244 10.2078C10.2644 10.2078 10.2044 10.1958 10.1484 10.1678C8.80039 9.50384 7.36839 9.18384 5.99639 9.23184C5.77639 9.23984 5.58839 9.06784 5.58039 8.84784C5.57239 8.62784 5.74439 8.44384 5.96439 8.43584ZM5.96439 10.6118C7.47239 10.5598 9.03639 10.9078 10.5004 11.6278C10.7004 11.7238 10.7804 11.9638 10.6844 12.1638C10.6124 12.3038 10.4724 12.3878 10.3244 12.3878C10.2644 12.3878 10.2044 12.3718 10.1484 12.3478C8.80039 11.6838 7.36839 11.3638 5.99639 11.4118C5.77639 11.4238 5.58839 11.2478 5.58039 11.0278C5.57239 10.8078 5.74439 10.6198 5.96439 10.6118ZM5.96439 12.7918C7.46839 12.7398 9.03639 13.0878 10.5004 13.8078C10.7004 13.9038 10.7804 14.1438 10.6844 14.3438C10.6124 14.4838 10.4724 14.5678 10.3244 14.5678C10.2644 14.5678 10.2044 14.5518 10.1484 14.5238C8.80039 13.8638 7.36839 13.5398 5.99639 13.5918C5.77639 13.5998 5.58839 13.4278 5.58039 13.2078C5.57239 12.9878 5.74439 12.7998 5.96439 12.7918Z" fill="white"/>
<path d="M12.4004 5.19218V17.9602C14.6124 16.3082 17.2924 15.6682 19.6044 16.2402C19.7244 16.2722 19.8524 16.2442 19.9484 16.1682C20.0444 16.0922 20.1004 15.9762 20.1004 15.8522V4.06818C20.1004 3.88818 19.9804 3.72418 19.8044 3.68418C17.4284 3.09218 14.7124 3.65618 12.4004 5.19218ZM18.0084 13.5922C16.6404 13.5402 15.2004 13.8642 13.8564 14.5242C13.8004 14.5522 13.7404 14.5682 13.6804 14.5682C13.5324 14.5682 13.3884 14.4842 13.3204 14.3442C13.2244 14.1442 13.3044 13.9042 13.5044 13.8082C14.9684 13.0882 16.5244 12.7402 18.0404 12.7922C18.2604 12.8002 18.4324 12.9882 18.4244 13.2082C18.4164 13.4282 18.2244 13.5962 18.0084 13.5922ZM18.0084 11.4122C16.6404 11.3642 15.2004 11.6842 13.8564 12.3482C13.8004 12.3722 13.7404 12.3882 13.6804 12.3882C13.5324 12.3882 13.3884 12.3042 13.3204 12.1642C13.2244 11.9642 13.3044 11.7242 13.5044 11.6282C14.9684 10.9082 16.5364 10.5602 18.0404 10.6122C18.2604 10.6202 18.4324 10.8082 18.4244 11.0282C18.4164 11.2482 18.2244 11.4202 18.0084 11.4122ZM18.0084 9.23218C16.6404 9.18018 15.2004 9.50418 13.8564 10.1682C13.8004 10.1962 13.7404 10.2082 13.6804 10.2082C13.5324 10.2082 13.3884 10.1242 13.3204 9.98418C13.2244 9.78418 13.3044 9.54818 13.5044 9.44818C14.9684 8.72818 16.5364 8.38018 18.0404 8.43618C18.2604 8.44418 18.4324 8.62818 18.4244 8.84818C18.4164 9.06818 18.2244 9.24018 18.0084 9.23218ZM18.0084 7.05618C16.6404 7.00418 15.2004 7.32818 13.8564 7.98818C13.8004 8.01618 13.7404 8.02818 13.6804 8.02818C13.5324 8.02818 13.3884 7.94818 13.3204 7.80418C13.2244 7.60818 13.3044 7.36818 13.5044 7.26818C14.9684 6.55218 16.5324 6.20018 18.0404 6.25618C18.2604 6.26418 18.4324 6.44818 18.4244 6.66818C18.4164 6.89218 18.2244 7.06418 18.0084 7.05618Z" fill="white"/>
<path d="M21.696 5.51592L20.9 5.31992V15.8519C20.9 16.2239 20.732 16.5679 20.444 16.7959C20.236 16.9599 19.972 17.0519 19.704 17.0519C19.6 17.0519 19.496 17.0399 19.396 17.0119C18.924 16.8959 18.412 16.8359 17.884 16.8359C16.124 16.8359 14.296 17.4999 12.736 18.7039C12.724 18.7119 12.712 18.7159 12.7 18.7239C12.648 18.7599 12.592 18.7959 12.536 18.8239C12.516 18.8359 12.492 18.8399 12.468 18.8479C12.42 18.8679 12.372 18.8839 12.324 18.8999C12.296 18.9079 12.264 18.9159 12.236 18.9199C12.156 18.9359 12.076 18.9479 11.996 18.9479C11.916 18.9479 11.836 18.9359 11.76 18.9199C11.732 18.9159 11.704 18.9079 11.68 18.8999C11.616 18.8839 11.556 18.8599 11.492 18.8319C11.484 18.8279 11.472 18.8239 11.464 18.8199C11.46 18.8199 11.46 18.8159 11.456 18.8159C11.428 18.7999 11.4 18.7839 11.372 18.7639C11.352 18.7519 11.332 18.7399 11.312 18.7279C11.304 18.7199 11.292 18.7159 11.284 18.7119C9.7 17.4919 7.872 16.8279 6.116 16.8279C5.588 16.8279 5.072 16.8879 4.584 17.0079C4.504 17.0319 4.4 17.0439 4.296 17.0439C4.028 17.0439 3.768 16.9519 3.556 16.7879C3.264 16.5559 3.096 16.2119 3.096 15.8439V5.31592L2.3 5.51192C2.128 5.55992 2 5.72392 2 5.90792V18.2799C2 18.4039 2.06 18.5199 2.156 18.5959C2.252 18.6719 2.38 18.6999 2.496 18.6719L4.856 18.0879C5.26 17.9879 5.688 17.9359 6.132 17.9359C7.64 17.9359 9.224 18.5159 10.596 19.5759L11.756 20.4719C11.828 20.5239 11.916 20.5519 12 20.5519C12.088 20.5519 12.172 20.5239 12.244 20.4719L13.408 19.5759C14.776 18.5159 16.364 17.9359 17.872 17.9359C18.316 17.9359 18.744 17.9879 19.148 18.0879L21.504 18.6719C21.624 18.6999 21.752 18.6719 21.848 18.5959C21.944 18.5199 22 18.4039 22 18.2799V5.90792C22 5.72392 21.876 5.55992 21.696 5.51592Z" fill="white"/>
</svg>
