<svg width="24" height="24" viewBox="0 0 24 24" fill="none" xmlns="http://www.w3.org/2000/svg">
<path d="M18.0623 3.14502H5.93905C5.8639 3.14502 5.79146 3.17723 5.74048 3.2309C5.6895 3.28723 5.66535 3.36211 5.67339 3.43751L7.10628 19.6877C7.16531 20.3531 7.71272 20.8549 8.38086 20.8549H15.6205C16.2886 20.8549 16.836 20.3531 16.895 19.6877L18.3279 3.43751C18.336 3.36211 18.3118 3.28723 18.2608 3.2309C18.2099 3.17723 18.1374 3.14502 18.0623 3.14502ZM17.4075 7.77106C16.7796 8.0123 14.2144 8.86854 12.1295 7.72546C9.98817 6.5448 7.48195 7.25292 6.57768 7.57759L6.23152 3.6817H17.7698L17.4075 7.77106Z" fill="white"/>
</svg>
