<svg width="24" height="22" viewBox="0 0 24 22" fill="none" xmlns="http://www.w3.org/2000/svg">
<path d="M9.03859 8.35998C9.30259 8.35998 9.51859 8.14398 9.51859 7.87998V3.24318C9.51859 2.97918 9.30259 2.76318 9.03859 2.76318C8.77459 2.76318 8.55859 2.97918 8.55859 3.24318V7.87998C8.55859 8.14878 8.77459 8.35998 9.03859 8.35998Z" fill="white"/>
<path d="M11.9995 6.15686C12.2635 6.15686 12.4795 5.94086 12.4795 5.67686V1.04006C12.4795 0.776059 12.2635 0.560059 11.9995 0.560059C11.7355 0.560059 11.5195 0.776059 11.5195 1.04006V5.67686C11.5195 5.94086 11.7355 6.15686 11.9995 6.15686Z" fill="white"/>
<path d="M14.9624 8.35998C15.2264 8.35998 15.4424 8.14398 15.4424 7.87998V3.24318C15.4424 2.97918 15.2264 2.76318 14.9624 2.76318C14.6984 2.76318 14.4824 2.97918 14.4824 3.24318V7.87998C14.4824 8.14878 14.6984 8.35998 14.9624 8.35998Z" fill="white"/>
<path d="M24.0007 10.1362V11.773C24.0007 11.9602 23.8903 12.1283 23.7223 12.2099L21.4375 13.2706V9.65625H23.5207C23.7847 9.65625 24.0007 9.86745 24.0007 10.1362Z" fill="white"/>
<path d="M2.5632 9.65625V13.2706L0.2784 12.2099C0.1104 12.1283 0 11.9602 0 11.773V10.1362C0 9.86745 0.216 9.65625 0.48 9.65625H2.5632Z" fill="white"/>
<path d="M20.477 9.65625V18.3634C20.477 20.0626 19.0994 21.4403 17.4002 21.4403H6.59544C4.90584 21.4403 3.52344 20.0626 3.52344 18.3682V9.65625H20.477Z" fill="white"/>
</svg>
