<svg width="24" height="24" viewBox="0 0 24 24" fill="none" xmlns="http://www.w3.org/2000/svg">
<path d="M12.0008 8.7999C13.7681 8.7999 15.2008 7.36721 15.2008 5.5999C15.2008 3.83259 13.7681 2.3999 12.0008 2.3999C10.2335 2.3999 8.80078 3.83259 8.80078 5.5999C8.80078 7.36721 10.2335 8.7999 12.0008 8.7999Z" fill="white"/>
<path d="M16.4242 10.8002C15.9042 9.8402 14.8842 9.2002 13.7242 9.2002H10.2762C9.11617 9.2002 8.09617 9.8402 7.57617 10.8002H10.4002C10.9762 10.8002 11.5362 10.9802 12.0002 11.3042C12.4642 10.9802 13.0242 10.8002 13.6002 10.8002H16.4242Z" fill="white"/>
<path d="M6.4 16.6001V15.8001C6.4 15.1401 5.86 14.6001 5.2 14.6001C4.54 14.6001 4 15.1401 4 15.8001V16.6001C4 17.2601 4.54 17.8001 5.2 17.8001C5.86 17.8001 6.4 17.2601 6.4 16.6001Z" fill="white"/>
<path d="M18.7996 14.6001C18.1396 14.6001 17.5996 15.1401 17.5996 15.8001V16.6001C17.5996 17.2601 18.1396 17.8001 18.7996 17.8001C19.4596 17.8001 19.9996 17.2601 19.9996 16.6001V15.8001C19.9996 15.1401 19.4596 14.6001 18.7996 14.6001Z" fill="white"/>
<path d="M5.20078 11.6001C4.98078 11.6001 4.80078 11.7801 4.80078 12.0001V13.8401C4.92878 13.8121 5.06478 13.8001 5.20078 13.8001C6.30478 13.8001 7.20078 14.6961 7.20078 15.8001V16.6001C7.20078 17.7041 6.30478 18.6001 5.20078 18.6001C5.06478 18.6001 4.92878 18.5881 4.80078 18.5601V21.2001C4.80078 21.4201 4.98078 21.6001 5.20078 21.6001H11.6008V12.0041C11.2648 11.7521 10.8488 11.6001 10.4008 11.6001H5.20078Z" fill="white"/>
<path d="M16.8004 16.6001V15.8001C16.8004 14.6961 17.6964 13.8001 18.8004 13.8001C18.9364 13.8001 19.0724 13.8121 19.2004 13.8401V12.0001C19.2004 11.7801 19.0204 11.6001 18.8004 11.6001H13.6004C13.1524 11.6001 12.7364 11.7521 12.4004 12.0041V21.6001H18.8004C19.0204 21.6001 19.2004 21.4201 19.2004 21.2001V18.5601C19.0724 18.5881 18.9364 18.6001 18.8004 18.6001C17.6964 18.6001 16.8004 17.7041 16.8004 16.6001Z" fill="white"/>
</svg>
