<svg width="24" height="24" viewBox="0 0 24 24" fill="none" xmlns="http://www.w3.org/2000/svg">
<path d="M20.2553 9.18824C19.9833 9.00824 19.6473 8.96024 19.3393 9.05624L17.5673 9.59224L16.4833 8.59624C15.8553 8.01624 15.0833 7.60424 14.2553 7.40024L12.5993 6.99224C11.6833 6.76424 10.7193 6.79624 9.81926 7.08824L7.33126 7.88424C7.21526 7.92024 7.12326 8.00824 7.07926 8.12024L5.88726 11.1962C5.78326 11.4722 5.79126 11.7762 5.91526 12.0442C6.03526 12.3122 6.25526 12.5202 6.53126 12.6242C7.10326 12.8402 7.74326 12.5522 7.95526 11.9842L8.80326 9.81624L10.1313 9.50824L8.89526 14.0522L7.87526 15.6242L4.21126 16.2482C3.63526 16.3482 3.22726 16.8602 3.25526 17.4402C3.28726 18.0762 3.83526 18.5642 4.46326 18.5322L7.67126 18.3682C8.59526 18.3202 9.47126 17.8962 10.0833 17.2002L11.1873 15.9362L13.3073 17.9922L13.1633 20.7442C13.1313 21.3402 13.5513 21.8722 14.1393 21.9802C14.2113 21.9922 14.2833 22.0002 14.3553 22.0002C14.9033 22.0002 15.3913 21.6242 15.5153 21.0682L16.0193 18.8522C16.2793 17.6882 15.9113 16.4482 15.0553 15.6202L13.9753 14.5722L14.8633 11.3042L16.9353 12.3442C17.0393 12.3962 17.1673 12.4002 17.2753 12.3522L20.0993 11.0922C20.5353 10.8962 20.7913 10.4482 20.7393 9.97624C20.7033 9.65224 20.5273 9.36424 20.2553 9.18824Z" fill="white"/>
<path d="M15.1124 6.924C16.4684 6.924 17.5724 5.816 17.5724 4.46C17.5724 3.104 16.4684 2 15.1124 2C13.7524 2 12.6484 3.104 12.6484 4.46C12.6484 5.816 13.7524 6.924 15.1124 6.924Z" fill="white"/>
</svg>
