<svg width="24" height="24" viewBox="0 0 24 24" fill="none" xmlns="http://www.w3.org/2000/svg">
<path d="M20.0557 14.5509C19.8137 14.4365 19.5331 14.4301 19.286 14.5333C19.2748 14.538 19.2639 14.5429 19.2531 14.5482C17.5191 15.2531 15.6137 15.2468 13.8829 14.5297C12.1394 13.8072 10.7818 12.4496 10.0603 10.707C9.30573 8.88451 9.35127 6.81392 10.1839 5.02923C10.2919 4.80095 10.3046 4.54431 10.2194 4.30658C10.1342 4.06884 9.96147 3.87849 9.73323 3.77064C9.49116 3.65619 9.21053 3.64966 8.96674 3.75158C6.75131 4.66076 5.02291 6.37736 4.09987 8.58521C3.17682 10.7931 3.16967 13.2278 4.07971 15.441C4.98975 17.6542 6.70807 19.381 8.91811 20.3031C10.0314 20.7676 11.2023 20.9999 12.3734 20.9999C13.5273 20.9999 14.6814 20.7744 15.7808 20.3232C17.8759 19.4635 19.5544 17.8597 20.5076 15.8074C20.729 15.3367 20.5267 14.7734 20.0557 14.5509Z" fill="white"/>
<path d="M19.0117 5.51066H18.043L19.4441 3.98043C19.6008 3.80926 19.6416 3.56168 19.5479 3.34938C19.4543 3.13703 19.2439 3 19.0117 3H16.7129C16.3893 3 16.127 3.26207 16.127 3.58535C16.127 3.90863 16.3893 4.1707 16.7129 4.1707H17.6816L16.2805 5.70094C16.1238 5.87211 16.083 6.11969 16.1767 6.33199C16.2703 6.54434 16.4807 6.68137 16.7129 6.68137H19.0118C19.3354 6.68137 19.5977 6.4193 19.5977 6.09602C19.5977 5.77273 19.3353 5.51066 19.0117 5.51066Z" fill="white"/>
<path d="M11.8466 7.3573C11.9402 7.56965 12.1506 7.70668 12.3829 7.70668H14.2202C14.5438 7.70668 14.8061 7.44461 14.8061 7.12133C14.8061 6.79805 14.5438 6.53598 14.2202 6.53598H13.7129L14.6526 5.50973C14.8093 5.33855 14.8501 5.09098 14.7564 4.87867C14.6628 4.66633 14.4525 4.5293 14.2202 4.5293H12.3829C12.0593 4.5293 11.7969 4.79137 11.7969 5.11465C11.7969 5.43793 12.0593 5.7 12.3829 5.7H12.8901L11.9505 6.72625C11.7937 6.89742 11.753 7.145 11.8466 7.3573Z" fill="white"/>
<path d="M15.6357 10.8012C15.7293 11.0135 15.9396 11.1505 16.1719 11.1505H18.0093C18.3329 11.1505 18.5952 10.8885 18.5952 10.5652C18.5952 10.2419 18.3329 9.97982 18.0093 9.97982H17.502L18.4416 8.95357C18.5984 8.7824 18.6391 8.53482 18.5455 8.32252C18.4519 8.11018 18.2415 7.97314 18.0093 7.97314H16.1719C15.8483 7.97314 15.586 8.23521 15.586 8.5585C15.586 8.88178 15.8483 9.14385 16.1719 9.14385H16.6792L15.7395 10.1701C15.5828 10.3413 15.542 10.5888 15.6357 10.8012Z" fill="white"/>
</svg>
