<svg width="24" height="24" viewBox="0 0 24 24" fill="none" xmlns="http://www.w3.org/2000/svg">
<path d="M15.0399 6.79308C15.8077 6.02527 15.8077 4.7804 15.0399 4.01259C14.2721 3.24478 13.0272 3.24478 12.2594 4.01259C11.4916 4.7804 11.4916 6.02527 12.2594 6.79308C13.0272 7.56089 14.2721 7.56089 15.0399 6.79308Z" fill="white"/>
<path d="M7.15366 20.0679L8.59934 19.7595C9.90457 19.4786 10.9974 18.581 11.5216 17.3546L11.8676 16.5427L12.9021 16.8956C13.6147 17.1354 14.1662 17.7109 14.3752 18.4338L14.7623 19.7493C14.9028 20.2392 15.3481 20.5646 15.8449 20.5646C15.8894 20.5646 15.934 20.5612 15.9819 20.5543C16.3074 20.5166 16.5986 20.3385 16.7835 20.0679C16.9685 19.7972 17.0234 19.4615 16.9411 19.1429L16.5198 17.5431C16.2526 16.5222 15.6393 15.6075 14.8034 14.9669L13.5667 14.0213L14.0395 11.4075C15.122 12.0789 16.4924 12.0995 17.6126 11.4246L17.8318 11.2944C18.2738 11.0272 18.4177 10.4482 18.1504 10.0063C17.9004 9.58837 17.3625 9.4342 16.9274 9.65002C16.3588 9.93095 15.6599 9.77677 15.2659 9.28005L15.0707 9.03339C14.6356 8.48527 14.0121 8.12558 13.3201 8.02277L11.8367 7.80353C11.3229 7.72817 10.7953 7.7967 10.3191 8.00907L10.0793 8.11186C8.30474 8.89638 7.19136 10.7223 7.31123 12.6579C7.32495 12.9045 7.44485 13.1341 7.63669 13.2916C7.82854 13.4458 8.0752 13.5178 8.32185 13.4835C8.74666 13.4218 9.06868 13.0655 9.08579 12.6339C9.11663 11.7706 9.57571 10.9861 10.2848 10.527L8.96934 16.8168L6.47195 17.7965C6.01287 17.9747 5.71484 18.4098 5.71484 18.9031C5.71484 19.2628 5.87583 19.6019 6.15676 19.828C6.43767 20.0541 6.80081 20.1432 7.15366 20.0679Z" fill="white"/>
</svg>
