<svg width="24" height="24" viewBox="0 0 24 24" fill="none" xmlns="http://www.w3.org/2000/svg">
<path d="M12 9.2002C13.1046 9.2002 14 8.30476 14 7.2002C14 6.09563 13.1046 5.2002 12 5.2002C10.8954 5.2002 10 6.09563 10 7.2002C10 8.30476 10.8954 9.2002 12 9.2002Z" fill="white"/>
<path d="M2.80039 6.3999H4.40039C4.62039 6.3999 4.80039 6.2199 4.80039 5.9999V4.8319C4.82039 4.8999 4.84839 4.9599 4.88439 5.0039L8.90839 11.6519C9.12439 11.9479 9.26439 12.2639 9.32039 12.6159L9.54839 13.6159C9.58439 13.8199 9.49639 14.0319 9.30839 14.2079L7.14039 16.1999C6.81239 16.4959 6.60439 16.8799 6.56039 17.2759L6.14039 20.4559C6.08439 21.0119 6.54839 21.5079 7.21639 21.5879C7.27239 21.5959 7.32439 21.5999 7.38439 21.5999C7.98439 21.5999 8.49639 21.2399 8.60039 20.7639L9.26839 18.1919C9.32839 17.9359 9.51239 17.6999 9.79239 17.5279L11.3564 16.5599C11.7484 16.3159 12.2684 16.3199 12.6564 16.5599L14.1964 17.5119C14.4924 17.6959 14.6924 17.9439 14.7564 18.2319L15.4124 20.7479C15.5204 21.2479 16.0404 21.5999 16.6324 21.5999C16.6924 21.5999 16.7524 21.5959 16.8124 21.5879C17.4284 21.5159 17.8764 21.0839 17.8764 20.5599C17.8764 20.5119 17.8724 20.4679 17.8684 20.4479L17.4564 17.3079C17.4084 16.8879 17.2044 16.4999 16.8604 16.1839L14.5444 14.0599C14.4964 14.0119 14.4164 13.9199 14.4324 13.8239L14.6804 12.7079C14.7444 12.2999 14.9164 11.9119 15.1844 11.5559C15.1924 11.5439 15.2004 11.5319 15.2044 11.5199L19.1204 5.0519C19.1524 5.0079 19.1804 4.9599 19.2004 4.9079V5.9999C19.2004 6.2199 19.3804 6.3999 19.6004 6.3999H21.2004C21.4204 6.3999 21.6004 6.2199 21.6004 5.9999V2.7999C21.6004 2.5759 21.4204 2.3999 21.2004 2.3999H19.6004C19.3804 2.3999 19.2004 2.5759 19.2004 2.7999V3.9999H17.6204H17.5284H6.48839H6.39239H4.80039V2.7999C4.80039 2.5759 4.62039 2.3999 4.40039 2.3999H2.80039C2.58039 2.3999 2.40039 2.5759 2.40039 2.7999V5.9999C2.40039 6.2199 2.58039 6.3999 2.80039 6.3999ZM16.7604 4.7999L13.0484 9.7759C12.3804 9.5879 11.6844 9.5879 10.9684 9.7799L7.25639 4.7999H16.7604Z" fill="white"/>
</svg>
