<svg width="24" height="24" viewBox="0 0 24 24" fill="none" xmlns="http://www.w3.org/2000/svg">
<path d="M11.9992 8.7999C13.5456 8.7999 14.7992 7.36721 14.7992 5.5999C14.7992 3.83259 13.5456 2.3999 11.9992 2.3999C10.4528 2.3999 9.19922 3.83259 9.19922 5.5999C9.19922 7.36721 10.4528 8.7999 11.9992 8.7999Z" fill="white"/>
<path d="M5.59961 13.1319V15.7559C6.25961 15.7719 6.89961 15.9919 7.44361 16.3919L7.93961 16.7519C8.86761 14.4959 8.79961 11.2479 8.79961 11.2079C8.79561 10.9879 8.96761 10.8039 9.19161 10.7999C9.40761 10.7879 9.59561 10.9679 9.59961 11.1919C9.60361 11.3599 9.67561 14.8079 8.60361 17.2399L11.9996 19.7119L15.3916 17.2359C14.3236 14.8039 14.3956 11.3559 14.3996 11.1919C14.4036 10.9679 14.5876 10.7879 14.8076 10.7999C15.0316 10.8039 15.2036 10.9879 15.1996 11.2079C15.1996 11.2479 15.1316 14.4919 16.0596 16.7479L16.5556 16.3879C17.0996 15.9879 17.7356 15.7719 18.3996 15.7559V13.1319C18.3996 10.8079 16.8476 8.83991 14.7236 8.21191C14.0636 9.05991 13.0876 9.59991 11.9996 9.59991C10.9116 9.59991 9.93561 9.05991 9.27561 8.21191C7.15161 8.83991 5.59961 10.8079 5.59961 13.1319Z" fill="white"/>
<path d="M20.0992 20.54C20.5032 20.152 20.7632 19.624 20.7952 19.036C20.8152 18.716 20.7672 18.4 20.6592 18.092C20.5512 17.788 20.3832 17.516 20.1672 17.28C19.3712 16.416 18.0232 16.308 17.0272 17.036L11.9992 20.704L6.97122 17.036C5.97922 16.308 4.62722 16.416 3.83122 17.28C3.61522 17.516 3.44722 17.788 3.33922 18.092C3.24722 18.356 3.19922 18.624 3.19922 18.892C3.19922 18.94 3.19922 18.988 3.20322 19.036C3.26722 20.208 4.24322 21.148 5.46722 21.22L11.9352 21.596L11.9752 21.6H11.9992C12.0192 21.6 12.0392 21.6 12.0632 21.596L18.5312 21.22C19.1432 21.184 19.6952 20.932 20.0992 20.54Z" fill="white"/>
</svg>
