<svg width="392" height="352" viewBox="0 0 392 352" fill="none" xmlns="http://www.w3.org/2000/svg">
<g clip-path="url(#clip0_4013_5814)">
<path d="M258.556 8.8248C258.556 8.8248 193.154 -16.9072 130.556 19.3815C67.958 55.6702 37.8549 130.309 11.958 190.103C-14.0214 249.814 3.54562 311.835 52.8652 341.278C102.185 370.722 134.102 330.227 202.144 330.144C270.185 330.062 288.824 340.619 344.247 302.268C399.669 263.918 407.339 169.897 360.906 98.9691C314.391 27.9588 258.556 8.8248 258.556 8.8248Z" fill="#411A11"/>
<g opacity="0.5">
<path d="M266.145 267.794H379.547V65.2372C379.547 33.1548 353.567 7.0929 321.402 7.0929C290.887 7.0929 266.145 31.8352 266.145 62.3506V267.794Z" stroke="white" stroke-miterlimit="10" stroke-linecap="round" stroke-linejoin="round"/>
<path d="M366.762 267.134V65.6496C366.762 41.4022 347.133 21.7733 322.886 21.7733C298.639 21.7733 279.01 41.4022 279.01 65.6496V267.134" stroke="white" stroke-miterlimit="10" stroke-linecap="round" stroke-linejoin="round"/>
<path d="M322.887 7.17542V267.464" stroke="white" stroke-miterlimit="10" stroke-linecap="round" stroke-linejoin="round"/>
<path d="M378.969 57.3197H266.887" stroke="white" stroke-miterlimit="10" stroke-linecap="round" stroke-linejoin="round"/>
<path d="M378.969 92.6187H266.887" stroke="white" stroke-miterlimit="10" stroke-linecap="round" stroke-linejoin="round"/>
<path d="M378.969 128H266.887" stroke="white" stroke-miterlimit="10" stroke-linecap="round" stroke-linejoin="round"/>
<path d="M378.969 163.382H266.887" stroke="white" stroke-miterlimit="10" stroke-linecap="round" stroke-linejoin="round"/>
<path d="M378.969 198.681H266.887" stroke="white" stroke-miterlimit="10" stroke-linecap="round" stroke-linejoin="round"/>
<path d="M378.969 234.062H266.887" stroke="white" stroke-miterlimit="10" stroke-linecap="round" stroke-linejoin="round"/>
<path d="M363.959 24.8248L353.814 34.0619" stroke="white" stroke-miterlimit="10" stroke-linecap="round" stroke-linejoin="round"/>
<path d="M282.145 24.8248L292.289 34.0619" stroke="white" stroke-miterlimit="10" stroke-linecap="round" stroke-linejoin="round"/>
</g>
<g opacity="0.5">
<path d="M200.001 47.5878H189.196C188.124 47.5878 187.052 47.0104 186.475 46.1032C184.083 42.3919 178.31 32.6599 179.135 28.6187C180.207 23.1754 195.3 13.361 195.3 13.361C195.3 13.361 209.073 23.0104 210.062 28.1238C210.887 32.2476 205.032 42.2269 202.722 46.0208C202.145 47.0929 201.073 47.5878 200.001 47.5878Z" stroke="white" stroke-miterlimit="10" stroke-linecap="round" stroke-linejoin="round"/>
<path d="M196.288 45.8558L186.886 51.2991C185.896 51.8764 184.742 51.8764 183.752 51.3815C179.876 49.3197 169.979 43.8764 168.659 39.9176C166.927 34.6393 175.01 18.6393 175.01 18.6393C175.01 18.6393 191.835 20.1238 195.216 24.0826C198.02 27.2991 197.938 38.763 197.773 43.2991C197.855 44.2888 197.195 45.2785 196.288 45.8558Z" stroke="white" stroke-miterlimit="10" stroke-linecap="round" stroke-linejoin="round"/>
<path d="M192.164 46.1857L186.721 55.5877C186.143 56.5774 185.154 57.1547 184.082 57.1547C179.71 57.3197 168.411 57.5671 165.277 54.763C161.154 51.0516 160.164 33.1547 160.164 33.1547C160.164 33.1547 175.422 26.0619 180.37 27.7114C184.329 29.1135 190.102 39.0929 192.164 43.0516C192.741 44.0413 192.741 45.196 192.164 46.1857Z" stroke="white" stroke-miterlimit="10" stroke-linecap="round" stroke-linejoin="round"/>
<path d="M188.783 48.4949V59.2991C188.783 60.3712 188.206 61.4434 187.299 62.0207C183.588 64.4125 173.856 70.1857 169.814 69.3609C164.371 68.2888 154.557 53.196 154.557 53.196C154.557 53.196 164.206 39.4228 169.32 38.4331C173.443 37.6083 183.423 43.464 187.216 45.7733C188.206 46.3506 188.783 47.3403 188.783 48.4949Z" stroke="white" stroke-miterlimit="10" stroke-linecap="round" stroke-linejoin="round"/>
<path d="M187.052 52.2063L192.496 61.6083C193.073 62.598 193.073 63.7527 192.578 64.7424C190.516 68.6187 185.073 78.5156 181.114 79.8352C175.836 81.5671 159.836 73.4846 159.836 73.4846C159.836 73.4846 161.32 56.6599 165.279 53.2784C168.496 50.4743 179.96 50.5568 184.496 50.7217C185.485 50.6393 186.475 51.2166 187.052 52.2063Z" stroke="white" stroke-miterlimit="10" stroke-linecap="round" stroke-linejoin="round"/>
<path d="M187.299 56.2476L196.701 61.6909C197.691 62.2682 198.268 63.2579 198.268 64.33C198.433 68.7012 198.681 80.0001 195.877 83.1342C192.165 87.2579 174.268 88.2476 174.268 88.2476C174.268 88.2476 167.175 72.9898 168.825 68.0414C170.227 64.0826 180.206 58.3094 184.165 56.2476C185.155 55.6702 186.392 55.6702 187.299 56.2476Z" stroke="white" stroke-miterlimit="10" stroke-linecap="round" stroke-linejoin="round"/>
<path d="M189.608 59.629H200.412C201.484 59.629 202.556 60.2063 203.133 61.1136C205.525 64.8249 211.298 74.5569 210.474 78.5981C209.401 84.0414 194.309 93.8558 194.309 93.8558C194.309 93.8558 180.535 84.2063 179.546 79.0929C178.721 74.9692 184.577 64.9898 186.886 61.196C187.463 60.2063 188.535 59.629 189.608 59.629Z" stroke="white" stroke-miterlimit="10" stroke-linecap="round" stroke-linejoin="round"/>
<path d="M193.319 61.4435L202.721 56.0002C203.711 55.4228 204.866 55.4228 205.855 55.9177C209.732 57.9796 219.628 63.4228 220.948 67.3816C222.68 72.66 214.598 88.66 214.598 88.66C214.598 88.66 197.773 87.1754 194.391 83.2167C191.587 80.0002 191.67 68.5362 191.835 64.0002C191.752 63.0105 192.412 62.0208 193.319 61.4435Z" stroke="white" stroke-miterlimit="10" stroke-linecap="round" stroke-linejoin="round"/>
<path d="M197.443 61.1136L202.886 51.7115C203.463 50.7218 204.453 50.1445 205.525 50.1445C209.896 49.9796 221.195 49.7321 224.329 52.5363C228.453 56.2476 229.443 74.1445 229.443 74.1445C229.443 74.1445 214.185 81.2373 209.237 79.5878C205.278 78.1858 199.505 68.2064 197.443 64.2476C196.865 63.2579 196.865 62.1033 197.443 61.1136Z" stroke="white" stroke-miterlimit="10" stroke-linecap="round" stroke-linejoin="round"/>
<path d="M200.824 58.8042V48.0001C200.824 46.9279 201.402 45.8558 202.309 45.2784C206.02 42.8867 215.752 37.1135 219.793 37.9382C225.237 39.0104 235.051 54.1032 235.051 54.1032C235.051 54.1032 225.402 67.8764 220.206 68.8661C216.082 69.6908 206.103 63.8351 202.309 61.5259C201.402 60.9485 200.824 59.8764 200.824 58.8042Z" stroke="white" stroke-miterlimit="10" stroke-linecap="round" stroke-linejoin="round"/>
<path d="M202.557 55.0929L197.114 45.6908C196.536 44.7011 196.536 43.5465 197.031 42.5568C199.093 38.6805 204.537 28.7836 208.495 27.464C213.774 25.732 229.774 33.8145 229.774 33.8145C229.774 33.8145 228.289 50.6393 224.33 54.0207C221.114 56.8248 209.65 56.7424 205.114 56.5774C204.207 56.6599 203.134 56.0826 202.557 55.0929Z" stroke="white" stroke-miterlimit="10" stroke-linecap="round" stroke-linejoin="round"/>
<path d="M202.309 51.0516L192.907 45.6083C191.918 45.031 191.34 44.0413 191.34 42.9692C191.175 38.598 190.928 27.2991 193.732 24.165C197.443 20.0413 215.34 19.0516 215.34 19.0516C215.34 19.0516 222.433 34.3094 220.784 39.2578C219.382 43.2166 209.402 48.9898 205.443 51.0516C204.454 51.629 203.217 51.5465 202.309 51.0516Z" stroke="white" stroke-miterlimit="10" stroke-linecap="round" stroke-linejoin="round"/>
<path d="M194.803 103.918C222.588 103.918 245.113 81.3934 245.113 53.6084C245.113 25.8233 222.588 3.29907 194.803 3.29907C167.018 3.29907 144.494 25.8233 144.494 53.6084C144.494 81.3934 167.018 103.918 194.803 103.918Z" stroke="white" stroke-miterlimit="10" stroke-linecap="round" stroke-linejoin="round"/>
<path d="M195.299 13.4434V3.29907" stroke="white" stroke-miterlimit="10" stroke-linecap="round" stroke-linejoin="round"/>
<path d="M194.309 93.8558V103.918" stroke="white" stroke-miterlimit="10" stroke-linecap="round" stroke-linejoin="round"/>
<path d="M235.051 54.1031H245.113" stroke="white" stroke-miterlimit="10" stroke-linecap="round" stroke-linejoin="round"/>
<path d="M154.556 53.1959H144.494" stroke="white" stroke-miterlimit="10" stroke-linecap="round" stroke-linejoin="round"/>
<path d="M169.897 28.7836L159.588 18.5568" stroke="white" stroke-miterlimit="10" stroke-linecap="round" stroke-linejoin="round"/>
<path d="M219.133 78.6805L230.349 89.897" stroke="white" stroke-miterlimit="10" stroke-linecap="round" stroke-linejoin="round"/>
<path d="M219.463 30.0207L230.679 18.8867" stroke="white" stroke-miterlimit="10" stroke-linecap="round" stroke-linejoin="round"/>
<path d="M169.896 78.1031L159.01 88.9898" stroke="white" stroke-miterlimit="10" stroke-linecap="round" stroke-linejoin="round"/>
</g>
<g opacity="0.5">
<path d="M9.23633 267.794H122.638V65.2372C122.638 33.1548 96.659 7.0929 64.4941 7.0929C33.9786 7.0929 9.23633 31.8352 9.23633 62.3506V267.794Z" stroke="white" stroke-miterlimit="10" stroke-linecap="round" stroke-linejoin="round"/>
<path d="M109.772 267.134V65.6496C109.772 41.4022 90.1433 21.7733 65.8958 21.7733C41.6484 21.7733 22.0195 41.4022 22.0195 65.6496V267.134" stroke="white" stroke-miterlimit="10" stroke-linecap="round" stroke-linejoin="round"/>
<path d="M65.8965 7.17542V267.464" stroke="white" stroke-miterlimit="10" stroke-linecap="round" stroke-linejoin="round"/>
<path d="M121.979 57.3197H9.97852" stroke="white" stroke-miterlimit="10" stroke-linecap="round" stroke-linejoin="round"/>
<path d="M121.979 92.6187H9.97852" stroke="white" stroke-miterlimit="10" stroke-linecap="round" stroke-linejoin="round"/>
<path d="M121.979 128H9.97852" stroke="white" stroke-miterlimit="10" stroke-linecap="round" stroke-linejoin="round"/>
<path d="M121.979 163.382H9.97852" stroke="white" stroke-miterlimit="10" stroke-linecap="round" stroke-linejoin="round"/>
<path d="M121.979 198.681H9.97852" stroke="white" stroke-miterlimit="10" stroke-linecap="round" stroke-linejoin="round"/>
<path d="M121.979 234.062H9.97852" stroke="white" stroke-miterlimit="10" stroke-linecap="round" stroke-linejoin="round"/>
<path d="M106.969 24.8248L96.8242 34.0619" stroke="white" stroke-miterlimit="10" stroke-linecap="round" stroke-linejoin="round"/>
<path d="M25.2363 24.8248L35.3807 34.0619" stroke="white" stroke-miterlimit="10" stroke-linecap="round" stroke-linejoin="round"/>
</g>
<path d="M241.484 144C241.484 144 246.597 146.969 253.36 154.227C260.123 161.485 263.917 183.588 256.329 187.959C248.741 192.248 244.205 183.918 244.205 190.351C244.205 196.784 251.463 200.577 243.38 207.34C235.298 214.103 218.061 213.526 215.916 201.65C213.772 189.773 223.504 182.516 225.071 174.681C226.721 166.845 224.494 151.505 226.143 145.567C227.71 139.711 232.576 139.464 241.484 144Z" fill="#263238" stroke="#263238" stroke-miterlimit="10" stroke-linecap="round" stroke-linejoin="round"/>
<path d="M119.915 71.0928C119.915 71.0928 117.853 69.3608 116.781 69.3608C115.709 69.3608 115.214 70.7629 113.647 72C112.08 73.2371 109.688 73.8145 111.09 74.4742C112.492 75.0516 114.389 74.8041 115.626 73.732C116.863 72.6598 116.863 73.2371 117.853 73.4021C118.76 73.567 118.76 73.567 118.76 73.567L119.915 71.0928Z" stroke="#263238" stroke-miterlimit="10" stroke-linecap="round" stroke-linejoin="round"/>
<path d="M117.36 74.6392C117.36 74.6392 113.071 73.8969 112.824 75.134C112.494 76.3711 112.824 77.2784 113.648 77.9381C114.473 78.5155 115.875 78.268 115.875 78.268L117.36 74.6392Z" stroke="#263238" stroke-miterlimit="10" stroke-linecap="round" stroke-linejoin="round"/>
<path d="M112.494 75.9587C112.494 75.9587 110.102 76.866 110.762 78.5979C111.421 80.3299 114.061 80.5773 114.061 80.5773L114.968 78.5979C115.05 78.5979 113.483 78.0206 112.494 75.9587Z" stroke="#263238" stroke-miterlimit="10" stroke-linecap="round" stroke-linejoin="round"/>
<path d="M110.926 79.1753C110.926 79.1753 110.266 80.2475 110.596 81.1547C110.926 82.0619 112.823 82.8866 112.823 82.8866L114.06 80.5774C114.06 80.5774 111.091 79.8351 110.926 79.1753Z" stroke="#263238" stroke-miterlimit="10" stroke-linecap="round" stroke-linejoin="round"/>
<path d="M110.596 81.2372C110.596 81.2372 109.524 81.8145 109.936 82.8042C110.431 83.7114 111.833 83.8764 111.833 83.8764L112.74 82.9691C112.823 82.8867 110.761 81.8145 110.596 81.2372Z" stroke="#263238" stroke-miterlimit="10" stroke-linecap="round" stroke-linejoin="round"/>
<path d="M222.596 140.784C222.596 140.784 212.039 133.196 207.751 130.804C203.462 128.412 193.73 126.763 193.73 126.763L169.153 108.701C169.153 108.701 154.555 97.897 147.297 93.8558C140.039 89.8145 127.586 81.4846 127.586 81.4846L120.575 71.5052L112.74 84.9486L125.936 87.9176C125.936 87.9176 150.513 109.773 156.699 115.382C162.885 121.072 167.503 122.969 167.503 122.969C167.503 122.969 179.627 135.093 184.74 139.134C189.854 143.175 192.328 144.248 192.328 144.248C192.328 144.248 191.751 155.876 190.678 160.165C189.606 164.454 187.957 168 185.565 168.825C183.173 169.65 182.348 169.65 182.348 169.65C182.348 169.65 180.699 185.567 186.142 194.227C191.503 202.887 203.379 202.557 206.596 202.557C209.812 202.557 217.153 192.825 217.153 192.825C217.153 192.825 224.74 189.856 227.709 187.134C230.678 184.412 235.627 172.784 235.627 172.784C235.627 172.784 243.874 175.01 252.781 175.01C261.689 175.01 274.06 170.392 274.06 170.392C274.06 170.392 291.05 170.392 299.132 168C307.214 165.608 328.245 158.268 328.245 158.268C328.245 158.268 335.833 160.412 341.689 160.165C347.627 159.918 352.74 159.34 354.39 158.516C356.039 157.691 356.534 156.124 356.534 156.124C356.534 156.124 357.606 156.124 358.184 155.299C358.761 154.474 359.256 153.402 359.256 153.402C359.256 153.402 360.575 153.402 360.575 152.33C360.575 151.258 356.534 149.608 356.534 149.608C356.534 149.608 361.153 147.959 359.256 147.464C357.359 146.969 341.441 146.639 341.441 146.639C341.441 146.639 340.864 145.32 343.091 144.742C345.318 144.165 348.781 141.773 347.132 141.526C345.483 141.278 345.483 141.278 345.483 141.278C345.483 141.278 342.761 142.598 340.617 142.928C338.472 143.175 337.07 144 335.998 144.825C334.926 145.65 329.235 151.258 329.235 151.258C329.235 151.258 322.225 153.155 311.173 153.402C300.122 153.65 296.328 153.402 289.318 154.722C282.307 156.041 275.05 157.691 275.05 157.691L255.915 158.763C255.915 158.763 248.328 158.516 246.513 157.938C244.617 157.361 240.823 156.289 235.957 151.505C231.091 146.639 224.328 141.773 224.328 141.773L222.596 140.784Z" fill="white" stroke="#263238" stroke-miterlimit="10" stroke-linecap="round" stroke-linejoin="round"/>
<path d="M356.617 149.691L349.359 149.938" stroke="#263238" stroke-miterlimit="10" stroke-linecap="round" stroke-linejoin="round"/>
<path d="M359.338 153.485L349.111 152.907" stroke="#263238" stroke-miterlimit="10" stroke-linecap="round" stroke-linejoin="round"/>
<path d="M356.617 156.124L350.184 156.454" stroke="#263238" stroke-miterlimit="10" stroke-linecap="round" stroke-linejoin="round"/>
<path d="M349.359 148.866L350.184 157.526" stroke="#263238" stroke-miterlimit="10" stroke-linecap="round" stroke-linejoin="round"/>
<path d="M341.77 148.619C341.77 148.619 341.77 149.691 341.193 151.588C340.615 153.485 334.76 153.732 334.76 153.732" stroke="#263238" stroke-miterlimit="10" stroke-linecap="round" stroke-linejoin="round"/>
<path d="M274.143 170.474L289.235 166.351" stroke="#263238" stroke-miterlimit="10" stroke-linecap="round" stroke-linejoin="round"/>
<path d="M235.709 172.784L238.018 168" stroke="#263238" stroke-miterlimit="10" stroke-linecap="round" stroke-linejoin="round"/>
<path d="M192.41 144.247L197.524 147.546" stroke="#263238" stroke-miterlimit="10" stroke-linecap="round" stroke-linejoin="round"/>
<path d="M197.029 142.103L198.101 149.361" stroke="#263238" stroke-miterlimit="10" stroke-linecap="round" stroke-linejoin="round"/>
<path d="M227.216 158.845C227.216 158.845 228.865 154.804 231.01 150.186C233.154 145.567 236.123 145.897 237.195 146.392C238.267 146.969 242.309 148.289 243.381 147.216C244.453 146.144 249.814 137.485 249.814 137.485C249.814 137.485 252.535 137.485 253.36 136.165L251.216 130.474C251.216 130.474 252.865 128.825 252.865 127.258C252.865 125.608 252.865 122.969 252.865 122.969C252.865 122.969 253.937 117.031 253.937 115.711C253.937 114.392 248.577 112.742 243.133 115.134C237.772 117.526 222.68 123.794 221.03 127.505C219.381 131.299 218.886 139.629 218.886 139.629C218.886 139.629 218.061 143.175 216.494 148.289" fill="white"/>
<path d="M227.216 158.845C227.216 158.845 228.865 154.804 231.01 150.186C233.154 145.567 236.123 145.897 237.195 146.392C238.267 146.969 242.309 148.289 243.381 147.216C244.453 146.144 249.814 137.485 249.814 137.485C249.814 137.485 252.535 137.485 253.36 136.165L251.216 130.474C251.216 130.474 252.865 128.825 252.865 127.258C252.865 125.608 252.865 122.969 252.865 122.969C252.865 122.969 253.937 117.031 253.937 115.711C253.937 114.392 248.577 112.742 243.133 115.134C237.772 117.526 222.68 123.794 221.03 127.505C219.381 131.299 218.886 139.629 218.886 139.629C218.886 139.629 218.061 143.175 216.494 148.289" stroke="#263238" stroke-miterlimit="10" stroke-linecap="round" stroke-linejoin="round"/>
<path d="M231.257 129.979C231.257 129.979 230.432 123.217 226.968 124.866C223.421 126.515 223.999 131.629 225.071 133.196C226.143 134.845 228.04 134.516 224.494 136.742C220.947 138.887 217.731 140.289 215.339 136.742C212.947 133.196 208.576 125.938 213.69 117.361C218.803 108.701 230.102 101.691 239.834 102.516C249.566 103.34 249.236 107.134 249.236 107.134C249.236 107.134 255.999 102.845 260.535 110.103C265.153 117.361 263.257 121.402 261.36 121.402C259.463 121.402 258.638 119.258 258.638 119.258C258.638 119.258 257.318 121.979 255.916 122.474C254.597 123.052 252.7 123.052 252.7 123.052L251.875 117.691C251.875 117.691 243.793 116.371 242.72 119.588C241.648 122.804 241.071 126.845 237.854 128.495C234.72 129.979 231.257 129.979 231.257 129.979Z" fill="#263238" stroke="#263238" stroke-miterlimit="10" stroke-linecap="round" stroke-linejoin="round"/>
<path d="M249.154 130.227C249.154 131.134 248.742 131.876 248.247 131.876C247.752 131.876 247.34 131.134 247.34 130.227C247.34 129.32 247.752 128.577 248.247 128.577C248.742 128.66 249.154 129.402 249.154 130.227Z" fill="#263238"/>
<path d="M246.102 127.01C246.102 127.01 247.998 124.289 250.72 127.01" stroke="#263238" stroke-miterlimit="10" stroke-linecap="round" stroke-linejoin="round"/>
<path d="M242.555 137.814C242.555 137.814 243.379 140.206 246.101 140.206" stroke="#263238" stroke-miterlimit="10" stroke-linecap="round" stroke-linejoin="round"/>
<path d="M237.195 146.474L230.432 140.289L231.504 148.948C231.504 148.866 233.153 144.577 237.195 146.474Z" fill="#263238" stroke="#263238" stroke-miterlimit="10" stroke-linecap="round" stroke-linejoin="round"/>
<path d="M182.431 169.65L180.04 169.402C180.04 169.402 174.349 163.464 166.019 161.32C157.689 159.175 144.988 162.144 144.988 162.144C144.988 162.144 130.968 154.309 121.813 148.371C112.658 142.433 102.679 137.072 102.679 137.072C102.679 137.072 112.658 116.619 114.308 105.814C115.957 95.0104 118.102 88.0001 119.421 85.6083C120.741 83.2166 122.143 80.4949 122.143 80.4949C122.143 80.4949 127.504 82.6392 129.401 80.7423C131.297 78.8454 130.473 72.0825 130.72 69.9382C130.968 67.7939 131.545 61.8557 131.545 59.3815C131.545 56.9898 131.545 55.8351 131.545 55.8351C131.545 55.8351 133.194 52.866 130.968 53.4434C128.823 54.0207 127.421 55.8351 126.349 57.4846C125.277 59.1341 120.411 69.8557 116.947 75.5465C113.401 81.2372 102.926 98.2269 96.1634 110.103C89.4005 121.979 84.8644 137.072 82.3902 142.433C79.9984 147.794 82.1428 152.99 83.2149 153.732C84.2871 154.557 97.2356 168 108.287 174.763C119.339 181.526 125.524 186.392 129.071 187.711C132.617 189.031 142.514 196.371 143.669 200.083C144.741 203.876 139.38 223.835 143.421 237.031C147.462 250.227 148.535 259.382 148.287 264.495C148.04 269.608 144.246 275.794 144.246 285.526C144.246 295.258 149.112 312.742 149.607 315.711C150.184 318.68 152.328 329.732 152.328 333.526C152.328 337.32 151.256 345.897 151.751 346.969C152.328 348.041 159.009 348.866 161.153 348.289C163.297 347.711 164.947 347.217 167.091 347.217C169.236 347.217 174.679 348.041 177.895 348.041C181.112 348.041 184.081 348.289 184.328 347.217C184.576 346.144 181.607 344.825 180.535 344.495C179.462 344.247 172.699 341.773 169.483 338.062C166.266 334.268 162.72 330.804 161.895 328.66C161.071 326.516 162.72 300.041 163.792 291.217C164.864 282.309 166.184 272.33 166.761 269.938C167.339 267.546 169.73 262.351 171.05 252.371C172.37 242.392 174.596 215.175 174.844 213.031C175.091 210.887 176.493 206.268 176.493 206.268C176.493 206.268 192.411 203.299 196.205 203.299C199.998 203.299 205.359 203.052 208.081 201.65C210.803 200.33 211.297 195.959 208.328 192.742C205.359 189.526 195.957 185.155 192.658 179.546C189.442 173.856 187.297 171.464 187.297 171.464L182.431 169.65Z" fill="white" stroke="#263238" stroke-miterlimit="10" stroke-linecap="round" stroke-linejoin="round"/>
<path d="M180.946 169.485L180.039 169.402C180.039 169.402 174.349 163.464 166.019 161.32C157.689 159.175 144.988 162.144 144.988 162.144C144.988 162.144 130.967 154.309 121.812 148.371C112.658 142.433 102.678 137.072 102.678 137.072C102.678 137.072 112.658 116.619 114.307 105.814C114.637 103.34 115.05 101.113 115.462 99.1341C111.751 96.4124 108.452 94.7629 105.812 93.8557C102.513 99.3815 99.0495 105.237 96.2454 110.103C89.4825 121.979 84.9465 137.072 82.4722 142.433C80.0805 147.794 82.2248 152.99 83.297 153.732C84.3691 154.557 97.3176 168 108.369 174.763C119.421 181.526 125.606 186.392 129.153 187.711C132.699 189.031 142.596 196.371 143.751 200.083C144.823 203.876 139.462 223.835 143.503 237.031C147.544 250.227 148.617 259.381 148.369 264.495C148.122 269.608 144.328 275.794 144.328 285.526C144.328 295.258 149.194 312.742 149.689 315.711C149.771 316.124 149.854 316.701 150.019 317.443C155.544 318.598 159.421 317.938 162.142 316.784C162.555 307.876 163.379 296.495 164.039 291.217C165.111 282.309 166.431 272.33 167.008 269.938C167.586 267.546 169.977 262.351 171.297 252.371C172.617 242.392 174.843 215.175 175.091 213.031C175.338 210.887 176.74 206.268 176.74 206.268C176.74 206.268 178.967 205.856 181.936 205.361C174.349 191.67 178.72 175.588 180.946 169.485Z" fill="#263238" stroke="#263238" stroke-miterlimit="10" stroke-linecap="round" stroke-linejoin="round"/>
<path d="M231.586 180.948C235.627 170.887 233.895 168.66 233.895 165.113C233.895 159.753 234.142 150.021 234.142 150.021L233.813 149.526C233.565 149.278 233.318 149.031 232.988 148.784C232.905 150.268 232.493 155.629 230.843 160.247C228.947 165.608 224.41 168.907 217.07 163.794C209.813 158.68 214.926 150.351 214.926 150.351C214.926 150.351 217.813 141.278 217.648 137.567C216.74 136.907 215.751 136.247 214.761 135.588C214.843 138.969 214.514 145.732 211.38 150.433C207.091 156.866 202.225 160.99 197.111 160.165C194.472 159.753 192.41 159.01 191.008 158.351C190.843 159.175 190.761 159.835 190.596 160.495C189.524 164.784 187.874 168.33 185.483 169.155C183.091 169.979 182.266 169.979 182.266 169.979C182.266 169.979 180.617 185.897 186.06 194.557C191.421 203.217 203.297 202.887 206.514 202.887C209.73 202.887 217.07 193.155 217.07 193.155C217.07 193.155 224.658 190.186 227.627 187.464C229.441 185.65 230.761 182.928 231.586 180.948Z" fill="#D95639" stroke="#263238" stroke-miterlimit="10" stroke-linecap="round" stroke-linejoin="round"/>
<path d="M193.73 170.722C193.73 170.722 193.978 178.309 201.566 179.876" stroke="#263238" stroke-miterlimit="10" stroke-linecap="round" stroke-linejoin="round"/>
<path d="M333.277 205.773C333.277 205.773 333.277 202.557 337.731 198.103C342.185 193.65 345.071 191.093 345.071 191.093C345.071 191.093 347.298 198.433 343.174 202.887C339.051 207.34 333.277 211.547 333.277 211.547V205.773Z" fill="#D95639"/>
<path d="M339.793 225.732C339.793 225.732 339.793 222.516 344.247 218.062C348.7 213.608 351.587 211.052 351.587 211.052C351.587 211.052 353.814 218.392 349.69 222.845C345.566 227.299 339.793 231.505 339.793 231.505V225.732Z" fill="#D95639"/>
<path d="M333.526 211.217C333.526 211.217 333.196 208 328.247 204.041C323.299 200.083 320.165 197.856 320.165 197.856C320.165 197.856 318.68 205.443 323.299 209.402C327.917 213.443 334.103 216.907 334.103 216.907L333.526 211.217Z" fill="#D95639"/>
<path d="M341.361 234.804C341.361 234.804 340.701 231.67 335.341 228.206C330.062 224.742 326.681 222.845 326.681 222.845C326.681 222.845 326.021 230.516 331.052 233.979C336.083 237.526 342.516 240.33 342.516 240.33L341.361 234.804Z" fill="#D95639"/>
<path d="M339.959 260.536C339.959 260.536 339.959 257.32 335.505 252.866C331.051 248.413 328.165 245.856 328.165 245.856C328.165 245.856 325.938 253.196 330.062 257.65C334.185 262.103 339.959 266.309 339.959 266.309V260.536Z" fill="#D95639"/>
<path d="M339.958 266.804C339.958 266.804 339.463 263.67 343.339 258.557C347.133 253.526 349.607 250.557 349.607 250.557C349.607 250.557 352.906 257.485 349.36 262.516C345.896 267.546 340.783 272.495 340.783 272.495L339.958 266.804Z" fill="#D95639"/>
<path d="M344.412 285.361C344.412 285.361 344.412 282.144 339.958 277.691C335.505 273.237 332.618 270.681 332.618 270.681C332.618 270.681 330.391 278.021 334.515 282.474C338.639 286.928 344.412 291.134 344.412 291.134V285.361Z" fill="#D95639"/>
<path d="M341.443 302.268C341.443 302.268 342.268 299.134 339.051 293.691C335.835 288.248 333.69 285.031 333.69 285.031C333.69 285.031 329.649 291.546 332.536 296.99C335.422 302.351 339.958 307.876 339.958 307.876L341.443 302.268Z" fill="#D95639"/>
<path d="M332.865 204.949C333.113 208.33 333.525 211.876 334.102 214.846C335.834 224 340.288 229.856 342.102 238.186C343.834 246.433 338.803 257.072 340.123 267.712C341.443 278.351 345.649 284.206 344.412 291.299C343.257 298.392 337.071 317.526 337.071 317.526" stroke="white" stroke-miterlimit="10" stroke-linecap="round" stroke-linejoin="round"/>
<path d="M333.608 213.361L328.742 209.65" stroke="white" stroke-miterlimit="10" stroke-linecap="round" stroke-linejoin="round"/>
<path d="M333.361 209.072L335.423 205.443" stroke="white" stroke-miterlimit="10" stroke-linecap="round" stroke-linejoin="round"/>
<path d="M341.772 237.773C341.772 237.773 337.731 234.722 333.607 231.753" stroke="white" stroke-miterlimit="10" stroke-linecap="round" stroke-linejoin="round"/>
<path d="M339.793 231.505C339.793 231.505 343.174 224.907 346.968 220.536" stroke="white" stroke-miterlimit="10" stroke-linecap="round" stroke-linejoin="round"/>
<path d="M339.795 265.072C339.795 265.072 336.661 258.887 331.135 253.526" stroke="white" stroke-miterlimit="10" stroke-linecap="round" stroke-linejoin="round"/>
<path d="M340.535 269.526C340.535 269.526 342.515 264.742 344.906 261.196C347.298 257.732 347.628 257.237 347.628 257.237" stroke="white" stroke-miterlimit="10" stroke-linecap="round" stroke-linejoin="round"/>
<path d="M344.412 291.217C344.412 291.217 342.762 287.093 340.783 283.876C338.804 280.66 336.082 277.691 336.082 277.691" stroke="white" stroke-miterlimit="10" stroke-linecap="round" stroke-linejoin="round"/>
<path d="M339.958 307.794C339.958 307.794 340.453 304 338.721 300.701C336.989 297.402 335.092 293.196 334.35 291.464" stroke="white" stroke-miterlimit="10" stroke-linecap="round" stroke-linejoin="round"/>
<path d="M362.556 248.495C362.556 248.495 362.886 246.516 360.576 243.217C358.267 239.918 356.7 238.021 356.7 238.021C356.7 238.021 354.473 242.392 356.618 245.608C358.762 248.907 361.896 252.124 361.896 252.124L362.556 248.495Z" fill="#D95639"/>
<path d="M356.37 260.289C356.37 260.289 356.7 258.309 354.391 255.01C352.082 251.711 350.515 249.815 350.515 249.815C350.515 249.815 348.288 254.186 350.432 257.402C352.576 260.701 355.71 263.918 355.71 263.918L356.37 260.289Z" fill="#D95639"/>
<path d="M361.814 251.876C361.814 251.876 362.392 249.897 365.856 248C369.402 246.021 371.546 244.949 371.546 244.949C371.546 244.949 371.629 249.815 368.33 251.876C365.031 253.856 360.742 255.423 360.742 255.423L361.814 251.876Z" fill="#D95639"/>
<path d="M354.308 265.815C354.308 265.815 355.051 263.918 358.762 262.351C362.473 260.784 364.783 259.959 364.783 259.959C364.783 259.959 364.37 264.825 360.824 266.474C357.277 268.124 352.906 269.196 352.906 269.196L354.308 265.815Z" fill="#D95639"/>
<path d="M352.494 282.062C352.494 282.062 352.824 280.083 356.123 277.773C359.422 275.464 361.483 274.144 361.483 274.144C361.483 274.144 362.061 279.01 359.009 281.32C355.958 283.711 351.834 285.691 351.834 285.691L352.494 282.062Z" fill="#D95639"/>
<path d="M351.752 286.021C351.752 286.021 352.412 284.124 350.515 280.495C348.701 276.866 347.463 274.804 347.463 274.804C347.463 274.804 344.659 278.845 346.309 282.309C347.958 285.856 350.597 289.485 350.597 289.485L351.752 286.021Z" fill="#D95639"/>
<path d="M346.143 302.186C346.143 302.186 345.896 300.124 342.762 297.65C339.628 295.175 337.566 293.773 337.566 293.773C337.566 293.773 336.659 298.557 339.628 301.114C342.597 303.67 346.556 305.815 346.556 305.815L346.143 302.186Z" fill="#D95639"/>
<path d="M346.968 297.237C346.968 297.237 347.298 295.258 350.597 292.949C353.896 290.639 355.958 289.32 355.958 289.32C355.958 289.32 356.535 294.186 353.484 296.495C350.432 298.887 346.309 300.866 346.309 300.866L346.968 297.237Z" fill="#D95639"/>
<path d="M346.969 308.124C346.969 308.124 346.804 306.062 349.361 303.01C351.917 299.959 353.649 298.144 353.649 298.144C353.649 298.144 355.464 302.681 353.072 305.732C350.68 308.784 347.216 311.753 347.216 311.753L346.969 308.124Z" fill="#D95639"/>
<path d="M362.886 248C362.391 250.144 361.731 252.289 361.071 254.103C359.01 259.629 355.546 262.845 353.566 267.876C351.587 272.825 353.566 280.083 351.587 286.598C349.608 293.114 346.391 296.33 346.309 300.949C346.309 305.485 348.123 318.186 348.123 318.186" stroke="white" stroke-miterlimit="10" stroke-linecap="round" stroke-linejoin="round"/>
<path d="M361.566 253.196L364.948 251.382" stroke="white" stroke-miterlimit="10" stroke-linecap="round" stroke-linejoin="round"/>
<path d="M362.143 250.557L361.318 248.083" stroke="white" stroke-miterlimit="10" stroke-linecap="round" stroke-linejoin="round"/>
<path d="M353.73 267.629C353.73 267.629 356.617 266.144 359.504 264.742" stroke="white" stroke-miterlimit="10" stroke-linecap="round" stroke-linejoin="round"/>
<path d="M355.711 263.918C355.711 263.918 354.309 259.382 352.412 256.248" stroke="white" stroke-miterlimit="10" stroke-linecap="round" stroke-linejoin="round"/>
<path d="M352.082 284.949C352.082 284.949 354.721 281.402 358.762 278.681" stroke="white" stroke-miterlimit="10" stroke-linecap="round" stroke-linejoin="round"/>
<path d="M351.093 287.67C351.093 287.67 350.35 284.454 349.278 281.979C348.206 279.505 348.041 279.258 348.041 279.258" stroke="white" stroke-miterlimit="10" stroke-linecap="round" stroke-linejoin="round"/>
<path d="M346.474 304.33C346.474 304.33 344.165 301.526 342.763 300.536C341.361 299.464 340.371 298.474 340.371 298.474" stroke="white" stroke-miterlimit="10" stroke-linecap="round" stroke-linejoin="round"/>
<path d="M346.309 300.866C346.309 300.866 347.793 298.474 349.36 296.66C351.01 294.845 352.989 293.278 352.989 293.278" stroke="white" stroke-miterlimit="10" stroke-linecap="round" stroke-linejoin="round"/>
<path d="M347.299 311.753C347.299 311.753 347.381 309.278 348.866 307.464C350.268 305.567 351.917 303.175 352.577 302.186" stroke="white" stroke-miterlimit="10" stroke-linecap="round" stroke-linejoin="round"/>
<path d="M334.103 348.619H352.825C353.649 348.619 354.309 347.959 354.309 347.134L358.928 316.206H328L332.619 347.134C332.701 347.959 333.361 348.619 334.103 348.619Z" fill="#D95639" stroke="#787474" stroke-miterlimit="10" stroke-linecap="round" stroke-linejoin="round"/>
<path d="M50.7223 205.773C50.7223 205.773 50.7223 202.557 46.2687 198.103C41.8151 193.65 38.9285 191.093 38.9285 191.093C38.9285 191.093 36.7017 198.433 40.8254 202.887C44.9491 207.34 50.7223 211.547 50.7223 211.547V205.773Z" fill="#D95639"/>
<path d="M44.2067 225.732C44.2067 225.732 44.2067 222.516 39.7531 218.062C35.2994 213.608 32.4128 211.052 32.4128 211.052C32.4128 211.052 30.186 218.392 34.3098 222.845C38.4335 227.299 44.2067 231.505 44.2067 231.505V225.732Z" fill="#D95639"/>
<path d="M50.4738 211.217C50.4738 211.217 50.8037 208 55.7522 204.041C60.7006 200.083 63.8346 197.856 63.8346 197.856C63.8346 197.856 65.3192 205.443 60.7006 209.402C56.0821 213.443 49.8965 216.907 49.8965 216.907L50.4738 211.217Z" fill="#D95639"/>
<path d="M42.639 234.804C42.639 234.804 43.2988 231.67 48.6596 228.206C53.938 224.742 57.3194 222.845 57.3194 222.845C57.3194 222.845 57.9792 230.516 52.9483 233.979C47.9174 237.526 41.4844 240.33 41.4844 240.33L42.639 234.804Z" fill="#D95639"/>
<path d="M44.041 260.536C44.041 260.536 44.041 257.32 48.4946 252.866C52.9482 248.413 55.8348 245.856 55.8348 245.856C55.8348 245.856 58.0616 253.196 53.9379 257.65C49.8142 262.103 44.041 266.309 44.041 266.309V260.536Z" fill="#D95639"/>
<path d="M44.0411 266.804C44.0411 266.804 44.536 263.67 40.6597 258.557C36.8659 253.526 34.3917 250.557 34.3917 250.557C34.3917 250.557 31.0927 257.485 34.6391 262.516C38.103 267.546 43.2164 272.495 43.2164 272.495L44.0411 266.804Z" fill="#D95639"/>
<path d="M39.5879 285.361C39.5879 285.361 39.5879 282.144 44.0415 277.691C48.4951 273.237 51.3817 270.681 51.3817 270.681C51.3817 270.681 53.6085 278.021 49.4848 282.474C45.3611 287.01 39.5879 291.134 39.5879 291.134V285.361Z" fill="#D95639"/>
<path d="M42.5577 302.268C42.5577 302.268 41.7329 299.134 44.9494 293.691C48.1659 288.248 50.3102 285.031 50.3102 285.031C50.3102 285.031 54.3515 291.546 51.4649 296.99C48.5783 302.351 44.0422 307.876 44.0422 307.876L42.5577 302.268Z" fill="#D95639"/>
<path d="M51.1347 204.949C50.8873 208.33 50.4749 211.876 49.8976 214.846C48.1656 224 43.712 229.856 41.8976 238.186C40.1656 246.433 45.1966 257.072 43.877 267.712C42.5574 278.351 38.3512 284.206 39.5883 291.299C40.743 298.392 46.9285 317.526 46.9285 317.526" stroke="white" stroke-miterlimit="10" stroke-linecap="round" stroke-linejoin="round"/>
<path d="M50.3926 213.361L55.2586 209.65" stroke="white" stroke-miterlimit="10" stroke-linecap="round" stroke-linejoin="round"/>
<path d="M50.64 209.072L48.5781 205.443" stroke="white" stroke-miterlimit="10" stroke-linecap="round" stroke-linejoin="round"/>
<path d="M42.2266 237.773C42.2266 237.773 46.2678 234.722 50.3915 231.753" stroke="white" stroke-miterlimit="10" stroke-linecap="round" stroke-linejoin="round"/>
<path d="M44.2065 231.505C44.2065 231.505 40.8251 224.907 37.0312 220.536" stroke="white" stroke-miterlimit="10" stroke-linecap="round" stroke-linejoin="round"/>
<path d="M44.207 265.072C44.207 265.072 47.3411 258.887 52.8668 253.526" stroke="white" stroke-miterlimit="10" stroke-linecap="round" stroke-linejoin="round"/>
<path d="M43.4639 269.526C43.4639 269.526 41.4845 264.742 39.0927 261.196C36.701 257.732 36.3711 257.237 36.3711 257.237" stroke="white" stroke-miterlimit="10" stroke-linecap="round" stroke-linejoin="round"/>
<path d="M39.5879 291.217C39.5879 291.217 41.2374 287.093 43.2168 283.876C45.1961 280.66 47.9178 277.691 47.9178 277.691" stroke="white" stroke-miterlimit="10" stroke-linecap="round" stroke-linejoin="round"/>
<path d="M44.042 307.794C44.042 307.794 43.5472 304 45.2791 300.701C47.0111 297.402 48.908 293.196 49.6502 291.464" stroke="white" stroke-miterlimit="10" stroke-linecap="round" stroke-linejoin="round"/>
<path d="M21.4421 248.495C21.4421 248.495 21.1122 246.516 23.4215 243.217C25.7307 239.918 27.2977 238.021 27.2977 238.021C27.2977 238.021 29.5245 242.392 27.3802 245.608C25.2359 248.907 22.1019 252.124 22.1019 252.124L21.4421 248.495Z" fill="#D95639"/>
<path d="M27.6276 260.289C27.6276 260.289 27.2977 258.309 29.607 255.01C31.9163 251.711 33.4833 249.815 33.4833 249.815C33.4833 249.815 35.7101 254.186 33.5658 257.402C31.4214 260.701 28.2874 263.918 28.2874 263.918L27.6276 260.289Z" fill="#D95639"/>
<path d="M22.1853 251.876C22.1853 251.876 21.608 249.897 18.144 248C14.5976 246.021 12.4533 244.949 12.4533 244.949C12.4533 244.949 12.3708 249.815 15.6698 251.876C18.9688 253.856 23.2574 255.423 23.2574 255.423L22.1853 251.876Z" fill="#D95639"/>
<path d="M29.691 265.815C29.691 265.815 28.9488 263.918 25.2374 262.351C21.5261 260.784 19.2168 259.959 19.2168 259.959C19.2168 259.959 19.6292 264.825 23.1756 266.474C26.722 268.124 31.0931 269.196 31.0931 269.196L29.691 265.815Z" fill="#D95639"/>
<path d="M31.5039 282.062C31.5039 282.062 31.174 280.083 27.875 277.773C24.5761 275.464 22.5142 274.144 22.5142 274.144C22.5142 274.144 21.9369 279.01 24.9884 281.32C28.04 283.711 32.1637 285.691 32.1637 285.691L31.5039 282.062Z" fill="#D95639"/>
<path d="M32.2478 286.021C32.2478 286.021 31.588 284.124 33.4849 280.495C35.2993 276.866 36.5364 274.804 36.5364 274.804C36.5364 274.804 39.3406 278.845 37.6911 282.309C36.0416 285.856 33.4024 289.485 33.4024 289.485L32.2478 286.021Z" fill="#D95639"/>
<path d="M37.8557 302.186C37.8557 302.186 38.1032 300.124 41.2372 297.65C44.3712 295.175 46.433 293.773 46.433 293.773C46.433 293.773 47.3403 298.557 44.3712 301.114C41.4021 303.67 37.4434 305.815 37.4434 305.815L37.8557 302.186Z" fill="#D95639"/>
<path d="M37.0312 297.237C37.0312 297.237 36.7013 295.258 33.4024 292.949C30.1034 290.639 28.0416 289.32 28.0416 289.32C28.0416 289.32 27.4642 294.186 30.5158 296.495C33.5673 298.887 37.691 300.866 37.691 300.866L37.0312 297.237Z" fill="#D95639"/>
<path d="M37.031 308.124C37.031 308.124 37.1959 306.062 34.6392 303.01C32.0825 299.959 30.3506 298.144 30.3506 298.144C30.3506 298.144 28.5361 302.681 30.9279 305.732C33.3197 308.784 36.7836 311.753 36.7836 311.753L37.031 308.124Z" fill="#D95639"/>
<path d="M21.1133 248C21.6081 250.144 22.2679 252.289 22.9277 254.103C24.9896 259.629 28.4535 262.845 30.4329 267.876C32.4123 272.825 30.4329 280.083 32.4122 286.598C34.3916 293.114 37.6081 296.33 37.6906 300.949C37.6906 305.485 35.8762 318.186 35.8762 318.186" stroke="white" stroke-miterlimit="10" stroke-linecap="round" stroke-linejoin="round"/>
<path d="M22.4322 253.196L19.0508 251.382" stroke="white" stroke-miterlimit="10" stroke-linecap="round" stroke-linejoin="round"/>
<path d="M21.8555 250.557L22.6802 248.083" stroke="white" stroke-miterlimit="10" stroke-linecap="round" stroke-linejoin="round"/>
<path d="M30.2673 267.629C30.2673 267.629 27.3807 266.144 24.4941 264.742" stroke="white" stroke-miterlimit="10" stroke-linecap="round" stroke-linejoin="round"/>
<path d="M28.2891 263.918C28.2891 263.918 29.6911 259.382 31.588 256.248" stroke="white" stroke-miterlimit="10" stroke-linecap="round" stroke-linejoin="round"/>
<path d="M31.9167 284.949C31.9167 284.949 29.2776 281.402 25.2363 278.681" stroke="white" stroke-miterlimit="10" stroke-linecap="round" stroke-linejoin="round"/>
<path d="M32.9062 287.67C32.9062 287.67 33.6485 284.454 34.7207 281.979C35.7928 279.505 35.9578 279.258 35.9578 279.258" stroke="white" stroke-miterlimit="10" stroke-linecap="round" stroke-linejoin="round"/>
<path d="M37.5254 304.33C37.5254 304.33 39.8347 301.526 41.2367 300.536C42.6388 299.464 43.6285 298.474 43.6285 298.474" stroke="white" stroke-miterlimit="10" stroke-linecap="round" stroke-linejoin="round"/>
<path d="M37.6902 300.866C37.6902 300.866 36.2056 298.474 34.6386 296.66C32.9891 294.845 31.0098 293.278 31.0098 293.278" stroke="white" stroke-miterlimit="10" stroke-linecap="round" stroke-linejoin="round"/>
<path d="M36.7002 311.753C36.7002 311.753 36.6178 309.278 35.1332 307.464C33.7312 305.567 32.0817 303.175 31.4219 302.186" stroke="white" stroke-miterlimit="10" stroke-linecap="round" stroke-linejoin="round"/>
<path d="M49.897 348.619H31.1754C30.3506 348.619 29.6908 347.959 29.6908 347.134L25.0723 316.206H56.0001L51.3815 347.134C51.2991 347.959 50.6393 348.619 49.897 348.619Z" fill="#D95639" stroke="#787474" stroke-miterlimit="10" stroke-linecap="round" stroke-linejoin="round"/>
<path d="M304 348.619H390.598" stroke="#454545" stroke-miterlimit="10" stroke-linecap="round" stroke-linejoin="round"/>
<path d="M3.79297 348.619H294.927" stroke="#454545" stroke-miterlimit="10" stroke-linecap="round" stroke-linejoin="round"/>
</g>
<defs>
<clipPath id="clip0_4013_5814">
<rect width="391.258" height="352" fill="white"/>
</clipPath>
</defs>
</svg>
