<svg width="377" height="352" viewBox="0 0 377 352" fill="none" xmlns="http://www.w3.org/2000/svg">
<g clip-path="url(#clip0_4015_6903)">
<path d="M349.996 68.8121C348.712 66.6467 347.269 64.4812 345.905 62.3158C326.818 34.2457 295.058 15.0777 264.101 6.33588C250.547 2.48626 236.672 0.561445 222.798 4.16711e-05C131.85 -3.20798 98.4066 71.7795 69.1334 91.1078C39.78 110.516 -5.13225 143.559 0.481788 212.932C4.73241 265.704 34.8076 316.15 89.5845 339.088C95.5996 341.654 101.935 343.82 108.592 345.664C120.943 349.033 134.336 351.198 148.773 351.84C190.236 353.684 223.84 343.659 256.803 318.556C264.422 312.702 272.041 306.125 281.986 305.404C289.204 304.842 296.021 307.489 288.482 314.466C279.58 322.647 289.845 338.767 312.382 327.619C349.996 308.932 365.474 268.511 372.692 227.529C381.675 177.003 377.344 114.366 349.996 68.8121Z" fill="#411A11"/>
<g opacity="0.5">
<path d="M83.328 8.02014H12.9922V109.233H83.328V8.02014Z" stroke="white" stroke-miterlimit="10" stroke-linecap="round" stroke-linejoin="round"/>
<path d="M59.9892 41.7043H36.3301V75.7094H59.9892V41.7043Z" stroke="white" stroke-miterlimit="10" stroke-linecap="round" stroke-linejoin="round"/>
</g>
<g opacity="0.5">
<path d="M325.776 14.6768H283.43V62.3961H325.776V14.6768Z" stroke="white" stroke-miterlimit="10" stroke-linecap="round" stroke-linejoin="round"/>
<path d="M311.66 30.4763H297.465V46.5164H311.66V30.4763Z" stroke="white" stroke-miterlimit="10" stroke-linecap="round" stroke-linejoin="round"/>
</g>
<g opacity="0.5">
<path d="M23.9805 285.193H267.229V127.359H343.82V337.805" stroke="white" stroke-miterlimit="10" stroke-linecap="round" stroke-linejoin="round"/>
<path d="M339.649 130.567H271.238V179.489H339.649V130.567Z" stroke="white" stroke-miterlimit="10" stroke-linecap="round" stroke-linejoin="round"/>
<path d="M339.649 183.659H271.238V232.581H339.649V183.659Z" stroke="white" stroke-miterlimit="10" stroke-linecap="round" stroke-linejoin="round"/>
<path d="M339.649 236.832H271.238V285.754H339.649V236.832Z" stroke="white" stroke-miterlimit="10" stroke-linecap="round" stroke-linejoin="round"/>
<path d="M315.029 134.978H303.721V179.409H315.029V134.978Z" stroke="white" stroke-miterlimit="10" stroke-linecap="round" stroke-linejoin="round"/>
<path d="M315.029 241.484H303.721V285.915H315.029V241.484Z" stroke="white" stroke-miterlimit="10" stroke-linecap="round" stroke-linejoin="round"/>
<path d="M326.175 241.484H314.867V285.915H326.175V241.484Z" stroke="white" stroke-miterlimit="10" stroke-linecap="round" stroke-linejoin="round"/>
<path d="M337.404 241.484H326.096V285.915H337.404V241.484Z" stroke="white" stroke-miterlimit="10" stroke-linecap="round" stroke-linejoin="round"/>
<path d="M303.322 136.104L292.326 133.139L280.715 176.192L291.71 179.157L303.322 136.104Z" stroke="white" stroke-miterlimit="10" stroke-linecap="round" stroke-linejoin="round"/>
<path d="M283.299 285.367L294.295 282.402L282.683 239.349L271.688 242.314L283.299 285.367Z" stroke="white" stroke-miterlimit="10" stroke-linecap="round" stroke-linejoin="round"/>
<path d="M326.818 134.978H315.51V179.409H326.818V134.978Z" stroke="white" stroke-miterlimit="10" stroke-linecap="round" stroke-linejoin="round"/>
<path d="M338.607 134.978H327.299V179.409H338.607V134.978Z" stroke="white" stroke-miterlimit="10" stroke-linecap="round" stroke-linejoin="round"/>
<path d="M338.366 225.684C338.366 229.454 335.238 232.581 331.469 232.581H285.113C284.472 232.581 283.91 232.02 283.91 231.378C283.91 230.737 284.472 230.175 285.113 230.175H331.469C333.955 230.175 335.96 228.17 335.96 225.684C335.96 223.198 333.955 221.193 331.469 221.193H285.113C284.472 221.193 283.91 220.632 283.91 219.99C283.91 219.348 284.472 218.787 285.113 218.787H331.469C335.319 218.787 338.366 221.835 338.366 225.684Z" stroke="white" stroke-miterlimit="10" stroke-linecap="round" stroke-linejoin="round"/>
<path d="M318.717 223.519V227.689C318.717 228.652 318.316 229.454 317.755 230.095H286.396C286.958 229.454 287.359 228.652 287.359 227.689V223.519C287.359 222.637 287.038 221.754 286.477 221.193H317.835C318.396 221.835 318.717 222.637 318.717 223.519Z" stroke="white" stroke-miterlimit="10" stroke-linecap="round" stroke-linejoin="round"/>
<path d="M335.959 225.684C335.959 228.17 333.954 230.175 331.468 230.175H317.754C318.315 229.534 318.716 228.732 318.716 227.769V223.599C318.716 222.717 318.395 221.835 317.834 221.273H331.468C333.954 221.193 335.959 223.198 335.959 225.684Z" stroke="white" stroke-miterlimit="10" stroke-linecap="round" stroke-linejoin="round"/>
<path d="M317.514 218.947C317.514 218.947 316.472 219.188 316.632 220.07C316.712 220.952 317.915 221.193 317.915 221.193" stroke="white" stroke-miterlimit="10" stroke-linecap="round" stroke-linejoin="round"/>
<path d="M317.434 230.095C317.434 230.095 316.471 230.336 316.552 231.298C316.632 232.261 317.755 232.501 317.755 232.501" stroke="white" stroke-miterlimit="10" stroke-linecap="round" stroke-linejoin="round"/>
<path d="M338.366 211.81C338.366 215.579 335.238 218.707 331.469 218.707H285.113C284.472 218.707 283.91 218.145 283.91 217.504C283.91 216.862 284.472 216.301 285.113 216.301H331.469C333.955 216.301 335.96 214.296 335.96 211.81C335.96 209.323 333.955 207.318 331.469 207.318H285.113C284.472 207.318 283.91 206.757 283.91 206.115C283.91 205.474 284.472 204.912 285.113 204.912H331.469C335.319 204.993 338.366 208.04 338.366 211.81Z" stroke="white" stroke-miterlimit="10" stroke-linecap="round" stroke-linejoin="round"/>
<path d="M318.717 209.724V213.895C318.717 214.857 318.316 215.659 317.755 216.301H286.396C286.958 215.659 287.359 214.777 287.359 213.895V209.724C287.359 208.842 287.038 207.96 286.477 207.399H317.835C318.396 207.96 318.717 208.842 318.717 209.724Z" stroke="white" stroke-miterlimit="10" stroke-linecap="round" stroke-linejoin="round"/>
<path d="M335.959 211.81C335.959 214.296 333.954 216.301 331.468 216.301H317.754C318.315 215.659 318.716 214.777 318.716 213.895V209.724C318.716 208.842 318.395 207.96 317.834 207.399H331.468C333.954 207.399 335.959 209.404 335.959 211.81Z" stroke="white" stroke-miterlimit="10" stroke-linecap="round" stroke-linejoin="round"/>
<path d="M317.514 205.073C317.514 205.073 316.472 205.313 316.632 206.196C316.712 207.078 317.915 207.318 317.915 207.318" stroke="white" stroke-miterlimit="10" stroke-linecap="round" stroke-linejoin="round"/>
<path d="M317.434 216.301C317.434 216.301 316.471 216.541 316.552 217.504C316.632 218.466 317.755 218.707 317.755 218.707" stroke="white" stroke-miterlimit="10" stroke-linecap="round" stroke-linejoin="round"/>
<path d="M298.587 105.303H277.574L279.74 127.358H296.502L298.587 105.303Z" stroke="white" stroke-miterlimit="10" stroke-linecap="round" stroke-linejoin="round"/>
<path d="M280.942 105.143H297.303L300.912 99.2883L295.94 103.459L300.19 91.4286L294.817 96.8823L296.661 89.0226L293.534 94.1555L294.095 85.3334L290.245 97.8447L288.962 82.6066L287.117 92.3109L285.273 75.7896L284.23 90.4662L281.423 80.2006L284.23 102.176L277.092 86.6166L280.701 102.176L274.125 96.7219L280.942 105.143Z" stroke="white" stroke-miterlimit="10" stroke-linecap="round" stroke-linejoin="round"/>
<path d="M339.41 293.374H271.721V330.266H339.41V293.374Z" stroke="white" stroke-miterlimit="10" stroke-linecap="round" stroke-linejoin="round"/>
<path d="M266.747 293.374H120.461V330.266H266.747V293.374Z" stroke="white" stroke-miterlimit="10" stroke-linecap="round" stroke-linejoin="round"/>
<path d="M115.409 293.374H27.5898V330.266H115.409V293.374Z" stroke="white" stroke-miterlimit="10" stroke-linecap="round" stroke-linejoin="round"/>
<path d="M311.099 310.536H300.271V313.424H311.099V310.536Z" stroke="white" stroke-miterlimit="10" stroke-linecap="round" stroke-linejoin="round"/>
</g>
<g opacity="0.5">
<path d="M242.285 164.251H33.4434V276.291H242.285V164.251Z" stroke="white" stroke-miterlimit="10" stroke-linecap="round" stroke-linejoin="round"/>
<path d="M238.516 167.379H37.2129V273.163H238.516V167.379Z" stroke="white" stroke-miterlimit="10" stroke-linecap="round" stroke-linejoin="round"/>
<path d="M39.9406 276.371L37.9355 285.113H41.8654L44.5922 276.371H39.9406Z" stroke="white" stroke-miterlimit="10" stroke-linecap="round" stroke-linejoin="round"/>
<path d="M236.671 276.371L238.756 285.113H234.827L232.02 276.371H236.671Z" stroke="white" stroke-miterlimit="10" stroke-linecap="round" stroke-linejoin="round"/>
</g>
<path d="M278.537 280.702L262.016 285.674L270.998 310.857L287.519 305.885C289.444 305.243 288.963 298.987 286.477 292.09C283.991 285.113 280.382 279.98 278.537 280.702Z" fill="#D95639" stroke="#263238" stroke-miterlimit="10" stroke-linecap="round" stroke-linejoin="round"/>
<path d="M269.876 297.063C272.362 304.04 272.843 310.216 270.918 310.857C268.993 311.499 265.465 306.446 262.978 299.469C260.492 292.491 260.011 286.316 261.936 285.674C263.861 285.033 267.389 290.085 269.876 297.063Z" fill="#263238" stroke="#263238" stroke-miterlimit="10" stroke-linecap="round" stroke-linejoin="round"/>
<path d="M211.169 209.003L213.816 223.759C213.816 223.759 223.199 237.795 228.092 249.183C232.984 260.571 245.896 275.248 248.382 277.253C250.868 279.258 258.006 283.509 259.771 286.396C261.535 289.283 265.385 298.426 265.385 298.426L247.099 305.564C247.099 305.564 243.57 301.795 241.726 296.421C239.961 291.048 238.838 286.797 238.838 286.797C238.838 286.797 221.194 273.644 215.42 269.394C209.645 265.143 207.801 262.897 207.801 262.897C207.801 262.897 201.305 232.822 200.182 225.203C199.139 217.664 206.036 209.885 211.169 209.003Z" fill="white" stroke="#263238" stroke-miterlimit="10" stroke-linecap="round" stroke-linejoin="round"/>
<path d="M264.503 293.855C264.503 293.855 268.352 302.436 268.032 303.559C267.711 304.682 264.824 305.484 263.46 305.163C262.177 304.842 260.092 295.94 260.092 295.459C260.172 295.058 262.738 292.411 264.503 293.855Z" fill="white" stroke="#263238" stroke-miterlimit="10" stroke-linecap="round" stroke-linejoin="round"/>
<path d="M259.21 295.86C259.21 295.86 263.059 304.441 262.739 305.564C262.418 306.687 259.531 307.489 258.167 307.168C256.884 306.847 254.799 297.945 254.799 297.464C254.799 296.982 257.365 294.416 259.21 295.86Z" fill="white" stroke="#263238" stroke-miterlimit="10" stroke-linecap="round" stroke-linejoin="round"/>
<path d="M254.157 297.704C254.157 297.704 257.685 305.564 257.445 306.606C257.124 307.649 254.477 308.371 253.274 308.05C252.071 307.729 250.146 299.629 250.146 299.148C250.146 298.747 252.552 296.421 254.157 297.704Z" fill="white" stroke="#263238" stroke-miterlimit="10" stroke-linecap="round" stroke-linejoin="round"/>
<path d="M249.906 299.469C249.906 299.469 253.114 306.606 252.873 307.489C252.633 308.451 250.227 309.093 249.104 308.852C248.061 308.611 246.297 301.233 246.297 300.832C246.297 300.431 248.462 298.266 249.906 299.469Z" fill="white" stroke="#263238" stroke-miterlimit="10" stroke-linecap="round" stroke-linejoin="round"/>
<path d="M248.303 281.424C248.303 281.424 250.067 280.622 252.553 280.782C254.959 280.942 261.776 282.867 262.739 284.15C263.701 285.434 266.107 294.336 265.145 294.977C264.182 295.619 254.157 299.388 252.634 299.87C251.19 300.351 250.869 297.464 251.671 296.18C252.473 294.897 254.558 293.774 254.558 293.774C254.558 293.774 250.308 293.454 248.704 290.887" fill="white"/>
<path d="M248.303 281.424C248.303 281.424 250.067 280.622 252.553 280.782C254.959 280.942 261.776 282.867 262.739 284.15C263.701 285.434 266.107 294.336 265.145 294.977C264.182 295.619 254.157 299.388 252.634 299.87C251.19 300.351 250.869 297.464 251.671 296.18C252.473 294.897 254.558 293.774 254.558 293.774C254.558 293.774 250.308 293.454 248.704 290.887" stroke="#263238" stroke-miterlimit="10" stroke-linecap="round" stroke-linejoin="round"/>
<path d="M261.295 291.449C258.568 290.967 254.639 293.694 254.639 293.694C254.639 293.694 257.045 289.283 258.889 288.642" stroke="#263238" stroke-miterlimit="10" stroke-linecap="round" stroke-linejoin="round"/>
<path d="M239.721 291.689L223.199 296.662L232.182 321.845L248.703 316.872C250.628 316.231 250.147 309.975 247.66 303.078C245.094 296.1 241.565 290.967 239.721 291.689Z" fill="#D95639" stroke="#263238" stroke-miterlimit="10" stroke-linecap="round" stroke-linejoin="round"/>
<path d="M231.059 308.05C233.545 315.028 234.027 321.203 232.102 321.845C230.177 322.486 226.648 317.434 224.162 310.456C221.676 303.479 221.195 297.303 223.119 296.662C225.044 296.02 228.573 301.073 231.059 308.05Z" fill="#263238" stroke="#263238" stroke-miterlimit="10" stroke-linecap="round" stroke-linejoin="round"/>
<path d="M233.544 343.258L218.065 298.185C218.065 298.185 216.301 283.028 215.419 271.88C214.536 260.732 208.521 248.221 208.521 248.221C208.521 248.221 198.256 258.005 178.606 261.855C158.957 265.624 133.774 253.193 128.642 250.226C123.509 247.338 123.509 247.338 123.509 247.338C123.509 247.338 104.982 278.135 105.223 301.955C105.464 325.855 112.361 343.419 112.361 343.419" fill="#263238"/>
<path d="M233.544 343.258L218.065 298.185C218.065 298.185 216.301 283.028 215.419 271.88C214.536 260.732 208.521 248.221 208.521 248.221C208.521 248.221 198.256 258.005 178.606 261.855C158.957 265.624 133.774 253.193 128.642 250.226C123.509 247.338 123.509 247.338 123.509 247.338C123.509 247.338 104.982 278.135 105.223 301.955C105.464 325.855 112.361 343.419 112.361 343.419" stroke="#263238" stroke-miterlimit="10" stroke-linecap="round" stroke-linejoin="round"/>
<path d="M172.992 318.236L177.002 343.499" stroke="black" stroke-miterlimit="10" stroke-linecap="round" stroke-linejoin="round"/>
<path d="M175.238 329.383L189.113 316.952" stroke="black" stroke-miterlimit="10" stroke-linecap="round" stroke-linejoin="round"/>
<path d="M205.393 226.647C205.393 226.647 209.804 237.955 209.804 243.97C209.804 249.985 207.158 254.476 198.175 259.77C189.273 265.143 170.987 267.389 155.107 264.902C139.308 262.416 124.31 252.391 123.428 247.258C122.546 242.125 129.764 228.411 129.764 228.411C129.764 228.411 180.21 232.582 205.393 226.647Z" fill="white" stroke="#263238" stroke-miterlimit="10" stroke-linecap="round" stroke-linejoin="round"/>
<path d="M186.468 131.77C186.468 131.77 200.102 130.968 206.438 143.158C212.774 155.348 210.528 188.391 210.528 188.391C210.528 188.391 189.115 148.932 187.671 142.757C186.228 136.662 186.468 131.77 186.468 131.77Z" fill="white" stroke="#263238" stroke-miterlimit="10" stroke-linecap="round" stroke-linejoin="round"/>
<path d="M152.302 99.0477C152.302 99.0477 150.057 123.509 147.651 127.76C145.244 132.01 125.275 138.587 113.645 149.574C102.016 160.562 110.357 191.278 113.405 202.105C116.452 212.932 129.926 228.572 129.926 228.572C129.926 228.572 140.112 234.506 167.38 233.624C194.648 232.822 205.234 228.09 205.475 226.727C205.716 225.283 205.234 221.835 205.234 221.835C205.234 221.835 212.934 214.697 214.778 204.912C216.623 195.128 212.051 180.772 205.635 172.11C201.305 166.336 193.445 148.932 190.558 143.399C187.671 137.865 186.468 131.77 186.468 131.77C186.468 131.77 179.731 131.128 178.768 128.722C177.726 126.316 179.169 119.579 179.169 119.579C179.169 119.579 173.635 121.985 152.302 99.0477Z" fill="white" stroke="#263238" stroke-miterlimit="10" stroke-linecap="round" stroke-linejoin="round"/>
<path d="M162.246 115.81C162.246 115.81 163.609 120.221 168.341 124.391C172.993 128.561 178.767 128.642 178.767 128.642L179.168 119.499L162.246 115.81Z" fill="#263238" stroke="#263238" stroke-miterlimit="10" stroke-linecap="round" stroke-linejoin="round"/>
<path d="M190.558 143.399C187.671 137.865 186.468 131.77 186.468 131.77C186.468 131.77 183.902 131.529 181.736 130.807C182.137 133.213 183.741 139.87 188.874 151.98C195.611 167.619 198.739 170.025 199.22 176.842C200.022 188.952 189.355 194.567 174.679 191.278C160.002 187.99 154.308 176.361 151.821 169.063C149.415 161.765 147.33 157.273 143.882 148.291C141.796 142.837 139.07 137.384 137.947 134.015C135.38 135.379 132.493 136.822 129.526 138.506C131.771 141.073 138.749 150.135 144.283 167.218C151.019 187.749 132.092 212.852 124.714 216.301C123.591 216.862 122.548 217.343 121.666 217.905C125.756 223.92 129.766 228.572 129.766 228.572C129.766 228.572 139.952 234.506 167.22 233.624C194.488 232.822 205.075 228.09 205.315 226.727C205.556 225.283 205.075 221.835 205.075 221.835C205.075 221.835 212.774 214.697 214.618 204.912C216.463 195.128 211.571 179.489 205.476 172.11C200.984 166.577 193.365 148.932 190.558 143.399Z" fill="#D95639" stroke="#263238" stroke-miterlimit="10" stroke-linecap="round" stroke-linejoin="round"/>
<path d="M178.367 132.01L179.089 137.544C179.089 137.544 183.099 138.025 187.35 136.02" stroke="#263238" stroke-miterlimit="10" stroke-linecap="round" stroke-linejoin="round"/>
<path d="M146.367 144.361C146.367 144.361 159.921 141.313 161.926 141.073C163.931 140.832 166.738 141.313 166.738 141.313" stroke="#263238" stroke-miterlimit="10" stroke-linecap="round" stroke-linejoin="round"/>
<path d="M163.211 225.043C169.787 225.364 184.945 225.444 200.584 220.471" stroke="#263238" stroke-miterlimit="10" stroke-linecap="round" stroke-linejoin="round"/>
<path d="M159.762 224.802C159.762 224.802 160.403 224.882 161.687 224.963" stroke="#263238" stroke-miterlimit="10" stroke-linecap="round" stroke-linejoin="round"/>
<path d="M187.19 226.486C184.945 226.807 182.619 227.048 180.133 227.208" stroke="#263238" stroke-miterlimit="10" stroke-linecap="round" stroke-linejoin="round"/>
<path d="M205.235 221.755C205.235 221.755 198.819 224.401 189.756 226.085" stroke="#263238" stroke-miterlimit="10" stroke-linecap="round" stroke-linejoin="round"/>
<path d="M182.216 40.4211C182.216 40.4211 180.692 32.4813 172.271 26.3861C163.85 20.2908 148.452 23.2582 145.805 25.0226C143.158 26.7069 141.474 29.1931 141.474 29.1931L150.376 29.9951C150.376 29.9951 137.785 32.8021 134.336 38.8973C130.888 44.9926 131.85 48.8422 131.85 48.8422L136.02 46.356C136.02 46.356 130.406 53.8146 132.411 62.5565C134.416 71.2983 149.173 80.6016 157.274 77.153C165.374 73.7043 168.662 53.8146 172.191 50.6868C175.8 47.559 181.334 47.2382 181.975 45.8748C182.697 44.5114 182.216 40.4211 182.216 40.4211Z" fill="#263238" stroke="#263238" stroke-miterlimit="10" stroke-linecap="round" stroke-linejoin="round"/>
<path d="M198.417 78.2758C198.417 78.2758 194.728 89.3434 197.615 102.657C200.502 115.97 195.129 121.424 192.402 122.787C189.675 124.07 188.873 123.348 188.873 123.348C188.873 123.348 194.006 121.504 195.289 116.932C196.572 112.361 196.091 105.384 196.091 105.384C196.091 105.384 192.723 115.248 190.798 119.258C188.873 123.348 186.307 123.108 186.307 123.108C186.307 123.108 196.572 111.078 194.086 99.4487C191.6 87.8196 198.417 78.2758 198.417 78.2758Z" fill="#263238" stroke="#263238" stroke-miterlimit="10" stroke-linecap="round" stroke-linejoin="round"/>
<path d="M149.573 71.3785C149.573 71.3785 152.139 48.3609 168.099 42.4261C183.658 36.6517 199.538 42.1053 205.874 53.4938C212.29 64.8822 207.718 77.7945 206.034 83.8096C204.35 89.9048 200.741 93.594 200.741 95.9198C200.741 98.2457 200.581 103.378 198.576 106.667C196.571 109.955 185.022 119.419 181.653 121.263C178.205 123.108 173.072 124.551 168.581 121.584C164.089 118.617 151.498 107.469 150.375 100.09C149.252 92.792 149.092 82.5264 149.092 82.5264L149.573 71.3785Z" fill="white" stroke="#263238" stroke-miterlimit="10" stroke-linecap="round" stroke-linejoin="round"/>
<path d="M205.875 53.4938C199.459 42.1053 183.66 36.7319 168.101 42.4261C152.061 48.361 149.574 71.3785 149.574 71.3785L149.414 75.1479L151.74 75.7093C151.74 75.7093 155.91 74.3459 156.873 71.6993C157.835 69.0527 160.161 66.2457 162.968 64.7219C166.818 62.5565 168.983 59.7494 169.625 55.7394C170.747 49.0828 178.046 47.6392 186.547 51.2482C195.128 54.8572 195.128 55.4186 201.625 55.4186C205.394 55.4186 208.442 60.1504 209.083 67.6893C209.244 63.0377 208.442 58.1454 205.875 53.4938Z" fill="#263238" stroke="#263238" stroke-miterlimit="10" stroke-linecap="round" stroke-linejoin="round"/>
<path d="M182.857 79.9599C182.857 79.9599 179.087 74.6667 170.426 75.7895" stroke="#263238" stroke-width="2" stroke-miterlimit="10" stroke-linecap="round" stroke-linejoin="round"/>
<path d="M170.346 83.6492C170.346 83.6492 172.511 87.4186 179.088 86.777" stroke="#263238" stroke-miterlimit="10" stroke-linecap="round" stroke-linejoin="round"/>
<path d="M190.877 83.8096C190.877 83.8096 197.133 82.2858 199.859 87.98" stroke="#263238" stroke-width="2" stroke-miterlimit="10" stroke-linecap="round" stroke-linejoin="round"/>
<path d="M189.514 90.0652C189.514 90.0652 191.037 93.6742 197.614 93.6742" stroke="#263238" stroke-miterlimit="10" stroke-linecap="round" stroke-linejoin="round"/>
<path d="M189.675 83.4888C189.675 83.4888 185.905 85.173 185.825 86.9374C185.665 88.6216 186.146 97.2031 185.665 98.4863C185.183 99.7695 181.334 100.812 178.848 97.3635" stroke="#263238" stroke-miterlimit="10" stroke-linecap="round" stroke-linejoin="round"/>
<path d="M170.346 98.3258C170.346 98.3258 173.634 105.143 181.895 105.784" stroke="#263238" stroke-miterlimit="10" stroke-linecap="round" stroke-linejoin="round"/>
<path d="M170.506 85.574C170.506 85.574 173.634 87.2582 176.922 87.579" stroke="#263238" stroke-miterlimit="10" stroke-linecap="round" stroke-linejoin="round"/>
<path d="M189.834 91.589C189.834 91.589 192.32 94.0752 195.608 94.0752" stroke="#263238" stroke-miterlimit="10" stroke-linecap="round" stroke-linejoin="round"/>
<path d="M153.503 78.1956C153.503 78.1956 151.258 66.6467 146.927 69.1329C142.596 71.6191 143.639 81.4838 145.884 85.2532C148.13 88.9424 151.258 87.4988 151.258 87.4988" fill="white"/>
<path d="M153.503 78.1956C153.503 78.1956 151.258 66.6467 146.927 69.1329C142.596 71.6191 143.639 81.4838 145.884 85.2532C148.13 88.9424 151.258 87.4988 151.258 87.4988" stroke="#263238" stroke-miterlimit="10" stroke-linecap="round" stroke-linejoin="round"/>
<path d="M154.467 73.3835C154.467 73.3835 153.665 85.0126 145.885 96.1605C138.186 107.389 140.993 114.446 142.998 116.692C145.003 118.937 146.046 118.536 146.046 118.536C146.046 118.536 141.956 114.847 142.597 110.196C143.239 105.544 146.287 99.2081 146.287 99.2081C146.287 99.2081 145.645 109.554 145.885 114.045C146.126 118.536 148.532 119.338 148.532 119.338C148.532 119.338 143.64 104.261 150.377 94.4763C157.114 84.772 154.467 73.3835 154.467 73.3835Z" fill="#263238" stroke="#263238" stroke-miterlimit="10" stroke-linecap="round" stroke-linejoin="round"/>
<path d="M186.868 170.667L169.785 168.341L167.379 194.968L184.462 197.293C186.467 197.454 188.632 191.679 189.274 184.301C189.995 176.922 188.873 170.827 186.868 170.667Z" fill="#D95639" stroke="#263238" stroke-miterlimit="10" stroke-linecap="round" stroke-linejoin="round"/>
<path d="M172.236 181.95C172.892 174.582 171.814 168.465 169.828 168.289C167.843 168.112 165.702 173.942 165.046 181.31C164.391 188.678 165.469 194.795 167.454 194.971C169.44 195.148 171.581 189.318 172.236 181.95Z" fill="#263238" stroke="#263238" stroke-miterlimit="10" stroke-linecap="round" stroke-linejoin="round"/>
<path d="M121.986 144.04C121.986 144.04 106.587 149.895 101.053 163.609C95.4392 177.323 97.5244 198.095 104.742 217.183C111.96 236.271 120.622 254.957 127.84 256.802C135.058 258.647 143.239 236.511 146.928 229.293C150.617 222.075 160.241 203.228 160.642 200.902C161.123 198.576 167.86 191.118 170.186 188.792C172.512 186.466 172.031 182.296 171.79 180.852C171.549 179.489 168.983 169.704 168.261 168.742C167.539 167.779 166.417 168.261 165.454 167.78C164.492 167.298 155.91 164.972 155.91 164.972C155.91 164.972 151.981 162.887 150.056 163.769C148.211 164.732 147.73 166.095 147.73 166.095C147.73 166.095 148.211 172.191 146.527 176.602C144.923 181.013 141.153 186.386 141.875 187.348C142.597 188.311 147.008 194.566 147.008 194.566C147.008 194.566 142.597 203.389 136.983 210.206L133.053 195.048" fill="white"/>
<path d="M121.986 144.04C121.986 144.04 106.587 149.895 101.053 163.609C95.4392 177.323 97.5244 198.095 104.742 217.183C111.96 236.271 120.622 254.957 127.84 256.802C135.058 258.647 143.239 236.511 146.928 229.293C150.617 222.075 160.241 203.228 160.642 200.902C161.123 198.576 167.86 191.118 170.186 188.792C172.512 186.466 172.031 182.296 171.79 180.852C171.549 179.489 168.983 169.704 168.261 168.742C167.539 167.779 166.417 168.261 165.454 167.78C164.492 167.298 155.91 164.972 155.91 164.972C155.91 164.972 151.981 162.887 150.056 163.769C148.211 164.732 147.73 166.095 147.73 166.095C147.73 166.095 148.211 172.191 146.527 176.602C144.923 181.013 141.153 186.386 141.875 187.348C142.597 188.311 147.008 194.566 147.008 194.566C147.008 194.566 142.597 203.389 136.983 210.206L133.053 195.048" stroke="#263238" stroke-miterlimit="10" stroke-linecap="round" stroke-linejoin="round"/>
<path d="M160.642 200.902C160.722 200.582 160.883 200.1 161.204 199.619L161.123 199.218C152.702 199.058 147.169 194.647 147.169 194.647C147.169 194.647 142.757 203.469 137.143 210.286L134.016 215.178C139.229 222.556 145.805 224.481 149.254 224.882C153.585 216.221 160.241 202.827 160.642 200.902Z" fill="#A1A1A1" stroke="#263238" stroke-miterlimit="10" stroke-linecap="round" stroke-linejoin="round"/>
<path d="M133.935 215.098C133.935 215.098 116.853 227.449 116.051 234.586" stroke="#263238" stroke-miterlimit="10" stroke-linecap="round" stroke-linejoin="round"/>
<path d="M165.535 167.78C165.535 167.78 167.861 176.842 167.861 181.093" stroke="#263238" stroke-miterlimit="10" stroke-linecap="round" stroke-linejoin="round"/>
<path d="M161.365 167.138C161.365 167.138 162.568 175.318 162.969 179.008" stroke="#263238" stroke-miterlimit="10" stroke-linecap="round" stroke-linejoin="round"/>
<path d="M155.99 164.973C155.99 164.973 157.354 174.998 157.354 177.564" stroke="#263238" stroke-miterlimit="10" stroke-linecap="round" stroke-linejoin="round"/>
<path d="M157.034 180.451C157.034 180.451 156.151 181.173 155.51 181.975" stroke="#263238" stroke-miterlimit="10" stroke-linecap="round" stroke-linejoin="round"/>
<path d="M162.327 181.734C162.327 181.734 161.444 182.456 160.803 183.258" stroke="#263238" stroke-miterlimit="10" stroke-linecap="round" stroke-linejoin="round"/>
<path d="M167.539 183.018C167.539 183.018 166.657 183.74 166.016 184.542" stroke="#263238" stroke-miterlimit="10" stroke-linecap="round" stroke-linejoin="round"/>
<path d="M146.206 164.09L129.123 161.765L126.717 188.391L143.8 190.717C145.805 190.877 147.97 185.103 148.612 177.724C149.333 170.346 148.211 164.251 146.206 164.09Z" fill="#D95639" stroke="#263238" stroke-miterlimit="10" stroke-linecap="round" stroke-linejoin="round"/>
<path d="M131.529 175.318C130.888 182.697 128.722 188.471 126.717 188.311C124.712 188.15 123.59 182.055 124.311 174.677C124.953 167.298 127.118 161.524 129.123 161.684C131.128 161.845 132.251 168.02 131.529 175.318Z" fill="#263238" stroke="#263238" stroke-miterlimit="10" stroke-linecap="round" stroke-linejoin="round"/>
<path d="M364.753 343.499H23.7402" stroke="#454545" stroke-miterlimit="10" stroke-linecap="round" stroke-linejoin="round"/>
<path d="M11.8711 343.499H18.6079" stroke="#263238" stroke-miterlimit="10" stroke-linecap="round" stroke-linejoin="round"/>
</g>
<defs>
<clipPath id="clip0_4015_6903">
<rect width="376.942" height="352" fill="white"/>
</clipPath>
</defs>
</svg>
