<svg width="390" height="352" viewBox="0 0 390 352" fill="none" xmlns="http://www.w3.org/2000/svg">
<g clip-path="url(#clip0_4012_5281)">
<path d="M349.43 227.904C349.43 227.904 390.975 181.133 377.804 99.7333C364.552 18.3333 296.747 -11.6519 251.707 3.99259C206.666 19.637 196.585 46.9333 159.837 62.4963C123.089 78.0593 53.2514 67.3852 18.3734 119.778C-16.5047 172.17 28.0482 258.948 84.7961 313.378C141.463 367.889 286.341 333.748 349.43 227.904Z" fill="#411A11"/>
<path opacity="0.5" d="M266.666 28.1111C266.666 28.1111 263.983 21.0223 257.805 19.7186C251.626 18.4148 249.187 22.163 247.886 25.2593C246.585 28.3556 242.601 25.9111 239.268 25.5037C235.935 25.0963 234.146 28.3556 233.496 30.8C232.845 33.2445 228.618 29.6593 224.878 31.9408C221.138 34.1408 220.487 37.0741 219.593 37.726C218.699 38.3778 216.26 37.3186 214.959 39.0297C213.658 40.8223 213.658 40.8223 213.658 40.8223H282.845C282.845 40.8223 285.04 35.6889 280.894 31.9408C276.585 28.1111 269.349 33.8148 266.666 28.1111Z" stroke="white" stroke-miterlimit="10" stroke-linecap="round"/>
<path opacity="0.5" d="M92.0328 46.8519C92.0328 46.8519 89.3499 39.763 83.171 38.4593C76.9921 37.1556 74.5531 40.9037 73.2523 44C71.9515 47.0963 67.9678 44.6519 64.6344 44.2445C61.3011 43.837 59.5125 47.0963 58.8621 49.5408C58.2117 51.9852 53.984 48.4 50.2442 50.6815C46.5043 52.8815 45.8539 55.8148 44.9596 56.4667C44.0653 57.1185 41.6263 56.0593 40.3255 57.7704C38.9434 59.4815 38.9434 59.4815 38.9434 59.4815H108.13C108.13 59.4815 110.325 54.3482 106.179 50.6C101.951 46.8519 94.6344 52.5556 92.0328 46.8519Z" stroke="white" stroke-miterlimit="10" stroke-linecap="round"/>
<path opacity="0.5" d="M313.658 62.4148C313.658 62.4148 309.024 49.9481 298.129 47.6666C287.235 45.3037 283.007 51.9037 280.65 57.3629C278.292 62.8222 271.381 58.5037 265.528 57.7703C259.674 56.9555 256.585 62.8222 255.446 67.0592C254.308 71.2963 246.91 65.1037 240.324 69.0148C233.739 72.9259 232.601 77.9777 231.056 79.1185C229.511 80.2592 225.203 78.3037 222.926 81.4814C220.568 84.5777 220.568 84.5777 220.568 84.5777H341.95C341.95 84.5777 345.853 75.6148 338.455 69.0148C331.137 62.4148 318.292 72.5185 313.658 62.4148Z" stroke="white" stroke-miterlimit="10" stroke-linecap="round"/>
<path d="M366.423 328.37C366.423 328.37 366.91 327.148 366.91 327.067C367.154 326.17 367.073 324.215 366.179 323.645C365.528 323.237 364.715 323.563 364.39 324.215C364.065 324.867 364.228 325.763 364.553 326.415C365.041 327.23 366.423 328.37 366.423 328.37Z" fill="white"/>
<path d="M347.805 325.6C348.536 326.008 350.406 326.252 350.406 326.252L350.162 324.948C349.837 324.052 348.78 322.504 347.723 322.504C346.992 322.504 346.423 323.237 346.504 323.97C346.504 324.622 347.154 325.193 347.805 325.6Z" fill="white"/>
<path d="M347.724 331.059C348.456 331.304 350.244 330.978 350.326 330.978C350.488 331.956 350.732 332.933 350.976 333.911C351.139 334.482 351.301 335.052 351.464 335.541C351.301 335.296 351.22 335.052 351.22 335.052C350.732 334.237 349.187 333.015 348.212 333.341C347.48 333.585 347.155 334.4 347.399 335.052C347.643 335.785 348.456 336.193 349.187 336.356C349.919 336.519 351.382 336.356 351.708 336.274C351.789 336.519 351.87 336.682 351.952 336.926C352.277 337.904 352.683 338.963 353.008 339.941C353.09 340.267 353.252 340.674 353.334 341C353.252 340.756 353.171 340.593 353.09 340.593C352.602 339.778 351.057 338.556 350.082 338.882C349.35 339.126 349.025 339.941 349.269 340.593C349.513 341.326 350.326 341.733 351.057 341.896C351.708 342.059 353.09 341.896 353.496 341.815C353.578 342.141 353.659 342.548 353.74 342.874C353.821 343.119 353.821 343.363 353.903 343.607C353.903 343.852 353.984 344.096 353.984 344.341C354.065 344.83 354.065 345.319 354.147 345.726C354.147 346.052 354.228 346.378 354.228 346.622C354.147 346.296 353.903 345.563 353.903 345.563C353.496 344.667 352.195 343.282 351.139 343.363C350.407 343.444 349.919 344.178 350.082 344.911C350.244 345.644 350.976 346.215 351.626 346.459C352.358 346.785 353.984 346.785 354.228 346.785C354.228 347.274 354.309 347.763 354.309 348.252C354.391 349.556 354.391 350.615 354.391 351.511H355.122C355.122 350.615 355.041 349.556 354.96 348.252C354.96 347.763 354.878 347.193 354.797 346.622C354.96 346.622 355.691 346.378 356.342 346.133C356.83 346.785 358.13 347.682 358.293 347.763C358.049 348.17 357.805 348.659 357.561 348.985C356.992 349.963 356.423 350.778 356.017 351.511H356.83C357.236 350.859 357.643 350.126 358.13 349.311C358.374 348.904 358.618 348.415 358.943 347.926C359.106 348.007 360.732 348.496 361.464 348.496C362.195 348.415 363.008 348.17 363.415 347.519C363.821 346.867 363.659 346.052 362.927 345.726C361.952 345.237 360.326 346.215 359.675 346.867C359.675 346.867 359.269 347.356 359.025 347.682C359.106 347.519 359.269 347.274 359.35 347.111C359.594 346.704 359.756 346.296 360 345.807C360.082 345.563 360.163 345.4 360.326 345.156C360.407 344.911 360.488 344.667 360.569 344.422C360.813 343.852 360.976 343.282 361.139 342.711C361.464 342.874 362.765 343.526 363.496 343.607C364.228 343.607 365.122 343.526 365.61 342.956C366.098 342.385 366.017 341.489 365.447 341.082C364.553 340.511 362.765 341.163 362.033 341.733C361.952 341.733 361.464 342.222 361.22 342.548C361.301 342.222 361.464 341.815 361.545 341.489C361.789 340.43 362.033 339.37 362.277 338.393C362.358 338.067 362.439 337.741 362.521 337.415C362.683 337.496 364.147 338.311 364.96 338.311C365.691 338.311 366.586 338.23 367.074 337.659C367.561 337.089 367.48 336.193 366.911 335.785C366.017 335.215 364.228 335.867 363.496 336.437C363.415 336.519 362.765 337.17 362.521 337.333C362.683 336.6 362.846 335.948 363.09 335.215C363.334 334.237 363.659 333.341 364.065 332.526C364.147 332.526 365.691 333.422 366.504 333.422C367.236 333.422 368.13 333.341 368.618 332.77C369.106 332.2 369.025 331.304 368.456 330.896C367.561 330.326 365.773 330.978 365.041 331.548C364.96 331.548 364.472 332.119 364.228 332.363C364.228 332.363 364.228 332.363 364.147 332.363C364.553 331.467 365.041 330.652 365.61 329.837C365.935 329.43 366.26 329.022 366.504 328.615C366.748 328.778 368.049 329.674 368.781 329.756C369.513 329.837 370.407 329.837 370.976 329.348C371.545 328.859 371.545 327.963 370.976 327.474C370.163 326.741 368.293 327.23 367.48 327.719C367.399 327.719 366.992 328.044 366.748 328.289C366.911 328.126 367.074 327.963 367.155 327.8C367.643 327.23 368.212 326.659 368.7 326.17C368.943 325.926 369.187 325.682 369.431 325.437C369.838 325.519 371.301 325.6 371.952 325.437C372.602 325.193 373.415 324.785 373.659 324.052C373.903 323.319 373.578 322.585 372.846 322.341C371.789 322.096 370.407 323.4 369.919 324.215C369.838 324.296 369.35 325.437 369.35 325.437C369.106 325.6 368.862 325.844 368.618 326.089C368.13 326.578 367.643 327.067 367.074 327.637C366.504 328.207 365.935 328.859 365.447 329.674C364.878 330.407 364.391 331.222 363.903 332.2C363.984 331.874 364.065 331.059 364.065 330.978C364.065 330 363.496 328.207 362.521 327.882C361.789 327.637 361.057 328.126 360.895 328.859C360.732 329.593 361.22 330.407 361.626 330.978C362.114 331.548 363.74 332.282 363.821 332.363C363.415 333.259 363.09 334.156 362.765 335.133C362.602 335.704 362.439 336.274 362.277 336.844C362.277 336.6 362.358 336.356 362.358 336.274C362.358 335.296 361.789 333.504 360.813 333.178C360.082 332.933 359.35 333.422 359.187 334.156C359.025 334.889 359.513 335.704 359.919 336.274C360.407 336.844 361.708 337.496 362.114 337.659C362.033 337.904 362.033 338.067 361.952 338.311C361.708 339.37 361.464 340.43 361.139 341.407C361.057 341.733 360.895 342.141 360.813 342.467C360.813 342.222 360.895 342.059 360.895 341.978C360.895 341 360.326 339.207 359.35 338.882C358.618 338.637 357.887 339.126 357.724 339.859C357.561 340.593 358.049 341.407 358.456 341.978C358.943 342.467 360.163 343.119 360.569 343.282C360.407 343.607 360.326 344.015 360.163 344.341C360.082 344.585 360 344.83 359.838 344.993C359.756 345.237 359.594 345.4 359.513 345.644C359.269 346.052 359.106 346.459 358.862 346.867C358.7 347.111 358.537 347.437 358.456 347.682C358.537 347.356 358.781 346.622 358.781 346.541C358.862 345.889 358.781 344.83 358.456 344.096C358.456 344.015 358.456 343.933 358.456 343.852C358.456 343.119 357.805 342.467 357.074 342.63C356.017 342.793 355.122 344.504 354.96 345.4C354.96 345.482 354.878 346.052 354.878 346.459C354.878 346.215 354.797 345.97 354.797 345.807C354.716 345.319 354.716 344.911 354.634 344.422C354.634 344.178 354.553 343.933 354.553 343.689C354.553 343.444 354.472 343.2 354.391 342.956C354.228 342.385 354.065 341.815 353.903 341.244C354.309 341.163 355.773 341 356.342 340.674C356.992 340.348 357.643 339.696 357.724 338.963C357.805 338.23 357.317 337.496 356.504 337.496C355.447 337.496 354.309 339.044 353.984 339.941C353.984 340.022 353.821 340.674 353.74 341C353.659 340.674 353.496 340.267 353.415 339.941C353.09 338.963 352.683 337.904 352.277 336.926C352.195 336.6 352.033 336.274 351.952 336.03C352.114 336.03 353.821 335.867 354.472 335.459C355.122 335.133 355.773 334.482 355.854 333.748C355.935 333.015 355.448 332.282 354.634 332.282C353.578 332.282 352.439 333.83 352.114 334.726C352.114 334.807 351.87 335.785 351.87 336.03C351.626 335.378 351.382 334.644 351.139 333.993C350.813 333.096 350.651 332.119 350.488 331.222C350.569 331.222 352.358 331.059 353.09 330.652C353.74 330.326 354.391 329.674 354.472 328.941C354.553 328.207 354.065 327.474 353.252 327.474C352.195 327.474 351.057 329.022 350.732 329.919C350.732 330 350.569 330.733 350.488 331.059C350.488 331.059 350.488 331.059 350.407 331.059C350.244 330.082 350.244 329.104 350.244 328.207C350.244 327.637 350.326 327.148 350.326 326.659C350.651 326.659 352.195 326.659 352.846 326.333C353.496 326.007 354.228 325.519 354.391 324.785C354.553 324.052 354.147 323.319 353.334 323.237C352.277 323.074 350.976 324.541 350.569 325.356C350.569 325.437 350.407 325.926 350.244 326.252C350.244 326.007 350.326 325.763 350.326 325.6C350.407 324.785 350.569 324.052 350.732 323.4C350.813 323.074 350.895 322.748 350.976 322.422C351.301 322.259 352.602 321.526 353.09 320.956C353.496 320.385 353.903 319.57 353.74 318.837C353.578 318.104 352.846 317.615 352.114 317.941C351.139 318.267 350.651 320.141 350.651 321.119C350.651 321.2 350.813 322.504 350.895 322.504C350.813 322.83 350.732 323.074 350.651 323.482C350.488 324.133 350.326 324.867 350.244 325.682C350.082 326.496 350 327.311 350 328.289C350 329.185 350 330.163 350.082 331.222C349.919 330.978 349.513 330.163 349.513 330.082C349.025 329.267 347.48 328.044 346.504 328.37C345.773 328.615 345.448 329.43 345.691 330.082C346.261 330.407 347.074 330.815 347.724 331.059Z" fill="white"/>
<path opacity="0.3" d="M347.805 325.6C348.536 326.008 350.406 326.252 350.406 326.252L350.162 324.948C349.837 324.052 348.78 322.504 347.723 322.504C346.992 322.504 346.423 323.237 346.504 323.97C346.504 324.622 347.154 325.193 347.805 325.6Z" fill="white"/>
<path opacity="0.3" d="M366.423 328.37C366.423 328.37 366.91 327.148 366.91 327.067C367.154 326.17 367.073 324.215 366.179 323.645C365.528 323.237 364.715 323.563 364.39 324.215C364.065 324.867 364.228 325.763 364.553 326.415C365.041 327.23 366.423 328.37 366.423 328.37Z" fill="white"/>
<path opacity="0.3" d="M347.724 331.059C348.456 331.304 350.244 330.978 350.326 330.978C350.488 331.956 350.732 332.933 350.976 333.911C351.139 334.482 351.301 335.052 351.464 335.541C351.301 335.296 351.22 335.052 351.22 335.052C350.732 334.237 349.187 333.015 348.212 333.341C347.48 333.585 347.155 334.4 347.399 335.052C347.643 335.785 348.456 336.193 349.187 336.356C349.919 336.519 351.382 336.356 351.708 336.274C351.789 336.519 351.87 336.682 351.952 336.926C352.277 337.904 352.683 338.963 353.008 339.941C353.09 340.267 353.252 340.674 353.334 341C353.252 340.756 353.171 340.593 353.09 340.593C352.602 339.778 351.057 338.556 350.082 338.882C349.35 339.126 349.025 339.941 349.269 340.593C349.513 341.326 350.326 341.733 351.057 341.896C351.708 342.059 353.09 341.896 353.496 341.815C353.578 342.141 353.659 342.548 353.74 342.874C353.821 343.119 353.821 343.363 353.903 343.607C353.903 343.852 353.984 344.096 353.984 344.341C354.065 344.83 354.065 345.319 354.147 345.726C354.147 346.052 354.228 346.378 354.228 346.622C354.147 346.296 353.903 345.563 353.903 345.563C353.496 344.667 352.195 343.282 351.139 343.363C350.407 343.444 349.919 344.178 350.082 344.911C350.244 345.644 350.976 346.215 351.626 346.459C352.358 346.785 353.984 346.785 354.228 346.785C354.228 347.274 354.309 347.763 354.309 348.252C354.391 349.556 354.391 350.615 354.391 351.511H355.122C355.122 350.615 355.041 349.556 354.96 348.252C354.96 347.763 354.878 347.193 354.797 346.622C354.96 346.622 355.691 346.378 356.342 346.133C356.83 346.785 358.13 347.682 358.293 347.763C358.049 348.17 357.805 348.659 357.561 348.985C356.992 349.963 356.423 350.778 356.017 351.511H356.83C357.236 350.859 357.643 350.126 358.13 349.311C358.374 348.904 358.618 348.415 358.943 347.926C359.106 348.007 360.732 348.496 361.464 348.496C362.195 348.415 363.008 348.17 363.415 347.519C363.821 346.867 363.659 346.052 362.927 345.726C361.952 345.237 360.326 346.215 359.675 346.867C359.675 346.867 359.269 347.356 359.025 347.682C359.106 347.519 359.269 347.274 359.35 347.111C359.594 346.704 359.756 346.296 360 345.807C360.082 345.563 360.163 345.4 360.326 345.156C360.407 344.911 360.488 344.667 360.569 344.422C360.813 343.852 360.976 343.282 361.139 342.711C361.464 342.874 362.765 343.526 363.496 343.607C364.228 343.607 365.122 343.526 365.61 342.956C366.098 342.385 366.017 341.489 365.447 341.082C364.553 340.511 362.765 341.163 362.033 341.733C361.952 341.733 361.464 342.222 361.22 342.548C361.301 342.222 361.464 341.815 361.545 341.489C361.789 340.43 362.033 339.37 362.277 338.393C362.358 338.067 362.439 337.741 362.521 337.415C362.683 337.496 364.147 338.311 364.96 338.311C365.691 338.311 366.586 338.23 367.074 337.659C367.561 337.089 367.48 336.193 366.911 335.785C366.017 335.215 364.228 335.867 363.496 336.437C363.415 336.519 362.765 337.17 362.521 337.333C362.683 336.6 362.846 335.948 363.09 335.215C363.334 334.237 363.659 333.341 364.065 332.526C364.147 332.526 365.691 333.422 366.504 333.422C367.236 333.422 368.13 333.341 368.618 332.77C369.106 332.2 369.025 331.304 368.456 330.896C367.561 330.326 365.773 330.978 365.041 331.548C364.96 331.548 364.472 332.119 364.228 332.363C364.228 332.363 364.228 332.363 364.147 332.363C364.553 331.467 365.041 330.652 365.61 329.837C365.935 329.43 366.26 329.022 366.504 328.615C366.748 328.778 368.049 329.674 368.781 329.756C369.513 329.837 370.407 329.837 370.976 329.348C371.545 328.859 371.545 327.963 370.976 327.474C370.163 326.741 368.293 327.23 367.48 327.719C367.399 327.719 366.992 328.044 366.748 328.289C366.911 328.126 367.074 327.963 367.155 327.8C367.643 327.23 368.212 326.659 368.7 326.17C368.943 325.926 369.187 325.682 369.431 325.437C369.838 325.519 371.301 325.6 371.952 325.437C372.602 325.193 373.415 324.785 373.659 324.052C373.903 323.319 373.578 322.585 372.846 322.341C371.789 322.096 370.407 323.4 369.919 324.215C369.838 324.296 369.35 325.437 369.35 325.437C369.106 325.6 368.862 325.844 368.618 326.089C368.13 326.578 367.643 327.067 367.074 327.637C366.504 328.207 365.935 328.859 365.447 329.674C364.878 330.407 364.391 331.222 363.903 332.2C363.984 331.874 364.065 331.059 364.065 330.978C364.065 330 363.496 328.207 362.521 327.882C361.789 327.637 361.057 328.126 360.895 328.859C360.732 329.593 361.22 330.407 361.626 330.978C362.114 331.548 363.74 332.282 363.821 332.363C363.415 333.259 363.09 334.156 362.765 335.133C362.602 335.704 362.439 336.274 362.277 336.844C362.277 336.6 362.358 336.356 362.358 336.274C362.358 335.296 361.789 333.504 360.813 333.178C360.082 332.933 359.35 333.422 359.187 334.156C359.025 334.889 359.513 335.704 359.919 336.274C360.407 336.844 361.708 337.496 362.114 337.659C362.033 337.904 362.033 338.067 361.952 338.311C361.708 339.37 361.464 340.43 361.139 341.407C361.057 341.733 360.895 342.141 360.813 342.467C360.813 342.222 360.895 342.059 360.895 341.978C360.895 341 360.326 339.207 359.35 338.882C358.618 338.637 357.887 339.126 357.724 339.859C357.561 340.593 358.049 341.407 358.456 341.978C358.943 342.467 360.163 343.119 360.569 343.282C360.407 343.607 360.326 344.015 360.163 344.341C360.082 344.585 360 344.83 359.838 344.993C359.756 345.237 359.594 345.4 359.513 345.644C359.269 346.052 359.106 346.459 358.862 346.867C358.7 347.111 358.537 347.437 358.456 347.682C358.537 347.356 358.781 346.622 358.781 346.541C358.862 345.889 358.781 344.83 358.456 344.096C358.456 344.015 358.456 343.933 358.456 343.852C358.456 343.119 357.805 342.467 357.074 342.63C356.017 342.793 355.122 344.504 354.96 345.4C354.96 345.482 354.878 346.052 354.878 346.459C354.878 346.215 354.797 345.97 354.797 345.807C354.716 345.319 354.716 344.911 354.634 344.422C354.634 344.178 354.553 343.933 354.553 343.689C354.553 343.444 354.472 343.2 354.391 342.956C354.228 342.385 354.065 341.815 353.903 341.244C354.309 341.163 355.773 341 356.342 340.674C356.992 340.348 357.643 339.696 357.724 338.963C357.805 338.23 357.317 337.496 356.504 337.496C355.447 337.496 354.309 339.044 353.984 339.941C353.984 340.022 353.821 340.674 353.74 341C353.659 340.674 353.496 340.267 353.415 339.941C353.09 338.963 352.683 337.904 352.277 336.926C352.195 336.6 352.033 336.274 351.952 336.03C352.114 336.03 353.821 335.867 354.472 335.459C355.122 335.133 355.773 334.482 355.854 333.748C355.935 333.015 355.448 332.282 354.634 332.282C353.578 332.282 352.439 333.83 352.114 334.726C352.114 334.807 351.87 335.785 351.87 336.03C351.626 335.378 351.382 334.644 351.139 333.993C350.813 333.096 350.651 332.119 350.488 331.222C350.569 331.222 352.358 331.059 353.09 330.652C353.74 330.326 354.391 329.674 354.472 328.941C354.553 328.207 354.065 327.474 353.252 327.474C352.195 327.474 351.057 329.022 350.732 329.919C350.732 330 350.569 330.733 350.488 331.059C350.488 331.059 350.488 331.059 350.407 331.059C350.244 330.082 350.244 329.104 350.244 328.207C350.244 327.637 350.326 327.148 350.326 326.659C350.651 326.659 352.195 326.659 352.846 326.333C353.496 326.007 354.228 325.519 354.391 324.785C354.553 324.052 354.147 323.319 353.334 323.237C352.277 323.074 350.976 324.541 350.569 325.356C350.569 325.437 350.407 325.926 350.244 326.252C350.244 326.007 350.326 325.763 350.326 325.6C350.407 324.785 350.569 324.052 350.732 323.4C350.813 323.074 350.895 322.748 350.976 322.422C351.301 322.259 352.602 321.526 353.09 320.956C353.496 320.385 353.903 319.57 353.74 318.837C353.578 318.104 352.846 317.615 352.114 317.941C351.139 318.267 350.651 320.141 350.651 321.119C350.651 321.2 350.813 322.504 350.895 322.504C350.813 322.83 350.732 323.074 350.651 323.482C350.488 324.133 350.326 324.867 350.244 325.682C350.082 326.496 350 327.311 350 328.289C350 329.185 350 330.163 350.082 331.222C349.919 330.978 349.513 330.163 349.513 330.082C349.025 329.267 347.48 328.044 346.504 328.37C345.773 328.615 345.448 329.43 345.691 330.082C346.261 330.407 347.074 330.815 347.724 331.059Z" fill="white"/>
<path d="M49.0248 328.778C49.0248 328.778 48.537 327.637 48.537 327.556C48.2931 326.659 48.3744 324.785 49.1874 324.215C49.8378 323.807 50.6508 324.133 50.976 324.704C51.3012 325.356 51.1386 326.252 50.8134 326.904C50.4882 327.637 49.0248 328.778 49.0248 328.778Z" fill="white"/>
<path d="M67.3992 326.089C66.6675 326.496 64.8789 326.741 64.8789 326.741C64.8789 326.741 65.1228 325.518 65.1228 325.437C65.448 324.541 66.5049 322.993 67.5618 322.993C68.2935 322.993 68.7813 323.726 68.7813 324.378C68.6187 325.111 67.9683 325.681 67.3992 326.089Z" fill="white"/>
<path d="M67.3991 331.385C66.6673 331.63 64.96 331.304 64.7974 331.304C64.6348 332.281 64.4722 333.178 64.147 334.156C63.9844 334.726 63.8218 335.215 63.6592 335.785C63.7405 335.541 63.9031 335.378 63.9031 335.296C64.3909 334.481 65.8543 333.341 66.9112 333.585C67.643 333.83 67.9682 334.563 67.643 335.296C67.399 335.948 66.586 336.437 65.9356 336.6C65.2852 336.763 63.8218 336.6 63.4153 336.519C63.334 336.763 63.2527 336.926 63.1714 337.17C62.8462 338.148 62.4397 339.126 62.1145 340.185C62.0332 340.511 61.8706 340.919 61.7893 341.244C61.8706 341 61.9519 340.837 62.0332 340.837C62.521 340.022 63.9844 338.882 65.0413 339.126C65.773 339.37 66.0982 340.104 65.773 340.837C65.5291 341.489 64.7161 341.978 64.0657 342.141C63.4153 342.304 62.1145 342.141 61.6267 342.059C61.5454 342.385 61.4641 342.793 61.3828 343.119C61.3015 343.363 61.3015 343.607 61.2202 343.852C61.2202 344.096 61.1389 344.341 61.1389 344.585C61.0576 345.074 61.0576 345.481 60.9763 345.97C60.9763 346.296 60.895 346.541 60.895 346.867C60.9763 346.541 61.2202 345.807 61.2202 345.807C61.6267 344.993 62.8462 343.526 63.9031 343.689C64.6348 343.77 65.0413 344.504 64.8787 345.237C64.7161 345.97 63.9844 346.459 63.334 346.785C62.6023 347.111 60.9763 347.111 60.8137 347.111C60.8137 347.6 60.7324 348.089 60.7324 348.578C60.6511 349.8 60.6511 350.941 60.6511 351.756H60.1633C60.1633 350.859 60.2446 349.8 60.3259 348.578C60.3259 348.089 60.4072 347.519 60.4885 347.03C60.3259 347.03 59.6755 346.785 59.0251 346.541C58.5373 347.193 57.3178 348.007 57.1552 348.17C57.3991 348.578 57.643 348.985 57.8869 349.393C58.456 350.37 58.9438 351.185 59.4316 351.837H58.6186C58.2121 351.185 57.8056 350.533 57.3178 349.719C57.0738 349.311 56.8299 348.822 56.586 348.333C56.4234 348.415 54.8787 348.904 54.0657 348.822C53.334 348.741 52.521 348.496 52.1145 347.844C51.708 347.193 51.8706 346.378 52.6023 346.052C53.5779 345.563 55.2039 346.541 55.8543 347.193C55.8543 347.193 56.2608 347.681 56.5047 348.007C56.4234 347.844 56.2608 347.6 56.1795 347.437C55.9356 347.03 55.773 346.622 55.5291 346.133C55.4478 345.889 55.3665 345.726 55.2039 345.481C55.1226 345.237 55.0413 344.993 54.96 344.748C54.7161 344.178 54.5535 343.607 54.3909 343.037C54.0657 343.2 52.7649 343.852 52.0332 343.933C51.3015 343.933 50.4072 343.852 50.0007 343.281C49.5129 342.711 49.5942 341.896 50.1633 341.489C51.0576 340.919 52.7649 341.57 53.4966 342.141C53.5779 342.141 54.0657 342.63 54.3096 342.874C54.2283 342.548 54.147 342.222 53.9844 341.815C53.7405 340.837 53.4966 339.778 53.2527 338.719C53.1714 338.393 53.0901 338.067 53.0088 337.741C52.8462 337.822 51.3828 338.637 50.5698 338.637C49.8381 338.637 48.9438 338.556 48.5373 337.985C48.0495 337.415 48.1308 336.6 48.6999 336.193C49.5942 335.622 51.3015 336.274 52.0332 336.844C52.1145 336.926 52.7649 337.578 52.9275 337.741C52.7649 337.089 52.6023 336.356 52.4397 335.704C52.1958 334.807 51.8706 333.911 51.4641 333.015C51.3828 333.015 49.8381 333.911 49.0251 333.911C48.2934 333.911 47.3991 333.83 46.9925 333.259C46.5047 332.689 46.586 331.874 47.1552 331.467C48.0495 330.896 49.7568 331.548 50.4885 332.119C50.5698 332.119 51.0576 332.689 51.3015 332.933C51.3015 332.933 51.3015 332.933 51.3828 332.933C50.9763 332.037 50.4885 331.222 50.0007 330.489C49.6755 330.081 49.4316 329.674 49.1064 329.267C48.8625 329.43 47.5617 330.244 46.8299 330.407C46.1795 330.489 45.2039 330.489 44.7161 330C44.2283 329.511 44.147 328.615 44.7161 328.126C45.5291 327.474 47.3178 327.881 48.1308 328.37C48.2121 328.37 48.6186 328.696 48.8625 328.941C48.6999 328.778 48.6186 328.615 48.456 328.452C47.9682 327.881 47.3991 327.311 46.9925 326.904C46.7486 326.659 46.5047 326.415 46.2608 326.252C45.9356 326.252 44.3909 326.415 43.7405 326.252C43.0901 326.007 42.2771 325.6 42.0332 324.867C41.7893 324.215 42.1145 323.4 42.8462 323.237C43.8218 322.993 45.2852 324.215 45.773 325.03C45.8543 325.111 46.3421 326.252 46.3421 326.252C46.586 326.415 46.8299 326.659 47.0739 326.904C47.5617 327.311 48.0495 327.881 48.6186 328.452C49.1877 329.022 49.6755 329.674 50.2446 330.407C50.8137 331.141 51.3015 331.956 51.708 332.852C51.6267 332.526 51.5454 331.711 51.5454 331.63C51.5454 330.733 52.1145 328.859 53.0901 328.533C53.8218 328.289 54.4722 328.778 54.6348 329.511C54.7974 330.244 54.3909 331.059 53.9031 331.548C53.4153 332.119 51.8706 332.852 51.708 332.933C52.1145 333.83 52.4397 334.726 52.7649 335.704C52.9275 336.274 53.0901 336.763 53.2527 337.333C53.2527 337.089 53.1714 336.844 53.1714 336.763C53.1714 335.867 53.7405 333.993 54.7161 333.667C55.4478 333.422 56.0982 333.911 56.2608 334.644C56.4234 335.378 56.0169 336.193 55.5291 336.681C55.0413 337.252 53.7405 337.822 53.4153 337.985C53.4966 338.23 53.4966 338.393 53.5779 338.637C53.8218 339.696 54.0657 340.674 54.3909 341.652C54.4722 341.978 54.6348 342.385 54.7161 342.711C54.7161 342.467 54.6348 342.304 54.6348 342.222C54.6348 341.326 55.2039 339.452 56.1795 339.126C56.9112 338.882 57.5617 339.37 57.7243 340.104C57.8869 340.837 57.4804 341.652 56.9925 342.141C56.586 342.63 55.3665 343.281 54.96 343.444C55.0413 343.77 55.2039 344.178 55.3665 344.504C55.4478 344.748 55.5291 344.911 55.6104 345.156C55.6917 345.4 55.8543 345.563 55.9356 345.807C56.1795 346.215 56.3421 346.622 56.586 347.03C56.7486 347.274 56.9112 347.6 56.9925 347.844C56.9112 347.519 56.6673 346.785 56.6673 346.785C56.586 346.133 56.6673 345.156 56.9925 344.422C56.9925 344.341 56.9925 344.259 56.9925 344.178C56.9925 343.444 57.643 342.874 58.3747 342.956C59.4316 343.119 60.2446 344.748 60.4072 345.726C60.4072 345.807 60.4885 346.378 60.4885 346.785C60.4885 346.541 60.5698 346.378 60.5698 346.133C60.6511 345.644 60.6511 345.237 60.7324 344.748C60.7324 344.504 60.8137 344.259 60.8137 344.015C60.8137 343.77 60.895 343.526 60.9763 343.281C61.1389 342.711 61.3015 342.141 61.4641 341.57C61.0576 341.489 59.6755 341.326 59.0251 341C58.456 340.674 57.7243 340.022 57.643 339.289C57.5617 338.556 58.0495 337.904 58.7812 337.822C59.8381 337.822 60.895 339.37 61.2202 340.185C61.2202 340.267 61.3828 340.919 61.4641 341.244C61.5454 340.919 61.708 340.593 61.7893 340.185C62.1145 339.207 62.521 338.23 62.8462 337.252C62.9275 336.926 63.0901 336.681 63.1714 336.356C63.0088 336.356 61.3828 336.193 60.6511 335.785C60.082 335.459 59.3503 334.807 59.269 334.074C59.1877 333.341 59.6755 332.689 60.4072 332.607C61.4641 332.607 62.521 334.156 62.8462 334.97C62.8462 335.052 63.0901 335.948 63.0901 336.193C63.334 335.541 63.5779 334.889 63.7405 334.156C64.0657 333.259 64.2283 332.281 64.3909 331.385C64.3096 331.385 62.6023 331.222 61.8706 330.815C61.3015 330.489 60.5698 329.837 60.4885 329.104C60.4072 328.37 60.895 327.719 61.6267 327.637C62.6836 327.637 63.7405 329.185 64.0657 330C64.0657 330.081 64.2283 330.815 64.3096 331.141C64.3096 331.141 64.3096 331.141 64.3909 331.141C64.5535 330.163 64.5535 329.185 64.5535 328.289C64.5535 327.8 64.4722 327.23 64.4722 326.822C64.147 326.822 62.6023 326.822 61.9519 326.496C61.3015 326.252 60.5698 325.681 60.4072 324.948C60.2446 324.215 60.6511 323.481 61.3828 323.4C62.4397 323.237 63.6592 324.704 64.0657 325.519C64.0657 325.6 64.2283 326.089 64.3909 326.415C64.3909 326.17 64.3096 326.007 64.3096 325.763C64.2283 324.948 64.0657 324.296 63.9031 323.644C63.8218 323.319 63.7405 322.993 63.6592 322.667C63.334 322.504 62.0332 321.77 61.5454 321.281C61.1389 320.711 60.7324 319.896 60.895 319.244C61.0576 318.511 61.7893 318.104 62.521 318.348C63.4966 318.674 63.9844 320.548 63.9844 321.444C63.9844 321.526 63.8218 322.748 63.7405 322.748C63.8218 323.074 63.9031 323.319 63.9844 323.644C64.147 324.296 64.3096 324.948 64.3909 325.763C64.4722 326.578 64.6348 327.393 64.6348 328.289C64.6348 329.185 64.6348 330.163 64.5535 331.141C64.7161 330.896 65.0413 330.081 65.1226 330.081C65.6104 329.267 67.0739 328.126 68.1308 328.37C68.8625 328.615 69.1877 329.348 68.8625 330.081C68.8625 330.815 68.1308 331.222 67.3991 331.385Z" fill="white"/>
<path opacity="0.3" d="M67.3992 326.089C66.6675 326.496 64.8789 326.741 64.8789 326.741C64.8789 326.741 65.1228 325.518 65.1228 325.437C65.448 324.541 66.5049 322.993 67.5618 322.993C68.2935 322.993 68.7813 323.726 68.7813 324.378C68.6187 325.111 67.9683 325.681 67.3992 326.089Z" fill="white"/>
<path opacity="0.3" d="M49.0248 328.778C49.0248 328.778 48.537 327.637 48.537 327.556C48.2931 326.659 48.3744 324.785 49.1874 324.215C49.8378 323.807 50.6508 324.133 50.976 324.704C51.3012 325.356 51.1386 326.252 50.8134 326.904C50.4882 327.637 49.0248 328.778 49.0248 328.778Z" fill="white"/>
<path opacity="0.3" d="M67.3991 331.385C66.6673 331.63 64.96 331.304 64.7974 331.304C64.6348 332.281 64.4722 333.178 64.147 334.156C63.9844 334.726 63.8218 335.215 63.6592 335.785C63.7405 335.541 63.9031 335.378 63.9031 335.296C64.3909 334.481 65.8543 333.341 66.9112 333.585C67.643 333.83 67.9682 334.563 67.643 335.296C67.399 335.948 66.586 336.437 65.9356 336.6C65.2852 336.763 63.8218 336.6 63.4153 336.519C63.334 336.763 63.2527 336.926 63.1714 337.17C62.8462 338.148 62.4397 339.126 62.1145 340.185C62.0332 340.511 61.8706 340.919 61.7893 341.244C61.8706 341 61.9519 340.837 62.0332 340.837C62.521 340.022 63.9844 338.882 65.0413 339.126C65.773 339.37 66.0982 340.104 65.773 340.837C65.5291 341.489 64.7161 341.978 64.0657 342.141C63.4153 342.304 62.1145 342.141 61.6267 342.059C61.5454 342.385 61.4641 342.793 61.3828 343.119C61.3015 343.363 61.3015 343.607 61.2202 343.852C61.2202 344.096 61.1389 344.341 61.1389 344.585C61.0576 345.074 61.0576 345.481 60.9763 345.97C60.9763 346.296 60.895 346.541 60.895 346.867C60.9763 346.541 61.2202 345.807 61.2202 345.807C61.6267 344.993 62.8462 343.526 63.9031 343.689C64.6348 343.77 65.0413 344.504 64.8787 345.237C64.7161 345.97 63.9844 346.459 63.334 346.785C62.6023 347.111 60.9763 347.111 60.8137 347.111C60.8137 347.6 60.7324 348.089 60.7324 348.578C60.6511 349.8 60.6511 350.941 60.6511 351.756H60.1633C60.1633 350.859 60.2446 349.8 60.3259 348.578C60.3259 348.089 60.4072 347.519 60.4885 347.03C60.3259 347.03 59.6755 346.785 59.0251 346.541C58.5373 347.193 57.3178 348.007 57.1552 348.17C57.3991 348.578 57.643 348.985 57.8869 349.393C58.456 350.37 58.9438 351.185 59.4316 351.837H58.6186C58.2121 351.185 57.8056 350.533 57.3178 349.719C57.0738 349.311 56.8299 348.822 56.586 348.333C56.4234 348.415 54.8787 348.904 54.0657 348.822C53.334 348.741 52.521 348.496 52.1145 347.844C51.708 347.193 51.8706 346.378 52.6023 346.052C53.5779 345.563 55.2039 346.541 55.8543 347.193C55.8543 347.193 56.2608 347.681 56.5047 348.007C56.4234 347.844 56.2608 347.6 56.1795 347.437C55.9356 347.03 55.773 346.622 55.5291 346.133C55.4478 345.889 55.3665 345.726 55.2039 345.481C55.1226 345.237 55.0413 344.993 54.96 344.748C54.7161 344.178 54.5535 343.607 54.3909 343.037C54.0657 343.2 52.7649 343.852 52.0332 343.933C51.3015 343.933 50.4072 343.852 50.0007 343.281C49.5129 342.711 49.5942 341.896 50.1633 341.489C51.0576 340.919 52.7649 341.57 53.4966 342.141C53.5779 342.141 54.0657 342.63 54.3096 342.874C54.2283 342.548 54.147 342.222 53.9844 341.815C53.7405 340.837 53.4966 339.778 53.2527 338.719C53.1714 338.393 53.0901 338.067 53.0088 337.741C52.8462 337.822 51.3828 338.637 50.5698 338.637C49.8381 338.637 48.9438 338.556 48.5373 337.985C48.0495 337.415 48.1308 336.6 48.6999 336.193C49.5942 335.622 51.3015 336.274 52.0332 336.844C52.1145 336.926 52.7649 337.578 52.9275 337.741C52.7649 337.089 52.6023 336.356 52.4397 335.704C52.1958 334.807 51.8706 333.911 51.4641 333.015C51.3828 333.015 49.8381 333.911 49.0251 333.911C48.2934 333.911 47.3991 333.83 46.9925 333.259C46.5047 332.689 46.586 331.874 47.1552 331.467C48.0495 330.896 49.7568 331.548 50.4885 332.119C50.5698 332.119 51.0576 332.689 51.3015 332.933C51.3015 332.933 51.3015 332.933 51.3828 332.933C50.9763 332.037 50.4885 331.222 50.0007 330.489C49.6755 330.081 49.4316 329.674 49.1064 329.267C48.8625 329.43 47.5617 330.244 46.8299 330.407C46.1795 330.489 45.2039 330.489 44.7161 330C44.2283 329.511 44.147 328.615 44.7161 328.126C45.5291 327.474 47.3178 327.881 48.1308 328.37C48.2121 328.37 48.6186 328.696 48.8625 328.941C48.6999 328.778 48.6186 328.615 48.456 328.452C47.9682 327.881 47.3991 327.311 46.9925 326.904C46.7486 326.659 46.5047 326.415 46.2608 326.252C45.9356 326.252 44.3909 326.415 43.7405 326.252C43.0901 326.007 42.2771 325.6 42.0332 324.867C41.7893 324.215 42.1145 323.4 42.8462 323.237C43.8218 322.993 45.2852 324.215 45.773 325.03C45.8543 325.111 46.3421 326.252 46.3421 326.252C46.586 326.415 46.8299 326.659 47.0739 326.904C47.5617 327.311 48.0495 327.881 48.6186 328.452C49.1877 329.022 49.6755 329.674 50.2446 330.407C50.8137 331.141 51.3015 331.956 51.708 332.852C51.6267 332.526 51.5454 331.711 51.5454 331.63C51.5454 330.733 52.1145 328.859 53.0901 328.533C53.8218 328.289 54.4722 328.778 54.6348 329.511C54.7974 330.244 54.3909 331.059 53.9031 331.548C53.4153 332.119 51.8706 332.852 51.708 332.933C52.1145 333.83 52.4397 334.726 52.7649 335.704C52.9275 336.274 53.0901 336.763 53.2527 337.333C53.2527 337.089 53.1714 336.844 53.1714 336.763C53.1714 335.867 53.7405 333.993 54.7161 333.667C55.4478 333.422 56.0982 333.911 56.2608 334.644C56.4234 335.378 56.0169 336.193 55.5291 336.681C55.0413 337.252 53.7405 337.822 53.4153 337.985C53.4966 338.23 53.4966 338.393 53.5779 338.637C53.8218 339.696 54.0657 340.674 54.3909 341.652C54.4722 341.978 54.6348 342.385 54.7161 342.711C54.7161 342.467 54.6348 342.304 54.6348 342.222C54.6348 341.326 55.2039 339.452 56.1795 339.126C56.9112 338.882 57.5617 339.37 57.7243 340.104C57.8869 340.837 57.4804 341.652 56.9925 342.141C56.586 342.63 55.3665 343.281 54.96 343.444C55.0413 343.77 55.2039 344.178 55.3665 344.504C55.4478 344.748 55.5291 344.911 55.6104 345.156C55.6917 345.4 55.8543 345.563 55.9356 345.807C56.1795 346.215 56.3421 346.622 56.586 347.03C56.7486 347.274 56.9112 347.6 56.9925 347.844C56.9112 347.519 56.6673 346.785 56.6673 346.785C56.586 346.133 56.6673 345.156 56.9925 344.422C56.9925 344.341 56.9925 344.259 56.9925 344.178C56.9925 343.444 57.643 342.874 58.3747 342.956C59.4316 343.119 60.2446 344.748 60.4072 345.726C60.4072 345.807 60.4885 346.378 60.4885 346.785C60.4885 346.541 60.5698 346.378 60.5698 346.133C60.6511 345.644 60.6511 345.237 60.7324 344.748C60.7324 344.504 60.8137 344.259 60.8137 344.015C60.8137 343.77 60.895 343.526 60.9763 343.281C61.1389 342.711 61.3015 342.141 61.4641 341.57C61.0576 341.489 59.6755 341.326 59.0251 341C58.456 340.674 57.7243 340.022 57.643 339.289C57.5617 338.556 58.0495 337.904 58.7812 337.822C59.8381 337.822 60.895 339.37 61.2202 340.185C61.2202 340.267 61.3828 340.919 61.4641 341.244C61.5454 340.919 61.708 340.593 61.7893 340.185C62.1145 339.207 62.521 338.23 62.8462 337.252C62.9275 336.926 63.0901 336.681 63.1714 336.356C63.0088 336.356 61.3828 336.193 60.6511 335.785C60.082 335.459 59.3503 334.807 59.269 334.074C59.1877 333.341 59.6755 332.689 60.4072 332.607C61.4641 332.607 62.521 334.156 62.8462 334.97C62.8462 335.052 63.0901 335.948 63.0901 336.193C63.334 335.541 63.5779 334.889 63.7405 334.156C64.0657 333.259 64.2283 332.281 64.3909 331.385C64.3096 331.385 62.6023 331.222 61.8706 330.815C61.3015 330.489 60.5698 329.837 60.4885 329.104C60.4072 328.37 60.895 327.719 61.6267 327.637C62.6836 327.637 63.7405 329.185 64.0657 330C64.0657 330.081 64.2283 330.815 64.3096 331.141C64.3096 331.141 64.3096 331.141 64.3909 331.141C64.5535 330.163 64.5535 329.185 64.5535 328.289C64.5535 327.8 64.4722 327.23 64.4722 326.822C64.147 326.822 62.6023 326.822 61.9519 326.496C61.3015 326.252 60.5698 325.681 60.4072 324.948C60.2446 324.215 60.6511 323.481 61.3828 323.4C62.4397 323.237 63.6592 324.704 64.0657 325.519C64.0657 325.6 64.2283 326.089 64.3909 326.415C64.3909 326.17 64.3096 326.007 64.3096 325.763C64.2283 324.948 64.0657 324.296 63.9031 323.644C63.8218 323.319 63.7405 322.993 63.6592 322.667C63.334 322.504 62.0332 321.77 61.5454 321.281C61.1389 320.711 60.7324 319.896 60.895 319.244C61.0576 318.511 61.7893 318.104 62.521 318.348C63.4966 318.674 63.9844 320.548 63.9844 321.444C63.9844 321.526 63.8218 322.748 63.7405 322.748C63.8218 323.074 63.9031 323.319 63.9844 323.644C64.147 324.296 64.3096 324.948 64.3909 325.763C64.4722 326.578 64.6348 327.393 64.6348 328.289C64.6348 329.185 64.6348 330.163 64.5535 331.141C64.7161 330.896 65.0413 330.081 65.1226 330.081C65.6104 329.267 67.0739 328.126 68.1308 328.37C68.8625 328.615 69.1877 329.348 68.8625 330.081C68.8625 330.815 68.1308 331.222 67.3991 331.385Z" fill="white"/>
<path d="M82.9267 337.822L83.2519 337.089C83.4145 336.519 83.3332 335.378 82.8454 335.052C82.4388 334.807 81.951 334.97 81.7884 335.378C81.5445 335.785 81.7071 336.274 81.8697 336.681C82.1136 337.089 82.9267 337.822 82.9267 337.822Z" fill="white"/>
<path d="M71.7876 336.111C72.1941 336.356 73.3323 336.519 73.3323 336.519C73.3323 336.519 73.1697 335.785 73.1697 335.704C73.0071 335.133 72.3567 334.237 71.7063 334.237C71.2185 334.237 70.9746 334.644 70.9746 335.133C71.0559 335.541 71.4624 335.867 71.7876 336.111Z" fill="white"/>
<path d="M71.7883 339.37C72.2761 339.533 73.2517 339.37 73.333 339.289C73.4143 339.859 73.5769 340.43 73.7395 341C73.8208 341.326 73.9021 341.652 74.0647 341.978C73.9834 341.815 73.9021 341.733 73.9021 341.652C73.5769 341.163 72.6826 340.43 72.1135 340.593C71.707 340.756 71.4631 341.163 71.6257 341.57C71.7883 341.978 72.2761 342.222 72.6826 342.385C73.0891 342.467 73.9834 342.385 74.2273 342.385C74.3086 342.548 74.3086 342.63 74.3899 342.793C74.6338 343.363 74.7964 344.015 75.0403 344.585C75.1216 344.83 75.2029 344.993 75.2029 345.237C75.1216 345.074 75.1216 344.993 75.0403 344.993C74.7151 344.504 73.8208 343.77 73.2517 343.933C72.8452 344.096 72.6013 344.504 72.7639 344.911C72.9265 345.318 73.4143 345.563 73.8208 345.726C74.2273 345.807 75.0403 345.726 75.2842 345.726C75.3655 345.97 75.3655 346.133 75.4468 346.378C75.4468 346.541 75.5281 346.622 75.5281 346.785C75.5281 346.948 75.6094 347.111 75.6094 347.193C75.6094 347.437 75.6907 347.763 75.6907 348.007C75.6907 348.17 75.6907 348.415 75.772 348.578C75.6907 348.333 75.6094 347.926 75.5281 347.926C75.2842 347.437 74.5525 346.541 73.9021 346.622C73.4143 346.704 73.1704 347.111 73.2517 347.518C73.333 347.926 73.8208 348.252 74.146 348.496C74.5525 348.659 75.5281 348.659 75.6907 348.659C75.6907 348.985 75.6907 349.23 75.772 349.556C75.772 350.289 75.8533 350.941 75.8533 351.511H76.2598C76.2598 351.022 76.2598 350.289 76.1785 349.556C76.1785 349.23 76.0972 348.904 76.0972 348.578C76.1785 348.578 76.585 348.415 76.9915 348.252C77.2354 348.659 78.0484 349.148 78.1297 349.23C77.9671 349.474 77.8045 349.718 77.7232 349.963C77.398 350.533 77.0728 351.022 76.8289 351.43H77.2354C77.4793 351.022 77.7232 350.615 77.9671 350.126C78.1297 349.881 78.2923 349.556 78.4549 349.311C78.5362 349.311 79.5118 349.637 79.9996 349.637C80.4061 349.637 80.9753 349.393 81.1379 349.067C81.3818 348.659 81.3005 348.17 80.894 348.007C80.3248 347.763 79.3492 348.252 78.9427 348.741C78.9427 348.741 78.6988 349.067 78.5362 349.23C78.6175 349.148 78.6988 348.985 78.6988 348.904C78.8614 348.659 78.9427 348.415 79.1053 348.17C79.1866 348.007 79.1866 347.926 79.2679 347.763C79.3492 347.6 79.3492 347.518 79.4305 347.355C79.5931 347.03 79.6744 346.704 79.7557 346.378C79.9996 346.459 80.7314 346.867 81.1379 346.867C81.5444 346.867 82.1135 346.785 82.3574 346.459C82.6013 346.133 82.6013 345.644 82.2761 345.318C81.7883 344.993 80.65 345.4 80.2435 345.726C80.2435 345.726 79.9183 346.052 79.7557 346.215C79.837 345.97 79.837 345.807 79.9183 345.563C80.0809 344.911 80.2435 344.341 80.3248 343.689C80.4061 343.526 80.4061 343.281 80.4874 343.118C80.5687 343.118 81.4631 343.607 81.9509 343.689C82.3574 343.689 82.9265 343.607 83.1704 343.281C83.4143 342.955 83.4143 342.467 83.0891 342.141C82.6013 341.815 81.4631 342.222 81.0566 342.548C81.0566 342.548 80.5687 342.956 80.4874 343.118C80.5687 342.711 80.6501 342.304 80.8127 341.896C80.9753 341.326 81.1379 340.756 81.3818 340.267C81.3818 340.267 82.3574 340.755 82.8452 340.837C83.2517 340.837 83.8208 340.755 84.0647 340.43C84.3086 340.104 84.3086 339.615 83.9834 339.289C83.4956 338.963 82.3574 339.37 81.9509 339.696C81.9509 339.696 81.6257 340.022 81.4631 340.185C81.707 339.615 82.0322 339.126 82.3574 338.718C82.52 338.474 82.6826 338.23 82.9265 337.985C83.0891 338.067 83.8208 338.637 84.3086 338.637C84.7151 338.718 85.2842 338.718 85.6094 338.393C85.9346 338.067 85.9346 337.578 85.6094 337.252C85.1216 336.844 84.0647 337.089 83.5769 337.415C83.5769 337.415 83.333 337.659 83.0891 337.741C83.1704 337.659 83.2517 337.496 83.333 337.415C83.6582 337.089 83.9834 336.763 84.2273 336.437C84.3899 336.274 84.5525 336.111 84.6338 336.03C84.8777 336.03 85.772 336.111 86.1785 336.03C86.585 335.867 87.0728 335.622 87.2354 335.215C87.398 334.807 87.1541 334.318 86.7476 334.237C86.0972 334.074 85.2842 334.889 84.959 335.296C84.959 335.378 84.6338 336.03 84.6338 336.03C84.4712 336.111 84.3899 336.274 84.2273 336.437C83.9834 336.681 83.6582 337.007 83.333 337.333C83.0078 337.659 82.6826 338.067 82.3574 338.556C82.0322 339.044 81.707 339.533 81.4631 340.022C81.4631 339.859 81.5444 339.289 81.5444 339.289C81.5444 338.718 81.2192 337.659 80.5687 337.415C80.1622 337.252 79.6744 337.578 79.5931 337.985C79.5118 338.393 79.7557 338.881 80.0809 339.207C80.4061 339.533 81.3005 340.022 81.3818 340.022C81.1379 340.511 80.894 341.081 80.7314 341.652C80.6501 341.978 80.5688 342.304 80.4061 342.63C80.4061 342.467 80.4061 342.304 80.4061 342.304C80.4061 341.733 80.0809 340.674 79.4305 340.43C79.024 340.267 78.5362 340.593 78.4549 341C78.3736 341.407 78.6175 341.896 78.9427 342.222C79.1866 342.548 79.9996 342.956 80.2435 343.037C80.2435 343.2 80.1622 343.281 80.1622 343.444C79.9996 344.096 79.837 344.667 79.6744 345.318C79.5931 345.563 79.5118 345.726 79.5118 345.97C79.5118 345.807 79.5118 345.726 79.5118 345.726C79.5118 345.155 79.1866 344.096 78.5362 343.852C78.1297 343.689 77.6419 344.015 77.5606 344.422C77.4793 344.83 77.7232 345.318 78.0484 345.644C78.2923 345.97 79.024 346.296 79.2679 346.459C79.1866 346.704 79.1053 346.867 79.024 347.111C78.9427 347.274 78.9427 347.356 78.8614 347.518C78.7801 347.681 78.6988 347.763 78.6988 347.926C78.5362 348.17 78.4549 348.415 78.2923 348.659C78.211 348.822 78.1297 348.985 78.0484 349.148C78.1297 348.904 78.211 348.496 78.211 348.496C78.2923 348.089 78.211 347.518 77.9671 347.03C77.9671 346.948 77.9671 346.948 77.9671 346.867C77.9671 346.459 77.5606 346.052 77.1541 346.133C76.5037 346.215 76.0159 347.274 75.9346 347.763C75.9346 347.763 75.9346 348.17 75.8533 348.415C75.8533 348.252 75.8533 348.17 75.772 348.007C75.772 347.763 75.6907 347.437 75.6907 347.193C75.6907 347.03 75.6094 346.867 75.6094 346.785C75.6094 346.622 75.5281 346.459 75.5281 346.378C75.4468 346.052 75.3655 345.726 75.2842 345.318C75.5281 345.318 76.4224 345.155 76.7476 344.993C77.0728 344.748 77.4793 344.422 77.5606 343.933C77.6419 343.526 77.3167 343.037 76.8289 343.037C76.1785 343.037 75.5281 343.933 75.3655 344.504C75.3655 344.504 75.2842 344.911 75.2029 345.156C75.1216 344.911 75.0403 344.748 75.0403 344.504C74.7964 343.933 74.6338 343.281 74.3899 342.711C74.3086 342.548 74.2273 342.304 74.2273 342.141C74.3086 342.141 75.3655 342.059 75.772 341.815C76.0972 341.57 76.5037 341.244 76.585 340.756C76.6663 340.348 76.3411 339.859 75.8533 339.859C75.2029 339.859 74.5525 340.755 74.3899 341.326C74.3899 341.326 74.2273 341.978 74.2273 342.059C74.0647 341.652 73.9021 341.244 73.8208 340.837C73.6582 340.267 73.4956 339.696 73.4143 339.207C73.4143 339.207 74.5525 339.126 74.959 338.881C75.2842 338.637 75.6907 338.311 75.772 337.822C75.8533 337.415 75.5281 336.926 75.0403 336.926C74.3899 336.926 73.7395 337.822 73.5769 338.393C73.5769 338.393 73.4956 338.881 73.4143 339.044C73.333 338.474 73.333 337.904 73.333 337.333C73.333 337.007 73.333 336.681 73.4143 336.437C73.5769 336.437 74.5525 336.437 74.959 336.274C75.3655 336.111 75.772 335.785 75.8533 335.378C75.9346 334.97 75.6907 334.481 75.2842 334.481C74.6338 334.4 73.9021 335.215 73.6582 335.785C73.6582 335.785 73.5769 336.111 73.4956 336.355C73.4956 336.193 73.4956 336.111 73.5769 335.948C73.6582 335.459 73.7395 335.052 73.8208 334.644C73.9021 334.4 73.9021 334.237 73.9834 334.074C74.146 333.993 74.959 333.585 75.2029 333.178C75.4468 332.852 75.6907 332.363 75.6094 331.955C75.5281 331.548 75.0403 331.222 74.6338 331.385C74.0647 331.63 73.7395 332.689 73.7395 333.259C73.7395 333.341 73.8208 334.074 73.9021 334.074C73.8208 334.237 73.8208 334.4 73.7395 334.644C73.6582 335.052 73.5769 335.459 73.4956 335.948C73.4143 336.437 73.333 336.926 73.333 337.496C73.333 338.067 73.333 338.637 73.4143 339.207C73.333 339.044 73.0891 338.556 73.0891 338.556C72.7639 338.067 71.8696 337.333 71.3005 337.496C70.894 337.659 70.65 338.067 70.8127 338.474C70.894 338.963 71.3818 339.207 71.7883 339.37Z" fill="white"/>
<path opacity="0.3" d="M71.7876 336.111C72.1941 336.356 73.3323 336.519 73.3323 336.519C73.3323 336.519 73.1697 335.785 73.1697 335.704C73.0071 335.133 72.3567 334.237 71.7063 334.237C71.2185 334.237 70.9746 334.644 70.9746 335.133C71.0559 335.541 71.4624 335.867 71.7876 336.111Z" fill="white"/>
<path opacity="0.3" d="M82.9267 337.822L83.2519 337.089C83.4145 336.519 83.3332 335.378 82.8454 335.052C82.4388 334.807 81.951 334.97 81.7884 335.378C81.5445 335.785 81.7071 336.274 81.8697 336.681C82.1136 337.089 82.9267 337.822 82.9267 337.822Z" fill="white"/>
<path opacity="0.3" d="M71.7883 339.37C72.2761 339.533 73.2517 339.37 73.333 339.289C73.4143 339.859 73.5769 340.43 73.7395 341C73.8208 341.326 73.9021 341.652 74.0647 341.978C73.9834 341.815 73.9021 341.733 73.9021 341.652C73.5769 341.163 72.6826 340.43 72.1135 340.593C71.707 340.756 71.4631 341.163 71.6257 341.57C71.7883 341.978 72.2761 342.222 72.6826 342.385C73.0891 342.467 73.9834 342.385 74.2273 342.385C74.3086 342.548 74.3086 342.63 74.3899 342.793C74.6338 343.363 74.7964 344.015 75.0403 344.585C75.1216 344.83 75.2029 344.993 75.2029 345.237C75.1216 345.074 75.1216 344.993 75.0403 344.993C74.7151 344.504 73.8208 343.77 73.2517 343.933C72.8452 344.096 72.6013 344.504 72.7639 344.911C72.9265 345.318 73.4143 345.563 73.8208 345.726C74.2273 345.807 75.0403 345.726 75.2842 345.726C75.3655 345.97 75.3655 346.133 75.4468 346.378C75.4468 346.541 75.5281 346.622 75.5281 346.785C75.5281 346.948 75.6094 347.111 75.6094 347.193C75.6094 347.437 75.6907 347.763 75.6907 348.007C75.6907 348.17 75.6907 348.415 75.772 348.578C75.6907 348.333 75.6094 347.926 75.5281 347.926C75.2842 347.437 74.5525 346.541 73.9021 346.622C73.4143 346.704 73.1704 347.111 73.2517 347.518C73.333 347.926 73.8208 348.252 74.146 348.496C74.5525 348.659 75.5281 348.659 75.6907 348.659C75.6907 348.985 75.6907 349.23 75.772 349.556C75.772 350.289 75.8533 350.941 75.8533 351.511H76.2598C76.2598 351.022 76.2598 350.289 76.1785 349.556C76.1785 349.23 76.0972 348.904 76.0972 348.578C76.1785 348.578 76.585 348.415 76.9915 348.252C77.2354 348.659 78.0484 349.148 78.1297 349.23C77.9671 349.474 77.8045 349.718 77.7232 349.963C77.398 350.533 77.0728 351.022 76.8289 351.43H77.2354C77.4793 351.022 77.7232 350.615 77.9671 350.126C78.1297 349.881 78.2923 349.556 78.4549 349.311C78.5362 349.311 79.5118 349.637 79.9996 349.637C80.4061 349.637 80.9753 349.393 81.1379 349.067C81.3818 348.659 81.3005 348.17 80.894 348.007C80.3248 347.763 79.3492 348.252 78.9427 348.741C78.9427 348.741 78.6988 349.067 78.5362 349.23C78.6175 349.148 78.6988 348.985 78.6988 348.904C78.8614 348.659 78.9427 348.415 79.1053 348.17C79.1866 348.007 79.1866 347.926 79.2679 347.763C79.3492 347.6 79.3492 347.518 79.4305 347.355C79.5931 347.03 79.6744 346.704 79.7557 346.378C79.9996 346.459 80.7314 346.867 81.1379 346.867C81.5444 346.867 82.1135 346.785 82.3574 346.459C82.6013 346.133 82.6013 345.644 82.2761 345.318C81.7883 344.993 80.65 345.4 80.2435 345.726C80.2435 345.726 79.9183 346.052 79.7557 346.215C79.837 345.97 79.837 345.807 79.9183 345.563C80.0809 344.911 80.2435 344.341 80.3248 343.689C80.4061 343.526 80.4061 343.281 80.4874 343.118C80.5687 343.118 81.4631 343.607 81.9509 343.689C82.3574 343.689 82.9265 343.607 83.1704 343.281C83.4143 342.955 83.4143 342.467 83.0891 342.141C82.6013 341.815 81.4631 342.222 81.0566 342.548C81.0566 342.548 80.5687 342.956 80.4874 343.118C80.5687 342.711 80.6501 342.304 80.8127 341.896C80.9753 341.326 81.1379 340.756 81.3818 340.267C81.3818 340.267 82.3574 340.755 82.8452 340.837C83.2517 340.837 83.8208 340.755 84.0647 340.43C84.3086 340.104 84.3086 339.615 83.9834 339.289C83.4956 338.963 82.3574 339.37 81.9509 339.696C81.9509 339.696 81.6257 340.022 81.4631 340.185C81.707 339.615 82.0322 339.126 82.3574 338.718C82.52 338.474 82.6826 338.23 82.9265 337.985C83.0891 338.067 83.8208 338.637 84.3086 338.637C84.7151 338.718 85.2842 338.718 85.6094 338.393C85.9346 338.067 85.9346 337.578 85.6094 337.252C85.1216 336.844 84.0647 337.089 83.5769 337.415C83.5769 337.415 83.333 337.659 83.0891 337.741C83.1704 337.659 83.2517 337.496 83.333 337.415C83.6582 337.089 83.9834 336.763 84.2273 336.437C84.3899 336.274 84.5525 336.111 84.6338 336.03C84.8777 336.03 85.772 336.111 86.1785 336.03C86.585 335.867 87.0728 335.622 87.2354 335.215C87.398 334.807 87.1541 334.318 86.7476 334.237C86.0972 334.074 85.2842 334.889 84.959 335.296C84.959 335.378 84.6338 336.03 84.6338 336.03C84.4712 336.111 84.3899 336.274 84.2273 336.437C83.9834 336.681 83.6582 337.007 83.333 337.333C83.0078 337.659 82.6826 338.067 82.3574 338.556C82.0322 339.044 81.707 339.533 81.4631 340.022C81.4631 339.859 81.5444 339.289 81.5444 339.289C81.5444 338.718 81.2192 337.659 80.5687 337.415C80.1622 337.252 79.6744 337.578 79.5931 337.985C79.5118 338.393 79.7557 338.881 80.0809 339.207C80.4061 339.533 81.3005 340.022 81.3818 340.022C81.1379 340.511 80.894 341.081 80.7314 341.652C80.6501 341.978 80.5688 342.304 80.4061 342.63C80.4061 342.467 80.4061 342.304 80.4061 342.304C80.4061 341.733 80.0809 340.674 79.4305 340.43C79.024 340.267 78.5362 340.593 78.4549 341C78.3736 341.407 78.6175 341.896 78.9427 342.222C79.1866 342.548 79.9996 342.956 80.2435 343.037C80.2435 343.2 80.1622 343.281 80.1622 343.444C79.9996 344.096 79.837 344.667 79.6744 345.318C79.5931 345.563 79.5118 345.726 79.5118 345.97C79.5118 345.807 79.5118 345.726 79.5118 345.726C79.5118 345.155 79.1866 344.096 78.5362 343.852C78.1297 343.689 77.6419 344.015 77.5606 344.422C77.4793 344.83 77.7232 345.318 78.0484 345.644C78.2923 345.97 79.024 346.296 79.2679 346.459C79.1866 346.704 79.1053 346.867 79.024 347.111C78.9427 347.274 78.9427 347.356 78.8614 347.518C78.7801 347.681 78.6988 347.763 78.6988 347.926C78.5362 348.17 78.4549 348.415 78.2923 348.659C78.211 348.822 78.1297 348.985 78.0484 349.148C78.1297 348.904 78.211 348.496 78.211 348.496C78.2923 348.089 78.211 347.518 77.9671 347.03C77.9671 346.948 77.9671 346.948 77.9671 346.867C77.9671 346.459 77.5606 346.052 77.1541 346.133C76.5037 346.215 76.0159 347.274 75.9346 347.763C75.9346 347.763 75.9346 348.17 75.8533 348.415C75.8533 348.252 75.8533 348.17 75.772 348.007C75.772 347.763 75.6907 347.437 75.6907 347.193C75.6907 347.03 75.6094 346.867 75.6094 346.785C75.6094 346.622 75.5281 346.459 75.5281 346.378C75.4468 346.052 75.3655 345.726 75.2842 345.318C75.5281 345.318 76.4224 345.155 76.7476 344.993C77.0728 344.748 77.4793 344.422 77.5606 343.933C77.6419 343.526 77.3167 343.037 76.8289 343.037C76.1785 343.037 75.5281 343.933 75.3655 344.504C75.3655 344.504 75.2842 344.911 75.2029 345.156C75.1216 344.911 75.0403 344.748 75.0403 344.504C74.7964 343.933 74.6338 343.281 74.3899 342.711C74.3086 342.548 74.2273 342.304 74.2273 342.141C74.3086 342.141 75.3655 342.059 75.772 341.815C76.0972 341.57 76.5037 341.244 76.585 340.756C76.6663 340.348 76.3411 339.859 75.8533 339.859C75.2029 339.859 74.5525 340.755 74.3899 341.326C74.3899 341.326 74.2273 341.978 74.2273 342.059C74.0647 341.652 73.9021 341.244 73.8208 340.837C73.6582 340.267 73.4956 339.696 73.4143 339.207C73.4143 339.207 74.5525 339.126 74.959 338.881C75.2842 338.637 75.6907 338.311 75.772 337.822C75.8533 337.415 75.5281 336.926 75.0403 336.926C74.3899 336.926 73.7395 337.822 73.5769 338.393C73.5769 338.393 73.4956 338.881 73.4143 339.044C73.333 338.474 73.333 337.904 73.333 337.333C73.333 337.007 73.333 336.681 73.4143 336.437C73.5769 336.437 74.5525 336.437 74.959 336.274C75.3655 336.111 75.772 335.785 75.8533 335.378C75.9346 334.97 75.6907 334.481 75.2842 334.481C74.6338 334.4 73.9021 335.215 73.6582 335.785C73.6582 335.785 73.5769 336.111 73.4956 336.355C73.4956 336.193 73.4956 336.111 73.5769 335.948C73.6582 335.459 73.7395 335.052 73.8208 334.644C73.9021 334.4 73.9021 334.237 73.9834 334.074C74.146 333.993 74.959 333.585 75.2029 333.178C75.4468 332.852 75.6907 332.363 75.6094 331.955C75.5281 331.548 75.0403 331.222 74.6338 331.385C74.0647 331.63 73.7395 332.689 73.7395 333.259C73.7395 333.341 73.8208 334.074 73.9021 334.074C73.8208 334.237 73.8208 334.4 73.7395 334.644C73.6582 335.052 73.5769 335.459 73.4956 335.948C73.4143 336.437 73.333 336.926 73.333 337.496C73.333 338.067 73.333 338.637 73.4143 339.207C73.333 339.044 73.0891 338.556 73.0891 338.556C72.7639 338.067 71.8696 337.333 71.3005 337.496C70.894 337.659 70.65 338.067 70.8127 338.474C70.894 338.963 71.3818 339.207 71.7883 339.37Z" fill="white"/>
<path d="M369.838 351.593H389.594" stroke="#454545" stroke-miterlimit="10" stroke-linecap="round" stroke-linejoin="round"/>
<path d="M2.27734 351.593H362.033" stroke="#454545" stroke-miterlimit="10" stroke-linecap="round" stroke-linejoin="round"/>
<g opacity="0.5">
<path d="M0.976562 199.956H13.4969V141.533H30.4075V114.319H62.44V168.341H70.6514V63.4741H105.855V109.511H127.806V69.7482H165.286V159.215H216.505V105.763H250.001V159.704H270.489V165.978H283.334V124.259H291.952V165.978H297.968V121.978H307.562V164.022H319.432V93.2149H340.895V139.659H353.253V70.2371H383.416V210.467" stroke="white" stroke-miterlimit="10" stroke-linecap="round"/>
<path d="M22.1156 151.148H18.457V155.956H22.1156V151.148Z" stroke="white" stroke-miterlimit="10" stroke-linecap="round"/>
<path d="M28.1312 151.148H24.4727V155.956H28.1312V151.148Z" stroke="white" stroke-miterlimit="10" stroke-linecap="round"/>
<path d="M34.0667 151.148H30.4082V155.956H34.0667V151.148Z" stroke="white" stroke-miterlimit="10" stroke-linecap="round"/>
<path d="M40.0023 151.148H36.3438V155.956H40.0023V151.148Z" stroke="white" stroke-miterlimit="10" stroke-linecap="round"/>
<path d="M45.9359 151.148H42.2773V155.956H45.9359V151.148Z" stroke="white" stroke-miterlimit="10" stroke-linecap="round"/>
<path d="M51.8714 151.148H48.2129V155.956H51.8714V151.148Z" stroke="white" stroke-miterlimit="10" stroke-linecap="round"/>
<path d="M79.7562 115.704H76.0977V120.511H79.7562V115.704Z" stroke="white" stroke-miterlimit="10" stroke-linecap="round"/>
<path d="M85.6917 115.704H82.0332V120.511H85.6917V115.704Z" stroke="white" stroke-miterlimit="10" stroke-linecap="round"/>
<path d="M91.7074 115.704H88.0488V120.511H91.7074V115.704Z" stroke="white" stroke-miterlimit="10" stroke-linecap="round"/>
<path d="M97.6429 115.704H93.9844V120.511H97.6429V115.704Z" stroke="white" stroke-miterlimit="10" stroke-linecap="round"/>
<path d="M79.7562 107.067H76.0977V111.874H79.7562V107.067Z" stroke="white" stroke-miterlimit="10" stroke-linecap="round"/>
<path d="M85.6917 107.067H82.0332V111.874H85.6917V107.067Z" stroke="white" stroke-miterlimit="10" stroke-linecap="round"/>
<path d="M91.7074 107.067H88.0488V111.874H91.7074V107.067Z" stroke="white" stroke-miterlimit="10" stroke-linecap="round"/>
<path d="M97.6429 107.067H93.9844V111.874H97.6429V107.067Z" stroke="white" stroke-miterlimit="10" stroke-linecap="round"/>
<path d="M79.7562 98.5111H76.0977V103.319H79.7562V98.5111Z" stroke="white" stroke-miterlimit="10" stroke-linecap="round"/>
<path d="M85.6917 98.5111H82.0332V103.319H85.6917V98.5111Z" stroke="white" stroke-miterlimit="10" stroke-linecap="round"/>
<path d="M91.7074 98.5111H88.0488V103.319H91.7074V98.5111Z" stroke="white" stroke-miterlimit="10" stroke-linecap="round"/>
<path d="M97.6429 98.5111H93.9844V103.319H97.6429V98.5111Z" stroke="white" stroke-miterlimit="10" stroke-linecap="round"/>
<path d="M79.7562 89.8741H76.0977V94.6815H79.7562V89.8741Z" stroke="white" stroke-miterlimit="10" stroke-linecap="round"/>
<path d="M85.6917 89.8741H82.0332V94.6815H85.6917V89.8741Z" stroke="white" stroke-miterlimit="10" stroke-linecap="round"/>
<path d="M91.7074 89.8741H88.0488V94.6815H91.7074V89.8741Z" stroke="white" stroke-miterlimit="10" stroke-linecap="round"/>
<path d="M97.6429 89.8741H93.9844V94.6815H97.6429V89.8741Z" stroke="white" stroke-miterlimit="10" stroke-linecap="round"/>
<path d="M79.7562 81.2371H76.0977V86.0445H79.7562V81.2371Z" stroke="white" stroke-miterlimit="10" stroke-linecap="round"/>
<path d="M85.6917 81.2371H82.0332V86.0445H85.6917V81.2371Z" stroke="white" stroke-miterlimit="10" stroke-linecap="round"/>
<path d="M91.7074 81.2371H88.0488V86.0445H91.7074V81.2371Z" stroke="white" stroke-miterlimit="10" stroke-linecap="round"/>
<path d="M97.6429 81.2371H93.9844V86.0445H97.6429V81.2371Z" stroke="white" stroke-miterlimit="10" stroke-linecap="round"/>
<path d="M103.577 115.704H99.918V120.511H103.577V115.704Z" stroke="white" stroke-miterlimit="10" stroke-linecap="round"/>
<path d="M109.512 115.704H105.854V120.511H109.512V115.704Z" stroke="white" stroke-miterlimit="10" stroke-linecap="round"/>
<path d="M79.7562 125.319H76.0977V130.126H79.7562V125.319Z" stroke="white" stroke-miterlimit="10" stroke-linecap="round"/>
<path d="M85.6917 125.319H82.0332V130.126H85.6917V125.319Z" stroke="white" stroke-miterlimit="10" stroke-linecap="round"/>
<path d="M91.7074 125.319H88.0488V130.126H91.7074V125.319Z" stroke="white" stroke-miterlimit="10" stroke-linecap="round"/>
<path d="M97.6429 125.319H93.9844V130.126H97.6429V125.319Z" stroke="white" stroke-miterlimit="10" stroke-linecap="round"/>
<path d="M103.577 125.319H99.918V130.126H103.577V125.319Z" stroke="white" stroke-miterlimit="10" stroke-linecap="round"/>
<path d="M109.512 125.319H105.854V130.126H109.512V125.319Z" stroke="white" stroke-miterlimit="10" stroke-linecap="round"/>
<path d="M22.1156 161.17H18.457V165.978H22.1156V161.17Z" stroke="white" stroke-miterlimit="10" stroke-linecap="round"/>
<path d="M28.1312 161.17H24.4727V165.978H28.1312V161.17Z" stroke="white" stroke-miterlimit="10" stroke-linecap="round"/>
<path d="M34.0667 161.17H30.4082V165.978H34.0667V161.17Z" stroke="white" stroke-miterlimit="10" stroke-linecap="round"/>
<path d="M40.0023 161.17H36.3438V165.978H40.0023V161.17Z" stroke="white" stroke-miterlimit="10" stroke-linecap="round"/>
<path d="M45.9359 161.17H42.2773V165.978H45.9359V161.17Z" stroke="white" stroke-miterlimit="10" stroke-linecap="round"/>
<path d="M51.8714 161.17H48.2129V165.978H51.8714V161.17Z" stroke="white" stroke-miterlimit="10" stroke-linecap="round"/>
<path d="M22.1156 171.193H18.457V176H22.1156V171.193Z" stroke="white" stroke-miterlimit="10" stroke-linecap="round"/>
<path d="M28.1312 171.193H24.4727V176H28.1312V171.193Z" stroke="white" stroke-miterlimit="10" stroke-linecap="round"/>
<path d="M34.0667 171.193H30.4082V176H34.0667V171.193Z" stroke="white" stroke-miterlimit="10" stroke-linecap="round"/>
<path d="M40.0023 171.193H36.3438V176H40.0023V171.193Z" stroke="white" stroke-miterlimit="10" stroke-linecap="round"/>
<path d="M45.9359 171.193H42.2773V176H45.9359V171.193Z" stroke="white" stroke-miterlimit="10" stroke-linecap="round"/>
<path d="M51.8714 171.193H48.2129V176H51.8714V171.193Z" stroke="white" stroke-miterlimit="10" stroke-linecap="round"/>
<path d="M22.1156 181.296H18.457V186.104H22.1156V181.296Z" stroke="white" stroke-miterlimit="10" stroke-linecap="round"/>
<path d="M28.1312 181.296H24.4727V186.104H28.1312V181.296Z" stroke="white" stroke-miterlimit="10" stroke-linecap="round"/>
<path d="M34.0667 181.296H30.4082V186.104H34.0667V181.296Z" stroke="white" stroke-miterlimit="10" stroke-linecap="round"/>
<path d="M40.0023 181.296H36.3438V186.104H40.0023V181.296Z" stroke="white" stroke-miterlimit="10" stroke-linecap="round"/>
<path d="M45.9359 181.296H42.2773V186.104H45.9359V181.296Z" stroke="white" stroke-miterlimit="10" stroke-linecap="round"/>
<path d="M51.8714 181.296H48.2129V186.104H51.8714V181.296Z" stroke="white" stroke-miterlimit="10" stroke-linecap="round"/>
<path d="M22.1156 191.319H18.457V196.126H22.1156V191.319Z" stroke="white" stroke-miterlimit="10" stroke-linecap="round"/>
<path d="M28.1312 191.319H24.4727V196.126H28.1312V191.319Z" stroke="white" stroke-miterlimit="10" stroke-linecap="round"/>
<path d="M34.0667 191.319H30.4082V196.126H34.0667V191.319Z" stroke="white" stroke-miterlimit="10" stroke-linecap="round"/>
<path d="M40.0023 191.319H36.3438V196.126H40.0023V191.319Z" stroke="white" stroke-miterlimit="10" stroke-linecap="round"/>
<path d="M45.9359 191.319H42.2773V196.126H45.9359V191.319Z" stroke="white" stroke-miterlimit="10" stroke-linecap="round"/>
<path d="M51.8714 191.319H48.2129V196.126H51.8714V191.319Z" stroke="white" stroke-miterlimit="10" stroke-linecap="round"/>
<path d="M368.375 80.3408H364.717V85.1482H368.375V80.3408Z" stroke="white" stroke-miterlimit="10" stroke-linecap="round"/>
<path d="M374.309 80.3408H370.65V85.1482H374.309V80.3408Z" stroke="white" stroke-miterlimit="10" stroke-linecap="round"/>
<path d="M380.244 80.3408H376.586V85.1482H380.244V80.3408Z" stroke="white" stroke-miterlimit="10" stroke-linecap="round"/>
<path d="M368.375 92.2371H364.717V97.0445H368.375V92.2371Z" stroke="white" stroke-miterlimit="10" stroke-linecap="round"/>
<path d="M374.309 92.2371H370.65V97.0445H374.309V92.2371Z" stroke="white" stroke-miterlimit="10" stroke-linecap="round"/>
<path d="M380.244 92.2371H376.586V97.0445H380.244V92.2371Z" stroke="white" stroke-miterlimit="10" stroke-linecap="round"/>
<path d="M368.375 104.215H364.717V109.022H368.375V104.215Z" stroke="white" stroke-miterlimit="10" stroke-linecap="round"/>
<path d="M374.309 104.215H370.65V109.022H374.309V104.215Z" stroke="white" stroke-miterlimit="10" stroke-linecap="round"/>
<path d="M380.244 104.215H376.586V109.022H380.244V104.215Z" stroke="white" stroke-miterlimit="10" stroke-linecap="round"/>
<path d="M368.375 116.193H364.717V121H368.375V116.193Z" stroke="white" stroke-miterlimit="10" stroke-linecap="round"/>
<path d="M374.309 116.193H370.65V121H374.309V116.193Z" stroke="white" stroke-miterlimit="10" stroke-linecap="round"/>
<path d="M380.244 116.193H376.586V121H380.244V116.193Z" stroke="white" stroke-miterlimit="10" stroke-linecap="round"/>
<path d="M368.375 128.17H364.717V132.978H368.375V128.17Z" stroke="white" stroke-miterlimit="10" stroke-linecap="round"/>
<path d="M374.309 128.17H370.65V132.978H374.309V128.17Z" stroke="white" stroke-miterlimit="10" stroke-linecap="round"/>
<path d="M380.244 128.17H376.586V132.978H380.244V128.17Z" stroke="white" stroke-miterlimit="10" stroke-linecap="round"/>
<path d="M368.375 140.148H364.717V144.956H368.375V140.148Z" stroke="white" stroke-miterlimit="10" stroke-linecap="round"/>
<path d="M374.309 140.148H370.65V144.956H374.309V140.148Z" stroke="white" stroke-miterlimit="10" stroke-linecap="round"/>
<path d="M380.244 140.148H376.586V144.956H380.244V140.148Z" stroke="white" stroke-miterlimit="10" stroke-linecap="round"/>
<path d="M368.375 152.044H364.717V156.852H368.375V152.044Z" stroke="white" stroke-miterlimit="10" stroke-linecap="round"/>
<path d="M374.309 152.044H370.65V156.852H374.309V152.044Z" stroke="white" stroke-miterlimit="10" stroke-linecap="round"/>
<path d="M380.244 152.044H376.586V156.852H380.244V152.044Z" stroke="white" stroke-miterlimit="10" stroke-linecap="round"/>
<path d="M368.375 164.022H364.717V168.83H368.375V164.022Z" stroke="white" stroke-miterlimit="10" stroke-linecap="round"/>
<path d="M374.309 164.022H370.65V168.83H374.309V164.022Z" stroke="white" stroke-miterlimit="10" stroke-linecap="round"/>
<path d="M380.244 164.022H376.586V168.83H380.244V164.022Z" stroke="white" stroke-miterlimit="10" stroke-linecap="round"/>
<path d="M368.375 176H364.717V180.807H368.375V176Z" stroke="white" stroke-miterlimit="10" stroke-linecap="round"/>
<path d="M374.309 176H370.65V180.807H374.309V176Z" stroke="white" stroke-miterlimit="10" stroke-linecap="round"/>
<path d="M329.432 104.215H325.773V109.022H329.432V104.215Z" stroke="white" stroke-miterlimit="10" stroke-linecap="round"/>
<path d="M335.368 104.215H331.709V109.022H335.368V104.215Z" stroke="white" stroke-miterlimit="10" stroke-linecap="round"/>
<path d="M329.432 116.193H325.773V121H329.432V116.193Z" stroke="white" stroke-miterlimit="10" stroke-linecap="round"/>
<path d="M335.368 116.193H331.709V121H335.368V116.193Z" stroke="white" stroke-miterlimit="10" stroke-linecap="round"/>
<path d="M329.432 128.17H325.773V132.978H329.432V128.17Z" stroke="white" stroke-miterlimit="10" stroke-linecap="round"/>
<path d="M335.368 128.17H331.709V132.978H335.368V128.17Z" stroke="white" stroke-miterlimit="10" stroke-linecap="round"/>
<path d="M329.432 140.148H325.773V144.956H329.432V140.148Z" stroke="white" stroke-miterlimit="10" stroke-linecap="round"/>
<path d="M335.368 140.148H331.709V144.956H335.368V140.148Z" stroke="white" stroke-miterlimit="10" stroke-linecap="round"/>
<path d="M329.432 152.044H325.773V156.852H329.432V152.044Z" stroke="white" stroke-miterlimit="10" stroke-linecap="round"/>
<path d="M335.368 152.044H331.709V156.852H335.368V152.044Z" stroke="white" stroke-miterlimit="10" stroke-linecap="round"/>
<path d="M329.432 164.022H325.773V168.83H329.432V164.022Z" stroke="white" stroke-miterlimit="10" stroke-linecap="round"/>
<path d="M335.368 164.022H331.709V168.83H335.368V164.022Z" stroke="white" stroke-miterlimit="10" stroke-linecap="round"/>
<path d="M329.432 176H325.773V180.807H329.432V176Z" stroke="white" stroke-miterlimit="10" stroke-linecap="round"/>
<path d="M335.368 176H331.709V180.807H335.368V176Z" stroke="white" stroke-miterlimit="10" stroke-linecap="round"/>
<path d="M224.635 116.193H220.977V121H224.635V116.193Z" stroke="white" stroke-miterlimit="10" stroke-linecap="round"/>
<path d="M230.571 116.193H226.912V121H230.571V116.193Z" stroke="white" stroke-miterlimit="10" stroke-linecap="round"/>
<path d="M224.635 128.17H220.977V132.978H224.635V128.17Z" stroke="white" stroke-miterlimit="10" stroke-linecap="round"/>
<path d="M230.571 128.17H226.912V132.978H230.571V128.17Z" stroke="white" stroke-miterlimit="10" stroke-linecap="round"/>
<path d="M224.635 140.148H220.977V144.956H224.635V140.148Z" stroke="white" stroke-miterlimit="10" stroke-linecap="round"/>
<path d="M230.571 140.148H226.912V144.956H230.571V140.148Z" stroke="white" stroke-miterlimit="10" stroke-linecap="round"/>
<path d="M224.635 152.044H220.977V156.852H224.635V152.044Z" stroke="white" stroke-miterlimit="10" stroke-linecap="round"/>
<path d="M230.571 152.044H226.912V156.852H230.571V152.044Z" stroke="white" stroke-miterlimit="10" stroke-linecap="round"/>
<path d="M224.635 164.022H220.977V168.83H224.635V164.022Z" stroke="white" stroke-miterlimit="10" stroke-linecap="round"/>
<path d="M230.571 164.022H226.912V168.83H230.571V164.022Z" stroke="white" stroke-miterlimit="10" stroke-linecap="round"/>
<path d="M224.635 176H220.977V180.807H224.635V176Z" stroke="white" stroke-miterlimit="10" stroke-linecap="round"/>
<path d="M230.571 176H226.912V180.807H230.571V176Z" stroke="white" stroke-miterlimit="10" stroke-linecap="round"/>
<path d="M238.131 116.193H234.473V121H238.131V116.193Z" stroke="white" stroke-miterlimit="10" stroke-linecap="round"/>
<path d="M244.067 116.193H240.408V121H244.067V116.193Z" stroke="white" stroke-miterlimit="10" stroke-linecap="round"/>
<path d="M238.131 128.17H234.473V132.978H238.131V128.17Z" stroke="white" stroke-miterlimit="10" stroke-linecap="round"/>
<path d="M244.067 128.17H240.408V132.978H244.067V128.17Z" stroke="white" stroke-miterlimit="10" stroke-linecap="round"/>
<path d="M238.131 140.148H234.473V144.956H238.131V140.148Z" stroke="white" stroke-miterlimit="10" stroke-linecap="round"/>
<path d="M244.067 140.148H240.408V144.956H244.067V140.148Z" stroke="white" stroke-miterlimit="10" stroke-linecap="round"/>
<path d="M238.131 152.044H234.473V156.852H238.131V152.044Z" stroke="white" stroke-miterlimit="10" stroke-linecap="round"/>
<path d="M244.067 152.044H240.408V156.852H244.067V152.044Z" stroke="white" stroke-miterlimit="10" stroke-linecap="round"/>
<path d="M238.131 164.022H234.473V168.83H238.131V164.022Z" stroke="white" stroke-miterlimit="10" stroke-linecap="round"/>
<path d="M244.067 164.022H240.408V168.83H244.067V164.022Z" stroke="white" stroke-miterlimit="10" stroke-linecap="round"/>
<path d="M238.131 176H234.473V180.807H238.131V176Z" stroke="white" stroke-miterlimit="10" stroke-linecap="round"/>
<path d="M244.067 176H240.408V180.807H244.067V176Z" stroke="white" stroke-miterlimit="10" stroke-linecap="round"/>
<path d="M144.635 80.3408H140.977V85.1482H144.635V80.3408Z" stroke="white" stroke-miterlimit="10" stroke-linecap="round"/>
<path d="M150.571 80.3408H146.912V85.1482H150.571V80.3408Z" stroke="white" stroke-miterlimit="10" stroke-linecap="round"/>
<path d="M144.635 92.2371H140.977V97.0445H144.635V92.2371Z" stroke="white" stroke-miterlimit="10" stroke-linecap="round"/>
<path d="M150.571 92.2371H146.912V97.0445H150.571V92.2371Z" stroke="white" stroke-miterlimit="10" stroke-linecap="round"/>
<path d="M144.635 104.215H140.977V109.022H144.635V104.215Z" stroke="white" stroke-miterlimit="10" stroke-linecap="round"/>
<path d="M150.571 104.215H146.912V109.022H150.571V104.215Z" stroke="white" stroke-miterlimit="10" stroke-linecap="round"/>
<path d="M144.635 116.193H140.977V121H144.635V116.193Z" stroke="white" stroke-miterlimit="10" stroke-linecap="round"/>
<path d="M150.571 116.193H146.912V121H150.571V116.193Z" stroke="white" stroke-miterlimit="10" stroke-linecap="round"/>
<path d="M144.635 128.17H140.977V132.978H144.635V128.17Z" stroke="white" stroke-miterlimit="10" stroke-linecap="round"/>
<path d="M150.571 128.17H146.912V132.978H150.571V128.17Z" stroke="white" stroke-miterlimit="10" stroke-linecap="round"/>
<path d="M144.635 140.148H140.977V144.956H144.635V140.148Z" stroke="white" stroke-miterlimit="10" stroke-linecap="round"/>
<path d="M150.571 140.148H146.912V144.956H150.571V140.148Z" stroke="white" stroke-miterlimit="10" stroke-linecap="round"/>
<path d="M144.635 152.044H140.977V156.852H144.635V152.044Z" stroke="white" stroke-miterlimit="10" stroke-linecap="round"/>
<path d="M150.571 152.044H146.912V156.852H150.571V152.044Z" stroke="white" stroke-miterlimit="10" stroke-linecap="round"/>
<path d="M144.635 164.022H140.977V168.83H144.635V164.022Z" stroke="white" stroke-miterlimit="10" stroke-linecap="round"/>
<path d="M150.571 164.022H146.912V168.83H150.571V164.022Z" stroke="white" stroke-miterlimit="10" stroke-linecap="round"/>
<path d="M144.635 176H140.977V180.807H144.635V176Z" stroke="white" stroke-miterlimit="10" stroke-linecap="round"/>
<path d="M150.571 176H146.912V180.807H150.571V176Z" stroke="white" stroke-miterlimit="10" stroke-linecap="round"/>
<path d="M380.244 176H376.586V180.807H380.244V176Z" stroke="white" stroke-miterlimit="10" stroke-linecap="round"/>
</g>
<path d="M317.642 271.089C317.642 297.896 302.683 299.933 284.146 299.933C265.61 299.933 250.65 297.896 250.65 271.089C250.65 244.281 265.61 188.222 284.146 188.222C302.683 188.222 317.642 244.281 317.642 271.089Z" fill="#D95639"/>
<path opacity="0.58" d="M317.642 271.089C317.642 297.896 302.683 299.933 284.146 299.933C265.61 299.933 250.65 297.896 250.65 271.089C250.65 244.281 265.61 188.222 284.146 188.222C302.683 188.222 317.642 244.281 317.642 271.089Z" fill="white"/>
<path d="M295.447 283.23L289.918 283.637L304.39 273.859L294.064 279.074L295.447 275L290.731 280.785L285.203 283.556L284.796 264.326L287.723 257.156L284.715 261.23L284.471 250.067L293.658 237.763L284.39 247.215L283.821 222.689L283.333 238.415L277.479 231.815L283.251 241.43L282.438 266.363L277.316 262.941L272.682 254.711L274.552 261.148L265.365 255.118L282.357 269.785L279.755 351.593H286.747L285.284 286.733L286.91 285.674L295.447 283.23Z" fill="white"/>
<path d="M388.05 241.185C388.05 277.933 367.48 280.704 342.115 280.704C316.749 280.704 296.18 277.933 296.18 241.185C296.18 204.437 316.749 127.6 342.115 127.6C367.48 127.6 388.05 204.437 388.05 241.185Z" fill="#D95639"/>
<path opacity="0.31" d="M388.05 241.185C388.05 277.933 367.48 280.704 342.115 280.704C316.749 280.704 296.18 277.933 296.18 241.185C296.18 204.437 316.749 127.6 342.115 127.6C367.48 127.6 388.05 204.437 388.05 241.185Z" fill="white"/>
<path d="M357.643 257.889L350 258.378L369.838 245.015L355.691 252.185L357.643 246.563L351.139 254.467L343.578 258.296L343.008 231.896L346.992 222.119L342.846 227.659L342.521 212.341L355.122 195.556L342.439 208.511L341.626 174.859L340.976 196.37L332.927 187.407L340.895 200.526L339.756 234.667L332.765 230.104L326.342 218.696L328.943 227.578L316.342 219.348L339.594 239.474L336.098 351.593H345.691L343.659 262.696L345.854 261.23L357.643 257.889Z" fill="white"/>
<path d="M70.082 273.859C70.082 299.77 84.5536 301.644 102.44 301.644C120.326 301.644 134.797 299.689 134.797 273.859C134.797 247.948 120.326 193.926 102.44 193.926C84.5536 193.926 70.082 248.03 70.082 273.859Z" fill="#D95639"/>
<path opacity="0.58" d="M70.082 273.859C70.082 299.77 84.5536 301.644 102.44 301.644C120.326 301.644 134.797 299.689 134.797 273.859C134.797 247.948 120.326 193.926 102.44 193.926C84.5536 193.926 70.082 248.03 70.082 273.859Z" fill="white"/>
<path d="M91.4636 285.593L96.8294 286L82.8457 276.548L92.8457 281.6L91.4636 277.689L96.0164 283.23L101.301 285.918L101.789 267.341L98.9433 260.496L101.87 264.326L102.114 253.57L93.2522 241.755L102.114 250.881L102.683 227.17L103.171 242.326L108.862 235.97L103.252 245.259L103.984 269.296L108.943 266.037L113.496 258.052L111.626 264.326L120.488 258.459L104.147 272.637L106.586 351.593H99.8376L101.301 289.015L99.675 287.955L91.4636 285.593Z" fill="white"/>
<path d="M0 241.593C0 278.259 20.4878 281.03 45.7724 281.03C71.0569 281.03 91.5447 278.259 91.5447 241.593C91.5447 204.926 71.0569 128.415 45.7724 128.415C20.4878 128.333 0 204.926 0 241.593Z" fill="#D95639"/>
<path opacity="0.31" d="M0 241.593C0 278.259 20.4878 281.03 45.7724 281.03C71.0569 281.03 91.5447 278.259 91.5447 241.593C91.5447 204.926 71.0569 128.415 45.7724 128.415C20.4878 128.333 0 204.926 0 241.593Z" fill="white"/>
<path d="M30.326 258.215L37.887 258.704L18.1309 245.422L32.2772 252.511L30.326 246.97L36.7487 254.793L44.3097 258.622L44.8788 232.304L40.8951 222.607L44.9601 228.067L45.3666 212.83L32.765 196.045L45.4479 209L46.1796 175.43L46.83 196.941L54.8788 187.896L46.9926 201.015L48.0496 235.074L55.0414 230.511L61.4642 219.185L58.8626 227.985L71.4642 219.756L48.2122 239.882L51.7081 351.593H42.1959L44.2284 263.022L41.952 261.474L30.326 258.215Z" fill="white"/>
<path d="M206.342 158.4C206.423 158.482 206.505 158.563 206.586 158.645C208.049 159.948 220.407 171.111 226.342 175.43C232.602 179.993 237.643 183.741 235.936 189.037C234.147 194.333 224.147 214.215 222.846 216.496C221.627 218.778 216.342 214.704 215.773 212.993C215.285 211.2 212.765 203.948 214.228 200.363C215.285 197.919 216.911 193.6 217.887 191.237C218.293 190.259 217.887 189.119 216.992 188.548L208.862 183.17C208.456 182.845 208.131 182.437 207.968 181.948C207.318 179.911 205.61 174.289 204.472 168.83C202.927 162.148 201.464 152.126 206.342 158.4Z" fill="#D95639" stroke="#263238" stroke-miterlimit="10" stroke-linecap="round" stroke-linejoin="round"/>
<path d="M226.83 189.445C227.399 189.363 228.05 189.282 228.619 189.119" stroke="#263238" stroke-miterlimit="10" stroke-linecap="round" stroke-linejoin="round"/>
<path d="M218.863 189.037C218.863 189.037 221.546 189.689 224.88 189.526" stroke="#263238" stroke-miterlimit="10" stroke-linecap="round" stroke-linejoin="round"/>
<path d="M219.756 191.237C219.756 191.237 222.52 193.111 224.634 193.356" stroke="#263238" stroke-miterlimit="10" stroke-linecap="round" stroke-linejoin="round"/>
<path d="M232.115 280.541C232.115 280.541 236.099 278.015 245.692 279.563C255.286 281.111 266.343 283.311 274.391 283.311C282.44 283.311 286.993 284.044 288.456 283.311C290.001 282.578 296.017 274.267 296.993 275.733C297.969 277.281 303.253 287.059 304.798 294.148C306.343 301.237 308.05 304.741 305.286 304.985C304.147 305.067 302.115 301.319 300.001 298.874C296.993 295.452 293.904 292.926 293.416 292.6C292.684 292.111 266.993 292.6 252.928 294.148C238.863 295.696 225.53 297.163 220.001 294.148C214.473 291.133 211.952 288.607 213.741 285.593C215.53 282.578 232.115 280.541 232.115 280.541Z" fill="white" stroke="#263238" stroke-miterlimit="10" stroke-linecap="round" stroke-linejoin="round"/>
<path d="M186.586 273.941C186.586 273.941 183.822 282.741 182.033 293.089C180.245 303.437 178.293 310.2 172.765 316.311C167.237 322.341 159.757 335.622 158.944 337.904C158.212 340.185 155.448 348.741 154.147 348.985C152.928 349.23 145.854 345.481 143.334 343.933C140.814 342.385 134.31 339.615 132.521 337.415C130.733 335.133 129.025 331.63 130.733 331.63C132.521 331.63 142.033 334.156 145.285 333.911C148.537 333.667 149.838 332.363 151.546 329.104C153.334 325.844 162.359 304.007 165.123 295.37C167.887 286.815 167.887 276.956 169.676 273.207C171.464 269.459 170.651 266.689 176.749 266.119C182.846 265.63 186.586 273.941 186.586 273.941Z" fill="white" stroke="#263238" stroke-miterlimit="10" stroke-linecap="round" stroke-linejoin="round"/>
<path d="M222.034 227.089C222.034 227.089 225.53 231.652 225.53 237.193C225.53 242.733 224.798 247.296 225.042 248.763C225.286 250.311 235.123 278.259 235.123 278.993C235.123 279.726 228.619 287.304 221.058 289.341C213.497 291.378 212.278 290.889 212.278 290.889L199.513 264.489L192.196 285.348C192.196 285.348 179.107 284.207 175.773 282.17C172.521 280.133 165.773 275.978 165.773 275.978C165.773 275.978 169.513 264.896 175.855 251.289C182.115 237.681 183.172 234.178 183.416 228.881C183.66 223.585 183.416 220.815 183.416 220.815L222.034 227.089Z" fill="#263238" stroke="#263238" stroke-miterlimit="10" stroke-linecap="round" stroke-linejoin="round"/>
<path d="M188.779 229.533C188.779 229.533 188.779 233.689 192.275 236.215C195.771 238.741 201.137 235.237 205.852 237.763C210.568 240.289 210.568 243.141 210.568 243.141" stroke="white" stroke-miterlimit="10" stroke-linecap="round" stroke-linejoin="round"/>
<path d="M186.91 229.696C186.91 229.696 185.528 233.363 186.422 236.541C187.317 239.719 189.43 241.104 189.43 244.282" stroke="white" stroke-miterlimit="10" stroke-linecap="round" stroke-linejoin="round"/>
<path d="M221.871 220.978L223.578 227.17C223.903 228.23 223.415 229.289 222.44 229.778C219.35 231.326 212.358 234.178 204.472 232.874C196.505 231.57 188.619 229.941 185.123 229.207C184.066 228.963 183.334 228.067 183.334 227.007C183.334 225.867 184.147 224.97 185.204 224.726L219.269 219.267C220.407 219.185 221.545 219.837 221.871 220.978Z" fill="#D95639" stroke="#263238" stroke-miterlimit="10" stroke-linecap="round" stroke-linejoin="round"/>
<path d="M206.667 160.111C206.83 160.356 206.992 160.682 206.992 161.007C207.48 164.348 210.651 183.741 215.692 196.778C221.22 211.119 226.992 217.719 220.001 221.711C212.927 225.704 189.35 227.007 185.285 227.007C181.301 227.007 180.976 225.215 179.513 219.674C177.968 214.133 169.188 167.037 170.732 161.985C172.277 156.933 173.009 154.652 176.261 152.37C179.513 150.089 198.131 151.148 201.139 153.593C203.578 155.793 205.854 158.97 206.667 160.111Z" fill="#D95639" stroke="#263238" stroke-miterlimit="10" stroke-linecap="round" stroke-linejoin="round"/>
<path d="M183.333 138.111L186.829 147.4L179.512 153.919L175.203 140.8C175.284 140.882 179.512 135.096 183.333 138.111Z" fill="white" stroke="#263238" stroke-miterlimit="10" stroke-linecap="round" stroke-linejoin="round"/>
<path d="M183.089 140.637C183.089 140.637 187.804 139.578 188.861 130.778C189.837 121.978 180.243 116.356 174.227 115.867C168.211 115.378 162.438 119.37 161.869 123.2C161.382 126.948 162.195 130.859 162.195 131.674C162.195 132.407 158.942 139.17 159.755 140.148C160.487 141.126 163.008 142.185 163.008 142.185C163.008 142.185 164.227 156.526 165.772 158.807C167.316 161.089 168.78 161.578 171.3 159.785C173.821 157.993 178.373 153.756 179.593 150.17C180.812 146.667 179.105 141.37 179.105 141.37C179.105 141.37 182.032 142.674 183.089 140.637Z" fill="white" stroke="#263238" stroke-miterlimit="10" stroke-linecap="round" stroke-linejoin="round"/>
<path d="M165.447 134.526C165.851 134.526 166.178 133.833 166.178 132.978C166.178 132.123 165.851 131.43 165.447 131.43C165.042 131.43 164.715 132.123 164.715 132.978C164.715 133.833 165.042 134.526 165.447 134.526Z" fill="#263238"/>
<path d="M163.496 130.37C163.496 130.37 165.773 127.926 167.886 130.778" stroke="#263238" stroke-width="2" stroke-miterlimit="10" stroke-linecap="round" stroke-linejoin="round"/>
<path d="M174.147 115.867C170.814 115.622 167.562 116.682 165.204 118.393C164.879 118.8 164.635 119.207 165.285 119.289C166.424 119.452 170.164 118.23 172.359 119.289C174.066 120.104 174.798 120.593 175.367 122.304C175.936 123.933 175.692 125.97 174.554 127.193C173.416 128.496 172.277 128.578 173.172 130.533C174.147 132.815 173.903 130.533 174.391 135.83C174.879 141.126 177.887 144.141 174.635 145.689C171.383 147.237 171.464 143.978 168.944 142.511C167.887 141.859 166.261 142.593 165.773 142.593C164.879 142.593 164.554 142.837 163.822 142.511C163.497 142.348 162.928 142.185 162.928 142.185C162.928 142.185 164.147 156.526 165.692 158.807C167.237 161.089 168.7 161.578 171.22 159.785C173.741 157.993 178.294 153.756 179.513 150.17C180.733 146.667 179.025 141.37 179.025 141.37C179.025 141.37 182.033 142.593 183.009 140.637C183.009 140.637 187.724 139.578 188.781 130.778C189.838 121.978 180.245 116.356 174.147 115.867Z" fill="#263238" stroke="#263238" stroke-miterlimit="10" stroke-linecap="round" stroke-linejoin="round"/>
<path d="M164.797 145.933C164.797 145.933 167.073 145.689 168.537 143.896" stroke="white" stroke-miterlimit="10" stroke-linecap="round" stroke-linejoin="round"/>
<path d="M177.804 140.148C177.804 140.148 176.585 133.874 178.048 133.059C179.593 132.326 182.845 133.548 181.544 136.563C180.325 139.659 177.804 140.148 177.804 140.148Z" fill="white" stroke="#263238" stroke-miterlimit="10" stroke-linecap="round" stroke-linejoin="round"/>
<path d="M174.065 158.156C172.032 158.563 172.764 156.933 173.902 155.304C175.61 152.778 178.13 149.6 181.463 146.748C188.292 140.963 194.553 138.356 198.049 140.148C201.545 141.941 206.829 150.252 208.293 155.548C209.837 160.845 211.057 164.104 210.081 164.593C209.105 165.082 190 157.015 188.211 156.77C187.236 156.608 178.78 157.178 174.065 158.156Z" fill="#D95639" stroke="#263238" stroke-miterlimit="10" stroke-linecap="round" stroke-linejoin="round"/>
<path d="M191.301 147.645C196.341 148.541 202.52 151.148 202.764 150.496C203.089 149.682 202.114 148.459 199.106 147.645" stroke="#263238" stroke-miterlimit="10" stroke-linecap="round" stroke-linejoin="round"/>
<path d="M174.064 158.156C174.064 158.156 182.032 148.378 186.829 147.482C187.398 147.4 188.129 147.319 188.861 147.4" stroke="#263238" stroke-miterlimit="10" stroke-linecap="round" stroke-linejoin="round"/>
<path d="M188.373 156.771C188.373 156.771 195.121 156.852 198.942 157.993" stroke="#263238" stroke-miterlimit="10" stroke-linecap="round" stroke-linejoin="round"/>
<path d="M177.48 157.748C177.48 157.748 181.789 160.6 184.879 160.437C187.968 160.274 189.188 154.652 195.123 153.674C201.058 152.615 201.139 153.837 201.139 153.837" stroke="white" stroke-miterlimit="10" stroke-linecap="round" stroke-linejoin="round"/>
<path d="M145.366 203.948C145.366 203.948 138.293 199.141 136.829 198.408C135.285 197.674 131.057 201.178 131.057 201.178C131.057 201.178 127.805 200.689 127.317 202.156C126.829 203.704 126.586 205.904 127.317 206.148C128.049 206.393 129.106 206.637 129.35 207.371C129.594 208.104 129.838 210.874 131.626 212.178C133.415 213.4 136.911 213.4 139.431 213.156C141.951 212.911 145.203 212.422 145.203 212.422L145.366 203.948Z" fill="white" stroke="#263238" stroke-miterlimit="10" stroke-linecap="round" stroke-linejoin="round"/>
<path d="M151.382 203.704L147.398 203.867C146.26 203.948 145.284 204.845 145.203 206.067L144.878 212.422C144.796 213.645 145.772 214.704 146.992 214.785L150.813 215.111L151.382 203.704Z" fill="#D95639" stroke="#263238" stroke-miterlimit="10" stroke-linecap="round" stroke-linejoin="round"/>
<path d="M187.805 165.082C188.781 165.082 193.578 163.289 194.309 171.111C195.041 178.933 196.098 208.674 194.553 212.667C193.009 216.659 189.757 217.963 186.017 217.963C182.277 217.963 152.602 217.474 150.814 214.948C149.025 212.422 147.805 204.845 151.301 203.622C154.797 202.4 174.716 201.341 175.692 198.326C176.667 195.311 172.927 179.911 174.716 174.126C176.505 168.341 179.513 165.57 179.513 165.57" fill="#D95639"/>
<path d="M187.805 165.082C188.781 165.082 193.578 163.289 194.309 171.111C195.041 178.933 196.098 208.674 194.553 212.667C193.009 216.659 189.757 217.963 186.017 217.963C182.277 217.963 152.602 217.474 150.814 214.948C149.025 212.422 147.805 204.845 151.301 203.622C154.797 202.4 174.716 201.341 175.692 198.326C176.667 195.311 172.927 179.911 174.716 174.126C176.505 168.341 179.513 165.57 179.513 165.57" stroke="#263238" stroke-miterlimit="10" stroke-linecap="round" stroke-linejoin="round"/>
<path d="M296.992 275.733C297.968 277.282 304.797 288.607 306.342 295.615C307.887 302.704 308.049 304.659 305.285 304.985C303.984 305.067 301.545 300.748 299.188 297.896C296.748 295.045 294.472 293.741 293.74 292.845C293.903 292.274 294.066 291.622 294.553 290.889C295.529 289.096 298.049 290.889 298.049 290.889C298.049 290.889 296.261 287.141 293.496 284.37C291.057 281.926 289.025 282.985 288.537 283.311C290.163 282.17 296.017 274.267 296.992 275.733Z" fill="white" stroke="#263238" stroke-miterlimit="10" stroke-linecap="round" stroke-linejoin="round"/>
<path d="M305.284 304.985C308.048 304.741 307.805 302.704 306.341 295.615C304.796 288.526 297.967 277.2 296.992 275.733C296.585 275.082 295.203 276.304 293.658 277.852C295.853 280.378 300.406 285.919 302.764 290.645C305.366 295.859 306.422 300.748 305.04 304.904C305.122 304.985 305.203 304.985 305.284 304.985Z" fill="white" stroke="#263238" stroke-miterlimit="10" stroke-linecap="round" stroke-linejoin="round"/>
<path d="M132.521 337.415C130.733 335.133 129.025 331.63 130.733 331.63C132.521 331.63 142.033 334.156 145.285 333.911C146.83 333.83 147.887 333.422 148.781 332.77C149.757 333.259 150.651 333.911 150.814 334.644C151.058 336.193 150.57 337.659 150.57 337.659C150.57 337.659 151.302 338.148 154.31 339.696C155.448 340.267 156.667 340.756 157.724 341.163C156.586 344.504 154.96 348.822 154.066 348.985C152.846 349.23 145.773 345.481 143.253 343.933C140.895 342.467 134.31 339.696 132.521 337.415Z" fill="white" stroke="#263238" stroke-miterlimit="10" stroke-linecap="round" stroke-linejoin="round"/>
<path d="M154.146 348.985C154.553 348.904 155.041 348.089 155.61 346.867C150.651 344.748 141.301 340.674 137.155 338.148C133.984 336.193 132.195 333.585 131.301 331.63C131.057 331.63 130.894 331.548 130.813 331.548C129.025 331.548 130.813 335.052 132.602 337.333C134.39 339.615 140.894 342.385 143.415 343.852C145.854 345.482 152.927 349.23 154.146 348.985Z" fill="white" stroke="#263238" stroke-miterlimit="10" stroke-linecap="round" stroke-linejoin="round"/>
</g>
<defs>
<clipPath id="clip0_4012_5281">
<rect width="390" height="352" fill="white"/>
</clipPath>
</defs>
</svg>
