<svg width="102" height="102" viewBox="0 0 102 102" fill="none" xmlns="http://www.w3.org/2000/svg">
<rect width="102" height="102" rx="12" fill="#D95639"/>
<path d="M47.068 54.7768L41.5155 49.7894C38.951 47.9461 36.3446 49.3908 35.3619 50.3436C33.0722 52.4902 34.1789 55.4573 35.0184 56.6726L44.4349 65.5389C45.076 66.2856 46.4575 66.7833 47.068 66.9389C49.518 67.3356 51.2754 65.7042 51.8478 64.839L67.1316 42.7022C67.6468 41.6814 69.3927 38.3856 65.7292 35.819C62.7983 33.7658 59.9095 36.0524 58.8314 37.4523L47.068 54.7768Z" fill="white"/>
<circle cx="51" cy="51" r="29.5" stroke="#FF9D87" stroke-width="11"/>
<path d="M51 21.4943C51 18.4599 53.4747 15.9559 56.4718 16.4303C61.8488 17.2814 66.9795 19.3797 71.4396 22.5883C77.3941 26.8721 81.8522 32.9183 84.1842 39.873C86.5162 46.8277 86.6041 54.3394 84.4357 61.3468C82.2672 68.3542 77.9519 74.5032 72.0994 78.9252C66.2469 83.3472 59.1529 85.8186 51.8197 85.9904C44.4864 86.1622 37.2845 84.0256 31.2313 79.8825C25.1782 75.7394 20.5797 69.7992 18.0855 62.901C16.2173 57.7341 15.6003 52.2253 16.2504 46.8203C16.6128 43.8077 19.6975 42.111 22.6165 42.9399C25.5355 43.7688 27.1611 46.8202 27.016 49.8512C26.8652 53.0001 27.3351 56.1662 28.4192 59.1646C30.1304 63.8971 33.2851 67.9723 37.4379 70.8146C41.5906 73.657 46.5314 75.1228 51.5623 75.0049C56.5932 74.8871 61.46 73.1915 65.4751 70.1579C69.4902 67.1242 72.4506 62.9057 73.9383 58.0983C75.426 53.2909 75.3656 48.1377 73.7658 43.3664C72.1659 38.5952 69.1075 34.4472 65.0225 31.5084C62.4343 29.6464 59.5169 28.3295 56.4465 27.6144C53.4912 26.9261 51 24.5286 51 21.4943Z" fill="white"/>
</svg>
