<svg width="28" height="28" viewBox="0 0 28 28" fill="none" xmlns="http://www.w3.org/2000/svg">
<path d="M13.7212 3.91992C14.1464 3.91992 14.498 4.23578 14.5537 4.64577L14.5614 4.75975L14.5627 12.8799H22.6862C23.1501 12.8799 23.5262 13.256 23.5262 13.7199C23.5262 14.1452 23.2102 14.4966 22.8002 14.5523L22.6862 14.5599H14.5627L14.565 22.6789C14.5651 23.1428 14.1891 23.5191 13.7252 23.5191C13.2999 23.5191 12.9484 23.2032 12.8927 22.7932L12.885 22.6793L12.8827 14.5599H4.76383C4.29991 14.5599 3.92383 14.1838 3.92383 13.7199C3.92383 13.2947 4.23984 12.9432 4.64985 12.8876L4.76383 12.8799H12.8827L12.8814 4.76009C12.8813 4.29617 13.2573 3.91992 13.7212 3.91992Z" fill="white"/>
</svg>
