<svg width="22" height="22" viewBox="0 0 22 22" fill="none" xmlns="http://www.w3.org/2000/svg">
<path d="M12.6675 2.77832C13.3581 2.77832 13.9972 3.14407 14.347 3.73961L15.0522 4.94003H16.8449C18.3988 4.94003 19.6586 6.19975 19.6586 7.75369L19.6586 15.9782C19.6586 17.5322 18.3988 18.7919 16.8449 18.7919L5.15741 18.7919C3.60347 18.7919 2.34375 17.5322 2.34375 15.9782L2.34375 7.75369C2.34375 6.19975 3.60347 4.94003 5.15741 4.94003L6.95851 4.94003L7.71567 3.70696C8.06998 3.12995 8.69851 2.77832 9.37562 2.77832L12.6675 2.77832ZM12.6675 4.07693L9.37562 4.07693C9.18216 4.07693 9.0006 4.16304 8.8783 4.30877L8.82231 4.38648L7.87508 5.9291C7.75698 6.12144 7.54746 6.23864 7.32176 6.23864L5.15741 6.23864C4.32067 6.23864 3.64236 6.91695 3.64236 7.75369L3.64236 15.9782C3.64236 16.815 4.32067 17.4933 5.15741 17.4933H16.8449C17.6816 17.4933 18.36 16.815 18.36 15.9782L18.36 7.75369C18.36 6.91695 17.6816 6.23864 16.8449 6.23864H14.6806C14.4503 6.23864 14.2373 6.11673 14.1207 5.91821L13.2273 4.39736C13.1107 4.19885 12.8977 4.07693 12.6675 4.07693ZM11.0012 7.53726C13.1528 7.53726 14.897 9.28148 14.897 11.4331C14.897 13.5847 13.1528 15.3289 11.0012 15.3289C8.84955 15.3289 7.10532 13.5847 7.10532 11.4331C7.10532 9.28148 8.84955 7.53726 11.0012 7.53726ZM11.0012 8.83587C9.56675 8.83587 8.40394 9.99868 8.40394 11.4331C8.40394 12.8675 9.56675 14.0303 11.0012 14.0303C12.4356 14.0303 13.5984 12.8675 13.5984 11.4331C13.5984 9.99868 12.4356 8.83587 11.0012 8.83587Z" fill="white"/>
</svg>
