<svg width="24" height="24" viewBox="0 0 24 24" fill="none" xmlns="http://www.w3.org/2000/svg">
<path d="M10.8004 10.2C10.8004 9.86863 11.069 9.6 11.4004 9.6H15.6004C15.9318 9.6 16.2004 9.86863 16.2004 10.2C16.2004 10.5314 15.9318 10.8 15.6004 10.8H11.4004C11.069 10.8 10.8004 10.5314 10.8004 10.2ZM10.8004 13.8C10.8004 13.4686 11.069 13.2 11.4004 13.2H15.6004C15.9318 13.2 16.2004 13.4686 16.2004 13.8C16.2004 14.1314 15.9318 14.4 15.6004 14.4H11.4004C11.069 14.4 10.8004 14.1314 10.8004 13.8ZM10.8004 17.4C10.8004 17.0686 11.069 16.8 11.4004 16.8H15.6004C15.9318 16.8 16.2004 17.0686 16.2004 17.4C16.2004 17.7314 15.9318 18 15.6004 18H11.4004C11.069 18 10.8004 17.7314 10.8004 17.4ZM9.60039 10.2C9.60039 10.6971 9.19745 11.1 8.70039 11.1C8.20333 11.1 7.80039 10.6971 7.80039 10.2C7.80039 9.70294 8.20333 9.3 8.70039 9.3C9.19745 9.3 9.60039 9.70294 9.60039 10.2ZM9.60039 13.8C9.60039 14.2971 9.19745 14.7 8.70039 14.7C8.20333 14.7 7.80039 14.2971 7.80039 13.8C7.80039 13.3029 8.20333 12.9 8.70039 12.9C9.19745 12.9 9.60039 13.3029 9.60039 13.8ZM8.70039 18.3C9.19745 18.3 9.60039 17.8971 9.60039 17.4C9.60039 16.9029 9.19745 16.5 8.70039 16.5C8.20333 16.5 7.80039 16.9029 7.80039 17.4C7.80039 17.8971 8.20333 18.3 8.70039 18.3ZM8.50281 3.6C8.74991 2.90088 9.41666 2.4 10.2004 2.4H13.8004C14.5841 2.4 15.2509 2.90088 15.498 3.6H17.4004C18.3945 3.6 19.2004 4.40589 19.2004 5.4V19.8C19.2004 20.7941 18.3945 21.6 17.4004 21.6H6.60039C5.60628 21.6 4.80039 20.7941 4.80039 19.8V5.4C4.80039 4.40589 5.60628 3.6 6.60039 3.6H8.50281ZM10.2004 3.6C9.86902 3.6 9.60039 3.86863 9.60039 4.2C9.60039 4.53137 9.86902 4.8 10.2004 4.8H13.8004C14.1318 4.8 14.4004 4.53137 14.4004 4.2C14.4004 3.86863 14.1318 3.6 13.8004 3.6H10.2004ZM8.50281 4.8H6.60039C6.26902 4.8 6.00039 5.06863 6.00039 5.4V19.8C6.00039 20.1314 6.26902 20.4 6.60039 20.4H17.4004C17.7318 20.4 18.0004 20.1314 18.0004 19.8V5.4C18.0004 5.06863 17.7318 4.8 17.4004 4.8H15.498C15.2509 5.49912 14.5841 6 13.8004 6H10.2004C9.41666 6 8.74992 5.49912 8.50281 4.8Z" fill="white"/>
<path fill-rule="evenodd" clip-rule="evenodd" d="M10.2004 2.55C9.4822 2.55 8.87082 3.00893 8.64424 3.64999L8.60889 3.75H6.60039C5.68912 3.75 4.95039 4.48873 4.95039 5.4V19.8C4.95039 20.7113 5.68912 21.45 6.60039 21.45H17.4004C18.3117 21.45 19.0504 20.7113 19.0504 19.8V5.4C19.0504 4.48873 18.3117 3.75 17.4004 3.75H15.3919L15.3565 3.64999C15.13 3.00893 14.5186 2.55 13.8004 2.55H10.2004ZM8.39988 3.45C8.69368 2.74549 9.389 2.25 10.2004 2.25H13.8004C14.6118 2.25 15.3071 2.74549 15.6009 3.45H17.4004C18.4773 3.45 19.3504 4.32305 19.3504 5.4V19.8C19.3504 20.877 18.4773 21.75 17.4004 21.75H6.60039C5.52343 21.75 4.65039 20.877 4.65039 19.8V5.4C4.65039 4.32305 5.52343 3.45 6.60039 3.45H8.39988ZM9.45039 4.2C9.45039 3.78579 9.78618 3.45 10.2004 3.45H13.8004C14.2146 3.45 14.5504 3.78579 14.5504 4.2C14.5504 4.61421 14.2146 4.95 13.8004 4.95H10.2004C9.78618 4.95 9.45039 4.61421 9.45039 4.2ZM10.2004 3.75C9.95186 3.75 9.75039 3.95147 9.75039 4.2C9.75039 4.44853 9.95186 4.65 10.2004 4.65H13.8004C14.0489 4.65 14.2504 4.44853 14.2504 4.2C14.2504 3.95147 14.0489 3.75 13.8004 3.75H10.2004ZM5.85039 5.4C5.85039 4.98579 6.18618 4.65 6.60039 4.65H8.60889L8.64424 4.75001C8.87082 5.39107 9.4822 5.85 10.2004 5.85H13.8004C14.5186 5.85 15.13 5.39107 15.3565 4.75001L15.3919 4.65H17.4004C17.8146 4.65 18.1504 4.98579 18.1504 5.4V19.8C18.1504 20.2142 17.8146 20.55 17.4004 20.55H6.60039C6.18618 20.55 5.85039 20.2142 5.85039 19.8V5.4ZM6.60039 4.95C6.35186 4.95 6.15039 5.15147 6.15039 5.4V19.8C6.15039 20.0485 6.35186 20.25 6.60039 20.25H17.4004C17.6489 20.25 17.8504 20.0485 17.8504 19.8V5.4C17.8504 5.15147 17.6489 4.95 17.4004 4.95H15.6009C15.3071 5.65451 14.6118 6.15 13.8004 6.15H10.2004C9.389 6.15 8.69368 5.65451 8.39988 4.95H6.60039ZM8.70039 9.45C8.28618 9.45 7.95039 9.78579 7.95039 10.2C7.95039 10.6142 8.28618 10.95 8.70039 10.95C9.1146 10.95 9.45039 10.6142 9.45039 10.2C9.45039 9.78579 9.1146 9.45 8.70039 9.45ZM7.65039 10.2C7.65039 9.6201 8.12049 9.15 8.70039 9.15C9.28029 9.15 9.75039 9.6201 9.75039 10.2C9.75039 10.7799 9.28029 11.25 8.70039 11.25C8.12049 11.25 7.65039 10.7799 7.65039 10.2ZM11.4004 9.75C11.1519 9.75 10.9504 9.95147 10.9504 10.2C10.9504 10.4485 11.1519 10.65 11.4004 10.65H15.6004C15.8489 10.65 16.0504 10.4485 16.0504 10.2C16.0504 9.95147 15.8489 9.75 15.6004 9.75H11.4004ZM10.6504 10.2C10.6504 9.78579 10.9862 9.45 11.4004 9.45H15.6004C16.0146 9.45 16.3504 9.78579 16.3504 10.2C16.3504 10.6142 16.0146 10.95 15.6004 10.95H11.4004C10.9862 10.95 10.6504 10.6142 10.6504 10.2ZM8.70039 13.05C8.28618 13.05 7.95039 13.3858 7.95039 13.8C7.95039 14.2142 8.28618 14.55 8.70039 14.55C9.1146 14.55 9.45039 14.2142 9.45039 13.8C9.45039 13.3858 9.1146 13.05 8.70039 13.05ZM7.65039 13.8C7.65039 13.2201 8.12049 12.75 8.70039 12.75C9.28029 12.75 9.75039 13.2201 9.75039 13.8C9.75039 14.3799 9.28029 14.85 8.70039 14.85C8.12049 14.85 7.65039 14.3799 7.65039 13.8ZM11.4004 13.35C11.1519 13.35 10.9504 13.5515 10.9504 13.8C10.9504 14.0485 11.1519 14.25 11.4004 14.25H15.6004C15.8489 14.25 16.0504 14.0485 16.0504 13.8C16.0504 13.5515 15.8489 13.35 15.6004 13.35H11.4004ZM10.6504 13.8C10.6504 13.3858 10.9862 13.05 11.4004 13.05H15.6004C16.0146 13.05 16.3504 13.3858 16.3504 13.8C16.3504 14.2142 16.0146 14.55 15.6004 14.55H11.4004C10.9862 14.55 10.6504 14.2142 10.6504 13.8ZM7.65039 17.4C7.65039 16.8201 8.12049 16.35 8.70039 16.35C9.28029 16.35 9.75039 16.8201 9.75039 17.4C9.75039 17.9799 9.28029 18.45 8.70039 18.45C8.12049 18.45 7.65039 17.9799 7.65039 17.4ZM8.70039 16.65C8.28618 16.65 7.95039 16.9858 7.95039 17.4C7.95039 17.8142 8.28618 18.15 8.70039 18.15C9.1146 18.15 9.45039 17.8142 9.45039 17.4C9.45039 16.9858 9.1146 16.65 8.70039 16.65ZM11.4004 16.95C11.1519 16.95 10.9504 17.1515 10.9504 17.4C10.9504 17.6485 11.1519 17.85 11.4004 17.85H15.6004C15.8489 17.85 16.0504 17.6485 16.0504 17.4C16.0504 17.1515 15.8489 16.95 15.6004 16.95H11.4004ZM10.6504 17.4C10.6504 16.9858 10.9862 16.65 11.4004 16.65H15.6004C16.0146 16.65 16.3504 16.9858 16.3504 17.4C16.3504 17.8142 16.0146 18.15 15.6004 18.15H11.4004C10.9862 18.15 10.6504 17.8142 10.6504 17.4Z" fill="white"/>
</svg>
