<svg width="52" height="52" viewBox="0 0 52 52" fill="none" xmlns="http://www.w3.org/2000/svg">
<path d="M47.4109 11.0763V15.9721C47.4109 17.3948 46.2826 18.5623 44.8698 18.631V41.511C44.8698 45.9457 41.269 49.5465 36.8343 49.5465H29.2207V8.42721H31.6637V5.82724C31.6637 5.64083 31.5068 5.49363 31.3203 5.49363H29.2207V2.45215H31.3203C33.1845 2.45215 34.6954 3.97289 34.6954 5.82724V8.42721H44.7422C46.2139 8.42721 47.4109 9.6144 47.4109 11.0763Z" fill="black"/>
<path d="M36.8339 50.0374H29.2201C28.9489 50.0374 28.7295 49.818 28.7295 49.5468V8.42742C28.7295 8.15627 28.9489 7.93685 29.2201 7.93685H31.1727V5.98465H29.2201C28.9489 5.98465 28.7295 5.76524 28.7295 5.49409V2.45248C28.7295 2.18133 28.9489 1.96191 29.2201 1.96191H31.3198C33.4512 1.96191 35.1854 3.69614 35.1854 5.82752V7.93685H44.7419C46.4838 7.93685 47.9009 9.34532 47.9009 11.0767V15.9723C47.9009 17.4971 46.8172 18.7758 45.3599 19.0642V41.5114C45.3599 46.2125 41.535 50.0374 36.8339 50.0374ZM29.7106 49.0563H36.8339C40.9941 49.0563 44.3787 45.6716 44.3787 41.5114V18.6316C44.3787 18.37 44.5843 18.1544 44.8454 18.1415C46.0085 18.085 46.9197 17.1321 46.9197 15.9723V11.0767C46.9197 9.88618 45.9429 8.91799 44.7419 8.91799H34.6949C34.4237 8.91799 34.2043 8.69857 34.2043 8.42742V5.82752C34.2043 4.23701 32.9103 2.94305 31.3198 2.94305H29.7106V5.00352H31.3198C31.7797 5.00352 32.1539 5.37336 32.1539 5.82752V8.42742C32.1539 8.69857 31.9345 8.91799 31.6633 8.91799H29.7106V49.0563Z" fill="black"/>
<path d="M30.235 9.93823C29.3958 9.93823 28.7159 9.25826 28.7159 8.41905V5.83171C28.7159 5.6438 28.5626 5.49049 28.3747 5.49049H19.4391C19.2542 5.49049 19.0979 5.64676 19.0979 5.83171V8.41905C19.0979 9.25826 18.4179 9.93823 17.5787 9.93823C16.7395 9.93823 16.0596 9.25826 16.0596 8.41905V5.83171C16.0596 3.96835 17.5758 2.45215 19.4391 2.45215H28.3747C30.238 2.45215 31.7542 3.96835 31.7542 5.83171V8.41905C31.7542 9.25826 31.0743 9.93823 30.235 9.93823Z" fill="#282F31"/>
<path d="M30.2351 10.429C29.127 10.429 28.2254 9.52736 28.2254 8.41928V5.9813H19.5887V8.41928C19.5887 9.52736 18.6871 10.429 17.579 10.429C16.4709 10.429 15.5693 9.52736 15.5693 8.41928V5.83183C15.5693 3.69806 17.3055 1.96191 19.4393 1.96191H28.3748C30.5091 1.96191 32.2452 3.69806 32.2452 5.83183V8.41928C32.2452 9.52736 31.3436 10.429 30.2351 10.429ZM19.4393 5.00017H28.3748C28.8333 5.00017 29.2065 5.37336 29.2065 5.83183V8.41928C29.2065 8.98649 29.6678 9.44784 30.2351 9.44784C30.8023 9.44784 31.2641 8.98649 31.2641 8.41928V5.83183C31.2641 4.23893 29.9677 2.94305 28.3748 2.94305H19.4393C17.8463 2.94305 16.5505 4.23893 16.5505 5.83183V8.41928C16.5505 8.98649 17.0118 9.44784 17.579 9.44784C18.1462 9.44784 18.6076 8.98649 18.6076 8.41928V5.83183C18.6076 5.37336 18.9808 5.00017 19.4393 5.00017Z" fill="black"/>
<path d="M41.9248 15.0117V41.5121C41.9248 45.9468 38.324 49.5476 33.8893 49.5476H15.1594C10.7248 49.5476 7.13379 45.9468 7.13379 41.5121V15.0117H41.9248Z" fill="#FCEBEB"/>
<path d="M33.8896 50.0377H15.1595C10.4636 50.0377 6.64355 46.2128 6.64355 41.5117V15.0111C6.64355 14.7399 6.86297 14.5205 7.13412 14.5205H41.925C42.1962 14.5205 42.4156 14.7399 42.4156 15.0111V41.5117C42.4156 46.2128 38.5907 50.0377 33.8896 50.0377ZM7.62469 15.5016V41.5117C7.62469 45.6719 11.005 49.0565 15.1595 49.0565H33.8896C38.0498 49.0565 41.4345 45.6719 41.4345 41.5117V15.5016H7.62469Z" fill="black"/>
<path d="M44.4625 11.0761V15.9751C44.4625 17.4376 43.2717 18.6284 41.7988 18.6284H7.24404C5.78166 18.6284 4.59082 17.4376 4.59082 15.9751V11.0761C4.59082 9.61369 5.78166 8.42285 7.24404 8.42285H41.7988C43.2717 8.42285 44.4625 9.61369 44.4625 11.0761Z" fill="#FF3E3E"/>
<path d="M41.7994 19.1193H7.24471C5.51096 19.1193 4.10059 17.709 4.10059 15.9752V11.0763C4.10059 9.34299 5.51096 7.93262 7.24471 7.93262H41.7994C43.5385 7.93262 44.9536 9.34299 44.9536 11.0763V15.9752C44.9536 17.709 43.5385 19.1193 41.7994 19.1193ZM7.24471 8.91375C6.05183 8.91375 5.08172 9.88386 5.08172 11.0763V15.9752C5.08172 17.1681 6.05183 18.1382 7.24471 18.1382H41.7994C42.9976 18.1382 43.9725 17.1681 43.9725 15.9752V11.0763C43.9725 9.88386 42.9976 8.91375 41.7994 8.91375H7.24471Z" fill="black"/>
<path d="M35.8862 25.9751V42.1988C35.8862 43.4042 34.9076 44.3829 33.7022 44.3829C32.4968 44.3829 31.5078 43.4042 31.5078 42.1988V25.9751C31.5078 24.7697 32.4968 23.791 33.7022 23.791C34.2997 23.791 34.856 24.0383 35.2475 24.4297C35.639 24.8315 35.8862 25.3673 35.8862 25.9751Z" fill="#FF3E3E"/>
<path d="M33.7018 44.8737C32.221 44.8737 31.0166 43.6736 31.0166 42.1991V25.9754C31.0166 24.5008 32.221 23.3008 33.7018 23.3008C34.4065 23.3008 35.0963 23.5858 35.5941 24.0826C36.1 24.6029 36.3764 25.2731 36.3764 25.9754V42.1991C36.3764 43.6736 35.1764 44.8737 33.7018 44.8737ZM33.7018 24.2819C32.7623 24.2819 31.9977 25.0417 31.9977 25.9754V42.1991C31.9977 43.1328 32.7623 43.8926 33.7018 43.8926C34.6355 43.8926 35.3953 43.1328 35.3953 42.1991V25.9754C35.3953 25.4048 35.1237 25.0063 34.8956 24.772C34.5857 24.4625 34.1488 24.2819 33.7018 24.2819Z" fill="black"/>
<path d="M16.9086 24.4297C17.3001 24.8315 17.5474 25.3673 17.5474 25.9751V42.1988C17.5474 43.4042 16.5687 44.3829 15.353 44.3829C14.1477 44.3829 13.1689 43.4042 13.1689 42.1988V25.9751C13.1689 24.7697 14.1477 23.791 15.353 23.791C15.9609 23.791 16.5068 24.0383 16.9086 24.4297Z" fill="#FF3E3E"/>
<path d="M15.3533 44.8737C13.8788 44.8737 12.6787 43.6736 12.6787 42.1991V25.9754C12.6787 24.5008 13.8788 23.3008 15.3533 23.3008C16.0629 23.3008 16.7369 23.5772 17.2514 24.0788L17.26 24.0874C17.7621 24.6024 18.0385 25.2726 18.0385 25.9754V42.1991C18.0385 43.6736 16.8342 44.8737 15.3533 44.8737ZM15.3533 24.2819C14.4196 24.2819 13.6598 25.0417 13.6598 25.9754V42.1991C13.6598 43.1328 14.4196 43.8926 15.3533 43.8926C16.2928 43.8926 17.0574 43.1328 17.0574 42.1991V25.9754C17.0574 25.4082 16.7891 25.0115 16.562 24.7768C16.2324 24.4577 15.8032 24.2819 15.3533 24.2819Z" fill="black"/>
<path d="M26.0786 24.4297C26.4701 24.8315 26.7173 25.3673 26.7173 25.9751V42.1988C26.7173 43.4042 25.7386 44.3829 24.5332 44.3829C23.3176 44.3829 22.3389 43.4042 22.3389 42.1988V25.9751C22.3389 24.7697 23.3176 23.791 24.5332 23.791C25.1307 23.791 25.6871 24.0383 26.0786 24.4297Z" fill="#FF3E3E"/>
<path d="M24.5328 44.8737C23.052 44.8737 21.8477 43.6736 21.8477 42.1991V25.9754C21.8477 24.5008 23.052 23.3008 24.5328 23.3008C25.2375 23.3008 25.9274 23.5858 26.4252 24.0826C26.4266 24.0845 26.428 24.086 26.4299 24.0879C26.9311 24.6029 27.2075 25.2731 27.2075 25.9754V42.1991C27.2075 43.6736 26.0074 44.8737 24.5328 44.8737ZM24.5328 24.2819C23.5934 24.2819 22.8288 25.0417 22.8288 25.9754V42.1991C22.8288 43.1328 23.5934 43.8926 24.5328 43.8926C25.4665 43.8926 26.2263 43.1328 26.2263 42.1991V25.9754C26.2263 25.4072 25.9566 25.0091 25.7295 24.7749C25.4148 24.4616 24.9788 24.2819 24.5328 24.2819Z" fill="black"/>
</svg>
