<svg width="20" height="20" viewBox="0 0 20 20" fill="none" xmlns="http://www.w3.org/2000/svg">
<path d="M17.4592 2.54041C16.2946 1.37581 14.4064 1.37586 13.2419 2.54053L3.28354 12.5001C2.94494 12.8387 2.70693 13.2647 2.59601 13.7305L1.68302 17.5651C1.63275 17.7762 1.69562 17.9983 1.84909 18.1518C2.00256 18.3052 2.22466 18.3681 2.43579 18.3178L6.27017 17.4049C6.73617 17.2939 7.16223 17.0558 7.50094 16.7171L17.4594 6.7575C18.6238 5.59293 18.6237 3.70491 17.4592 2.54041ZM14.1258 3.42436C14.8022 2.7479 15.8989 2.74786 16.5754 3.42429C17.2517 4.10066 17.2518 5.19726 16.5754 5.87367L15.8326 6.61654L13.3832 4.16709L14.1258 3.42436ZM12.4994 5.05103L14.9488 7.50048L6.617 15.8333C6.44188 16.0084 6.22158 16.1315 5.98064 16.1889L3.13427 16.8666L3.81202 14.02C3.86937 13.7792 3.99242 13.559 4.16747 13.3839L12.4994 5.05103Z" fill="white"/>
</svg>
