<svg width="24" height="24" viewBox="0 0 24 24" fill="none" xmlns="http://www.w3.org/2000/svg">
<path d="M14.9992 20.4002C15.3306 20.4002 15.5992 20.1316 15.5992 19.8002C15.5992 19.4688 15.3306 19.2002 14.9992 19.2002H7.19922C5.87374 19.2002 4.79922 18.1257 4.79922 16.8002V7.2002C4.79922 5.87471 5.87374 4.8002 7.19922 4.8002H14.9992C15.3306 4.8002 15.5992 4.53157 15.5992 4.2002C15.5992 3.86882 15.3306 3.6002 14.9992 3.6002H7.19922C5.21099 3.6002 3.59922 5.21197 3.59922 7.2002V16.8002C3.59922 18.7884 5.21099 20.4002 7.19922 20.4002H14.9992ZM16.375 7.37593C16.6093 7.14162 16.9892 7.14162 17.2235 7.37593L21.4235 11.5759C21.6578 11.8102 21.6578 12.1901 21.4235 12.4245L17.2235 16.6245C16.9892 16.8588 16.6093 16.8588 16.375 16.6245C16.1406 16.3901 16.1406 16.0102 16.375 15.7759L19.5507 12.6002H8.99922C8.66785 12.6002 8.39922 12.3316 8.39922 12.0002C8.39922 11.6688 8.66785 11.4002 8.99922 11.4002H19.5507L16.375 8.22446C16.1406 7.99014 16.1406 7.61025 16.375 7.37593Z" fill="white"/>
<path fill-rule="evenodd" clip-rule="evenodd" d="M3.44922 7.2002C3.44922 5.12913 5.12815 3.4502 7.19922 3.4502H14.9992C15.4134 3.4502 15.7492 3.78598 15.7492 4.2002C15.7492 4.61441 15.4134 4.9502 14.9992 4.9502H7.19922C5.95658 4.9502 4.94922 5.95755 4.94922 7.2002V16.8002C4.94922 18.0428 5.95658 19.0502 7.19922 19.0502H14.9992C15.4134 19.0502 15.7492 19.386 15.7492 19.8002C15.7492 20.2144 15.4134 20.5502 14.9992 20.5502H7.19922C5.12815 20.5502 3.44922 18.8713 3.44922 16.8002V7.2002ZM7.19922 3.7502C5.29384 3.7502 3.74922 5.29481 3.74922 7.2002V16.8002C3.74922 18.7056 5.29384 20.2502 7.19922 20.2502H14.9992C15.2477 20.2502 15.4492 20.0487 15.4492 19.8002C15.4492 19.5517 15.2477 19.3502 14.9992 19.3502H7.19922C5.79089 19.3502 4.64922 18.2085 4.64922 16.8002V7.2002C4.64922 5.79187 5.79089 4.6502 7.19922 4.6502H14.9992C15.2477 4.6502 15.4492 4.44872 15.4492 4.2002C15.4492 3.95167 15.2477 3.7502 14.9992 3.7502H7.19922ZM17.1174 7.482C16.9417 7.30626 16.6568 7.30626 16.481 7.482C16.3053 7.65773 16.3053 7.94266 16.481 8.11839L19.6568 11.2941C19.6997 11.337 19.7125 11.4015 19.6893 11.4576C19.6661 11.5136 19.6114 11.5502 19.5507 11.5502H8.99922C8.75069 11.5502 8.54922 11.7517 8.54922 12.0002C8.54922 12.2487 8.75069 12.4502 8.99922 12.4502H19.5507C19.6114 12.4502 19.6661 12.4867 19.6893 12.5428C19.7125 12.5988 19.6997 12.6634 19.6568 12.7063L16.481 15.882C16.3053 16.0577 16.3053 16.3427 16.481 16.5184C16.6568 16.6941 16.9417 16.6941 17.1174 16.5184L21.3174 12.3184C21.4932 12.1427 21.4932 11.8577 21.3174 11.682L17.1174 7.482ZM16.2689 7.26987C16.5618 6.97697 17.0367 6.97697 17.3295 7.26987L21.5296 11.4699C21.8224 11.7628 21.8224 12.2376 21.5296 12.5305L17.3295 16.7305C17.0367 17.0234 16.5618 17.0234 16.2689 16.7305C15.976 16.4376 15.976 15.9628 16.2689 15.6699L19.1886 12.7502H8.99922C8.58501 12.7502 8.24922 12.4144 8.24922 12.0002C8.24922 11.586 8.58501 11.2502 8.99922 11.2502H19.1886L16.2689 8.33052C15.976 8.03763 15.976 7.56276 16.2689 7.26987Z" fill="white"/>
</svg>
