<svg width="24" height="24" viewBox="0 0 24 24" fill="none" xmlns="http://www.w3.org/2000/svg">
<path d="M6.43242 14.0863L5.73625 16.6852L3.19176 16.739C2.43133 15.3286 2 13.7149 2 12C2 10.3418 2.40328 8.77804 3.11813 7.40112H3.11867L5.38399 7.81644L6.37633 10.0682C6.16863 10.6737 6.05543 11.3237 6.05543 12C6.05551 12.7341 6.18848 13.4374 6.43242 14.0863Z" fill="#FBBB00"/>
<path d="M21.8261 10.1318C21.941 10.7368 22.0009 11.3615 22.0009 12C22.0009 12.7159 21.9256 13.4143 21.7822 14.0879C21.2954 16.3802 20.0234 18.3818 18.2613 19.7983L18.2608 19.7978L15.4075 19.6522L15.0037 17.1313C16.1729 16.4456 17.0866 15.3725 17.568 14.0879H12.2207V10.1318H17.646H21.8261Z" fill="#518EF8"/>
<path d="M18.2595 19.7977L18.2601 19.7983C16.5464 21.1757 14.3694 21.9999 11.9997 21.9999C8.19141 21.9999 4.88043 19.8713 3.19141 16.7389L6.43207 14.0862C7.27656 16.34 9.45074 17.9444 11.9997 17.9444C13.0952 17.9444 14.1216 17.6483 15.0024 17.1312L18.2595 19.7977Z" fill="#28B446"/>
<path d="M18.384 4.30219L15.1444 6.95438C14.2329 6.38461 13.1554 6.05547 12.001 6.05547C9.39442 6.05547 7.17957 7.73348 6.37738 10.0681L3.11969 7.4011H3.11914C4.78344 4.19231 8.13617 2 12.001 2C14.4274 2 16.6521 2.8643 18.384 4.30219Z" fill="#F14336"/>
</svg>
