<svg width="52" height="53" viewBox="0 0 52 53" fill="none" xmlns="http://www.w3.org/2000/svg">
<path d="M46.4999 26.4906C46.4999 37.815 37.3293 47 25.9999 47C14.6706 47 5.5 37.815 5.5 26.4906C5.5 15.1847 14.6706 5.99976 25.9999 5.99976C37.3293 5.99976 46.4999 15.1847 46.4999 26.4906Z" fill="#04B155"/>
<path d="M26.0004 47C14.697 47 5.50098 37.8007 5.50098 26.4915C5.50098 15.1928 14.697 6.00049 26.0004 6.00049C37.3037 6.00049 46.4998 15.1928 46.4998 26.4915C46.4998 37.8007 37.3037 47 26.0004 47ZM26.0004 7.33857C15.4343 7.33857 6.8396 15.9307 6.8396 26.4915C6.8396 37.062 15.4343 45.6619 26.0004 45.6619C36.5664 45.6619 45.1612 37.062 45.1612 26.4915C45.1612 15.9307 36.5664 7.33857 26.0004 7.33857Z" fill="black"/>
<path d="M23.1861 36.1612C22.5011 36.1612 21.8163 35.9017 21.2937 35.3811L12.8825 27.0007C11.8373 25.9594 11.8373 24.273 12.8825 23.2317C13.9259 22.1903 15.6203 22.1903 16.6654 23.2317L23.1861 29.7267L35.1001 17.8562C36.1452 16.8149 37.8378 16.8149 38.8829 17.8562C39.9281 18.8958 39.9281 20.5839 38.8829 21.6252L25.0784 35.3811C24.5557 35.9017 23.8709 36.1612 23.1861 36.1612Z" fill="white"/>
</svg>
